<?xml version="1.0" encoding="UTF-8" standalone="no"?><!DOCTYPE svg PUBLIC "-//W3C//DTD SVG 1.1//EN" "http://www.w3.org/Graphics/SVG/1.1/DTD/svg11.dtd"><svg width="100%" height="100%" viewBox="0 0 69446 69446" version="1.1" xmlns="http://www.w3.org/2000/svg" xmlns:xlink="http://www.w3.org/1999/xlink" xml:space="preserve" xmlns:serif="http://www.serif.com/" style="fill-rule:evenodd;clip-rule:evenodd;stroke-linejoin:round;stroke-miterlimit:2;"><g><g><path d="M34791.1,66948.7c-18618.9,0 -33713.4,-14321.2 -33713.4,-31987.1c0,-17666 15094.5,-31987.1 33713.4,-31987.1c18620.2,0 33714.7,14321.1 33714.7,31987.1c0,17665.9 -15094.5,31987.1 -33714.7,31987.1Zm149.16,-56312.9c-14279.4,0 -25857.4,10891 -25857.4,24325.8c0,13434.7 11577.9,24325.7 25857.4,24325.7c14280.8,0 25857.4,-10891 25857.4,-24325.7c0,-13434.8 -11576.7,-24325.8 -25857.4,-24325.8Z" style="fill:#3e3453;fill-rule:nonzero;"/><path d="M57154.1,34813.3c0,11675 -9894.24,21139.5 -22100.2,21139.5c-12205.9,0 -22100.1,-9464.47 -22100.1,-21139.5c0,-11675.1 9894.24,-21139.6 22100.1,-21139.6c12205.9,0 22100.2,9464.48 22100.2,21139.6Z" style="fill:#ed6326;fill-rule:nonzero;"/><path d="M18441.9,27219.8c5149.25,-1387.37 8901.25,-4743 13511.5,-7154.33c1733.42,-906.225 3511.33,-835.285 5274.84,-1305.54c2110.18,-562.362 4042.46,-1699.33 5936.79,-2693.9c344.082,-180.205 706.469,-362.774 1081.91,-539.468c-2821.86,-1250.84 -5965.56,-1950.11 -9280.67,-1950.11c-10048.6,0 -18531.2,6416.56 -21214.4,15200.1c1694.17,-754.068 3604.22,-1263.87 4690.03,-1556.69l-0.019,-0.043Z" style="fill:#ef8a34;fill-rule:nonzero;"/><path d="M34257.3,39672.4c2798.31,-903.853 4958.22,-2600.07 7370.61,-4271.75c2793.11,-1935.1 5526.01,-3797.1 8113.69,-5915.39c1394.61,-1142.11 3473.39,-2626.59 5379.51,-3455.61c-562.554,-1194.04 -1240.21,-2328.14 -2015.99,-3391.54c-934.102,1207.68 -2383.64,2209.39 -4069.95,2935.68c-4960.84,2136.17 -9352.64,3127.25 -13629.2,6573.36c-3561.03,2868.86 -7322.25,5655.86 -11360.8,7893.14c-2382.3,1319.68 -4848.36,2974.22 -7579.94,3456.24c-519.367,91.609 -1028.29,132.39 -1529.33,159.05c773.159,1581.97 1743.86,3056.94 2883.34,4396.12c3469.46,-1554.43 6275.66,-3866.55 9730.72,-5841.57c2171.66,-1240.71 4356.45,-1778.05 6707.34,-2537.74l0,0.012Z" style="fill:#ef8a34;fill-rule:nonzero;"/><path d="M52351.8,32100.3c-6167.07,4195.41 -11867.1,8840.33 -17692.7,13425.9c-3406.66,2680.91 -6579.16,5495.44 -10135,7824.2c3111.01,1597.86 6665.55,2505.09 10442.4,2505.09c12205.9,0 22101.4,-9464.48 22101.4,-21139.6c0,-1747.26 -223.704,-3444.47 -641.029,-5068.36c-1378.89,945.908 -3133.23,1812.09 -4075.16,2452.78l-0.007,0.012Z" style="fill:#ef8a34;fill-rule:nonzero;"/><path d="M14900.6,32007.4c498.415,-495.042 1153.85,-702.512 1821.06,-909.231c697.307,-216.238 1352.74,-454.364 1936.21,-887.707c503.654,-373.651 -202.789,-1037.88 -699.922,-668.844c-545.532,405.294 -1250.69,562.604 -1894.33,768.571c-693.377,222.489 -1348.81,517.943 -1861.63,1028.37c-442.169,439.225 256.408,1108.94 698.609,668.844Z" style="fill:#edba3a;fill-rule:nonzero;"/><path d="M16989.8,32128.9c1988.52,497.164 3485.14,-1079.66 4513.43,-2487.07c366.311,-501.287 -490.593,-973.174 -852.973,-477.258c-750.931,1027.86 -1908.74,2424.49 -3397.5,2052.34c-617.487,-154.418 -879.139,757.827 -262.96,911.984Z" style="fill:#edba3a;fill-rule:nonzero;"/><path d="M14846.9,35266.8c17.022,-206.725 478.835,-385.171 638.439,-446.36c307.416,-118.002 678.97,-203.469 1009.96,-138.029c622.724,123.131 886.992,-788.344 262.953,-911.857c-1045.28,-206.846 -2800.96,297.454 -2899.08,1496.25c-49.701,608.4 939.34,603.907 987.726,0Z" style="fill:#edba3a;fill-rule:nonzero;"/><path d="M15540.3,36685.3c998.202,87.48 1976.77,-134.754 2722.45,-800.488c465.743,-417.075 -234.18,-1084.42 -699.923,-668.722c-557.31,498.298 -1289.9,587.645 -2022.53,523.581c-635.791,-55.575 -630.585,890.703 0,945.629Z" style="fill:#edba3a;fill-rule:nonzero;"/><path d="M18241.8,33925.9c439.585,-162.179 879.17,-260.415 1351.43,-266.799c637.131,-8.634 638.438,-954.524 0,-945.769c-556.002,7.634 -1096.29,109.368 -1614.35,300.571c-251.208,92.719 -422.595,314.474 -345.396,581.758c66.722,229.881 357.148,423.078 608.318,330.239Z" style="fill:#edba3a;fill-rule:nonzero;"/><path d="M14979,33642.2c395.091,-94.598 791.489,-189.197 1186.58,-283.673c618.794,-147.912 355.841,-1060.02 -262.954,-911.985c-395.097,94.598 -791.495,189.081 -1186.59,283.679c-618.794,147.791 -355.84,1059.89 262.96,911.979Z" style="fill:#edba3a;fill-rule:nonzero;"/><path d="M20417.4,35249.9c871.278,-219.737 1705.95,-571.863 2490.9,-993.322c556.002,-298.57 57.554,-1115.59 -499.762,-816.756c-714.29,383.795 -1459.98,698.129 -2254.1,898.221c-616.178,155.163 -354.526,1067.41 262.96,911.857Z" style="fill:#edba3a;fill-rule:nonzero;"/><path d="M23579.4,31533.3c528.535,-696.88 1631.37,-708.012 2441.2,-711.511c637.098,-2.752 637.098,-948.399 0,-945.768c-1227.14,5.372 -2524.91,163.919 -3294.17,1180.01c-375.453,494.782 482.765,965.917 852.974,477.265Z" style="fill:#edba3a;fill-rule:nonzero;"/><path d="M29216.6,31277.7c614.871,-130.51 1155.19,-462.125 1602.6,-878.073c457.89,-425.83 -242.033,-1094.18 -698.608,-668.844c-332.298,308.836 -711.675,538.334 -1166.94,634.933c-621.416,132.269 -358.457,1044.01 262.953,911.984Z" style="fill:#edba3a;fill-rule:nonzero;"/><path d="M26368.6,28487.5c423.865,-199.462 862.142,-367.885 1286.01,-567.492c240.7,-113.861 306.108,-436.581 176.593,-646.937c-142.575,-234.003 -434.309,-283.558 -676.348,-169.697c-423.871,199.607 -862.142,368.03 -1284.7,567.497c-242.008,113.873 -306.108,436.721 -177.907,646.956c143.889,233.997 434.315,283.552 676.354,169.673Z" style="fill:#edba3a;fill-rule:nonzero;"/><path d="M23402.8,27825.4c285.188,-176.688 604.388,-296.066 889.576,-472.875c226.358,-139.666 317.93,-416.96 177.939,-646.956c-132.137,-214.728 -450.029,-309.708 -676.354,-169.678c-286.528,176.809 -604.42,296.187 -890.916,472.875c-225.018,139.787 -317.899,417.075 -176.625,646.955c130.822,214.862 450.054,309.83 676.38,169.679Z" style="fill:#edba3a;fill-rule:nonzero;"/><path d="M28247.2,25271.8c366.279,-262.397 741.764,-539.449 1166.94,-709.019c248.548,-98.848 423.865,-309.326 345.359,-581.624c-64.101,-224.988 -358.457,-429.584 -608.318,-330.233c-515.438,205.222 -957.645,485.154 -1402.43,804.381c-215.881,154.157 -325.752,405.301 -177.939,646.938c124.277,203.226 460.505,324.599 676.386,169.557Z" style="fill:#edba3a;fill-rule:nonzero;"/><path d="M30522.3,26427.5l32.705,-28.394c-32.705,24.774 -66.717,49.306 -99.427,74.08c40.564,-30.043 86.335,-52.18 132.137,-74.328c85.021,-40.8 162.219,-98.236 231.557,-160.56c196.238,-177.191 187.07,-490.398 0,-668.723c-194.923,-186.067 -503.685,-177.069 -698.608,0l-34.018,28.291c34.018,-24.653 66.722,-49.306 100.74,-73.959c-41.846,29.904 -86.334,52.059 -132.137,74.208c-85.02,40.799 -163.527,98.23 -231.563,160.541c-196.231,177.191 -187.07,490.289 0,668.844c193.621,185.965 503.691,176.949 698.614,0Z" style="fill:#edba3a;fill-rule:nonzero;"/><path d="M33686.9,30777.8c379.409,-353.879 830.746,-612.031 1283.39,-871.803c546.84,-313.468 49.7,-1131.35 -498.448,-816.635c-523.297,300.571 -1043.97,610.28 -1484.83,1019.72c-456.575,425.849 242.008,1094.06 699.891,668.722Z" style="fill:#edba3a;fill-rule:nonzero;"/><path d="M40111.7,27163.4c433.04,-246.391 879.139,-470.771 1285.98,-756.694c215.882,-152.417 324.477,-406.828 177.933,-646.834c-125.584,-204.839 -459.191,-322.841 -676.348,-169.673c-406.875,285.801 -854.288,510.176 -1286.01,756.433c-546.834,311.721 -49.694,1129.61 498.447,816.768Z" style="fill:#edba3a;fill-rule:nonzero;"/><path d="M40785.4,23900.9c266.884,-86.716 524.606,-196.836 790.181,-283.679c255.1,-82.975 419.941,-321.847 345.365,-581.637c-67.999,-237.381 -351.911,-413.444 -607.01,-330.36c-268.198,86.977 -524.606,196.836 -791.496,283.819c-255.099,82.956 -419.941,321.846 -345.358,581.618c68.03,237.259 353.218,413.444 608.318,330.239Z" style="fill:#edba3a;fill-rule:nonzero;"/><path d="M41595.2,19786.5c368.933,-178.95 719.535,-388.542 1088.47,-567.498c567.785,-276.039 66.722,-1091.92 -499.755,-816.628c-368.907,178.949 -719.535,388.542 -1087.13,567.491c-569.1,276.058 -68.031,1091.92 498.415,816.635Z" style="fill:#edba3a;fill-rule:nonzero;"/><path d="M15324.5,40594.2c149.127,-796.729 910.534,-731.919 1605.21,-670.359c712.99,63.196 1497.93,272.298 2201.75,54.823c604.42,-186.831 345.39,-1100.2 -262.96,-911.996c-769.229,238.005 -1742.56,-114.486 -2535.36,-119.379c-964.184,-5.875 -1783.14,441.232 -1962.36,1395.38c-111.21,596.274 841.19,851.049 953.715,251.526Z" style="fill:#edba3a;fill-rule:nonzero;"/><path d="M15592.6,38722.1c820.27,-659.222 1989.86,-708.897 3011.57,-712.657c638.439,-2.364 638.439,-948.151 0,-945.768c-1316.06,4.887 -2667.49,151.671 -3710.16,989.563c-489.279,392.804 213.228,1058.28 698.583,668.862Z" style="fill:#edba3a;fill-rule:nonzero;"/><path d="M20120.5,38654.5c907.912,-138.15 1705.95,-697.134 2294.67,-1351.08c413.388,-459.5 -282.573,-1131.6 -699.923,-668.723c-490.594,546.21 -1097.6,992.189 -1857.7,1107.95c-627.962,95.471 -361.079,1006.84 262.954,911.857Z" style="fill:#edba3a;fill-rule:nonzero;"/><path d="M21999.1,36384.7c439.553,-162.178 879.138,-260.396 1351.39,-266.781c637.13,-8.755 638.438,-954.402 0,-945.653c-556.002,7.519 -1096.29,109.374 -1614.35,300.45c-251.208,92.725 -422.563,314.474 -345.396,581.764c66.722,229.862 357.148,423.199 608.35,330.22Z" style="fill:#edba3a;fill-rule:nonzero;"/><path d="M26763.7,36526.2c253.792,-121.379 489.279,-261.893 693.37,-452.223c193.622,-179.702 188.384,-488.537 0,-668.723c-192.307,-184.085 -506.301,-179.58 -698.608,0c-43.187,39.532 -86.335,76.954 -132.137,113.109c87.642,-69.072 -45.771,26.278 -64.101,37.549c-95.503,57.94 -196.237,105.615 -296.972,153.654c-240.7,115.249 -307.422,435.605 -177.907,647.077c142.581,232.748 435.623,284.928 676.355,169.557Z" style="fill:#edba3a;fill-rule:nonzero;"/><path d="M25777.3,34277.1c739.141,-752.431 2187.37,-1135.22 3156.8,-588.009c550.764,310.472 1047.9,-507.296 499.724,-816.635c-1344.88,-757.942 -3315.07,-323.344 -4356.45,735.8c-435.623,444.111 261.646,1114.09 699.923,668.844Z" style="fill:#edba3a;fill-rule:nonzero;"/><path d="M16573.8,41654.1c1730.83,1296.79 4156.29,-436.459 5642.46,-1344.82c535.082,-327.346 39.257,-1146.12 -499.755,-816.628c-686.825,420.574 -1368.42,846.417 -2101.04,1194.78c-605.703,287.942 -1708.54,772.84 -2341.74,297.825c-495.832,-371.523 -1200.96,292.688 -699.923,668.843Z" style="fill:#edba3a;fill-rule:nonzero;"/><path d="M20119.1,49313.3c583.474,-874.574 1652.33,-1217.81 2671.42,-1390.5c626.654,-106.24 359.764,-1017.61 -262.96,-911.997c-1287.29,218.239 -2537.97,738.304 -3262.74,1825.11c-344.056,515.924 512.847,989.811 854.282,477.386Z" style="fill:#edba3a;fill-rule:nonzero;"/><path d="M22296.1,50003.3c944.546,-220.743 1772.64,-694.37 2588.98,-1182.52c540.32,-322.114 44.488,-1140.61 -498.415,-816.634c-747.033,446.1 -1490.11,885.445 -2353.53,1087.3c-618.826,144.656 -357.181,1056.64 262.96,911.857Z" style="fill:#edba3a;fill-rule:nonzero;"/><path d="M25974.8,46382.5c281.258,-259.771 639.715,-422.071 986.419,-588.003c242.001,-115.255 307.416,-435.592 177.901,-646.956c-142.575,-232.875 -435.623,-284.934 -676.348,-169.678c-425.179,203.723 -842.504,417.318 -1187.89,736.042c-459.198,423.963 240.725,1091.94 699.922,668.595Z" style="fill:#edba3a;fill-rule:nonzero;"/><path d="M29828.9,45510.9c532.466,-307.708 1050.53,-638.067 1582.99,-945.769c544.212,-314.844 47.079,-1132.99 -499.761,-816.634c-532.46,307.829 -1049.21,638.061 -1581.68,945.768c-545.526,314.965 -48.386,1133.09 498.447,816.635Z" style="fill:#edba3a;fill-rule:nonzero;"/><path d="M27555.2,48821c593.95,-353.521 1091.06,-832.66 1582.95,-1303.41c451.369,-431.47 -247.24,-1100.19 -698.577,-668.723c-431.731,413.074 -862.141,845.168 -1382.82,1155.5c-540.32,321.222 -44.488,1139.72 498.447,816.634Z" style="fill:#edba3a;fill-rule:nonzero;"/><path d="M25379.5,51280.2c287.804,-141.042 561.24,-331.111 792.804,-546.846c192.307,-180.077 188.377,-488.288 0,-668.856c-192.308,-183.824 -506.308,-179.822 -699.923,0c-41.841,39.041 -83.713,76.469 -128.207,112.885c-23.536,18.632 -47.079,36.906 -70.646,54.926c78.506,-60.565 -40.533,25.775 -47.085,30.28c-109.903,74.711 -225.012,142.03 -345.39,200.977c-239.386,117.371 -308.731,433.967 -177.901,646.937c142.606,231.378 436.963,287.069 676.348,169.697Z" style="fill:#edba3a;fill-rule:nonzero;"/><path d="M36334.8,42693.1c200.168,-433.465 703.853,-640.693 1108.08,-870.694c546.865,-311.582 49.726,-1129.33 -499.724,-816.629c-545.564,311.218 -1191.82,624.298 -1462.64,1210.06c-108.562,235.755 -74.55,505.913 177.934,646.955c211.919,119.13 567.785,66.326 676.348,-169.696Z" style="fill:#edba3a;fill-rule:nonzero;"/><path d="M31886.7,42248.4c644.984,-220.361 1194.44,-601.021 1798.83,-898.845c566.478,-279.296 66.723,-1095.3 -499.73,-816.756c-523.291,258.153 -1004.75,613.166 -1562.06,803.495c-596.534,203.712 -338.812,1117.71 262.96,912.106Z" style="fill:#edba3a;fill-rule:nonzero;"/><path d="M39914.2,38796.1c447.407,-259.281 868.662,-551.715 1286.01,-851.17c214.535,-154.297 324.438,-405.313 176.593,-647.077c-124.277,-203.348 -460.505,-324.6 -676.348,-169.679c-417.325,299.704 -838.606,592.011 -1284.7,851.292c-544.218,315.85 -47.078,1133.86 498.447,816.634Z" style="fill:#edba3a;fill-rule:nonzero;"/><path d="M43869,35485.9c334.921,-214.722 655.435,-447.227 989.041,-661.968c223.704,-143.528 320.514,-414.068 177.901,-646.943c-129.515,-211.849 -452.645,-313.704 -676.348,-169.679c-334.921,214.728 -655.429,447.355 -989.041,662.077c-223.704,143.407 -320.514,413.965 -177.901,646.956c130.823,211.733 452.645,313.589 676.348,169.557Z" style="fill:#edba3a;fill-rule:nonzero;"/><path d="M52274.6,31439.9c109.903,-103.232 219.78,-198.843 345.364,-280.672c62.793,-41.545 130.823,-77.457 197.546,-112.121c32.704,-16.146 65.408,-31.419 99.426,-45.686c-35.326,15.904 -24.85,13.521 30.089,-7.379c253.823,-85.467 419.972,-320.094 345.39,-581.624c-68.031,-235.374 -354.527,-415.942 -608.35,-330.354c-427.795,143.771 -786.251,386.923 -1108.07,688.992c-455.267,427.831 243.342,1096.18 698.609,668.844Z" style="fill:#edba3a;fill-rule:nonzero;"/><path d="M53856.2,28676.5c259.03,-163.918 531.119,-308.956 790.149,-472.875c225.05,-141.788 319.238,-415.335 177.94,-646.956c-130.83,-213.23 -451.337,-311.83 -676.355,-169.678c-260.338,163.918 -531.152,309.077 -791.489,473.014c-223.704,141.649 -319.207,415.317 -176.626,646.817c130.823,213.351 451.338,311.969 676.381,169.678Z" style="fill:#edba3a;fill-rule:nonzero;"/><path d="M34475.7,23853.2c673.764,-321.847 1347.5,-645.822 1978.08,-1040.25c531.126,-332.36 36.634,-1151.62 -498.447,-816.634c-630.578,394.544 -1305.62,718.398 -1978.08,1040.25c-570.376,272.911 -69.338,1088.67 498.448,816.634Z" style="fill:#edba3a;fill-rule:nonzero;"/><path d="M32104,21961.8c357.149,-229.759 703.821,-473.524 1087.12,-662.096c567.792,-278.562 66.722,-1094.69 -498.416,-816.513c-384.646,188.456 -731.319,432.215 -1088.46,661.974c-222.396,143.528 -320.514,414.068 -176.625,646.938c129.515,211.733 451.369,313.728 676.38,169.697Z" style="fill:#edba3a;fill-rule:nonzero;"/><path d="M36058.8,20732.2c282.572,-132.39 558.624,-239.642 791.496,-452.242c194.923,-177.694 187.069,-489.773 0,-668.723c-193.654,-185.443 -503.686,-177.56 -698.615,0c-19.644,19.021 -40.564,36.919 -62.792,54.06c45.77,-32.656 44.456,-33.408 -1.308,-2.243c-57.555,37.531 -120.353,68.568 -181.863,98.842c-113.801,55.436 -231.564,100.364 -346.673,153.793c-242.04,113.127 -304.832,437.223 -176.625,646.956c142.607,234.506 434.341,282.806 676.38,169.557Z" style="fill:#edba3a;fill-rule:nonzero;"/><path d="M33092.9,27089.4c206.707,-192.21 433.033,-328.844 690.755,-493.527c223.703,-142.655 320.507,-414.571 177.933,-646.955c-129.515,-212.358 -451.338,-312.959 -676.349,-169.679c-308.762,196.593 -624.038,393.55 -890.922,641.438c-193.615,179.58 -188.377,488.403 0,668.723c192.307,184.085 506.269,179.58 698.583,0Z" style="fill:#edba3a;fill-rule:nonzero;"/><path d="M46538.9,24326.2c625.34,-299.2 1228.46,-608.157 1780.53,-1019.72c213.228,-158.68 172.695,-503.427 0,-668.722c-208.021,-199.098 -486.663,-158.177 -698.615,0c-480.111,357.14 -1040.04,612.783 -1581.64,871.688c-569.1,272.923 -69.345,1088.68 499.723,816.755Z" style="fill:#edba3a;fill-rule:nonzero;"/><path d="M50495.2,23684.6c158.295,-147.038 380.722,-286.425 573.03,-351.132c253.791,-85.709 419.94,-319.973 345.358,-581.746c-68.031,-235.252 -354.527,-415.96 -608.318,-330.238c-379.409,127.885 -720.843,325.976 -1008.65,594.515c-193.622,179.459 -188.416,488.415 0,668.601c192.307,184.206 504.961,179.701 698.577,0Z" style="fill:#edba3a;fill-rule:nonzero;"/><path d="M22712.1,38911.3c401.637,-310.721 926.211,-306.331 1415.53,-342.753c521.983,-38.659 1016.48,-142.655 1450.82,-434.471c516.751,-348.246 23.542,-1168.64 -499.755,-816.755c-460.474,309.581 -977.251,301.335 -1516.23,348.124c-591.328,51.186 -1087.16,218.742 -1550.28,577.005c-495.832,383.534 208.021,1048.38 699.922,668.85Z" style="fill:#edba3a;fill-rule:nonzero;"/><path d="M16064.9,42499.5c-201.476,-268.782 -308.762,-530.434 -245.938,-865.056c47.078,-253.52 -68.03,-508.666 -345.39,-581.618c-242.008,-63.579 -561.24,76.208 -608.318,330.099c-107.287,577.756 -17.029,1111.83 346.666,1593.98c156.987,208.598 426.493,309.32 676.355,169.672c215.875,-120.991 334.914,-437.466 176.625,-647.076Z" style="fill:#edba3a;fill-rule:nonzero;"/><path d="M14730.5,38167.4c-78.507,-460.125 -154.366,-938.778 147.812,-1337.95c375.479,-494.539 -482.733,-965.795 -852.973,-477.277c-463.096,610.54 -367.593,1366.99 -247.246,2066.73c102.049,600.657 1055.76,345.009 952.407,-251.507Z" style="fill:#edba3a;fill-rule:nonzero;"/><path d="M21638,51015.8c487.971,695.255 1647.05,93.1 2061.79,-377.162c173.977,-196.581 202.751,-475.264 0,-668.722c-177.933,-170.934 -524.606,-196.963 -698.609,0c-138.683,156.418 -290.426,258.031 -482.733,346.257c-51.04,23.264 -145.229,43.673 -213.266,58.564c88.989,-19.656 -36.634,1.619 -52.316,2.001c18.304,3.256 37.948,6.755 56.246,10.132c-116.416,-32.281 -56.246,18.268 183.178,151.665c-353.257,-503.67 -1210.13,-30.916 -854.288,477.265Z" style="fill:#edba3a;fill-rule:nonzero;"/><path d="M24123.7,46363.2c9.136,-24.914 18.298,-49.427 28.774,-73.838c-23.568,51.81 -23.568,53.065 0,3.759c30.089,-60.189 68.037,-116.631 107.255,-171.558c-36.602,42.921 -36.602,44.037 0,3.377c26.19,-29.528 56.279,-55.678 87.675,-81.465c-48.418,33.79 -48.418,35.791 -2.616,5.76c19.606,-12.648 134.746,-55.315 27.466,-17.905c252.477,-88.716 421.249,-317.341 345.358,-581.624c-66.684,-232.748 -355.834,-419.198 -608.318,-330.233c-482.733,169.431 -773.159,538.589 -938,992.328c-88.983,243.504 98.118,516.809 345.364,581.625c272.122,71.825 519.368,-86.965 607.042,-330.226Z" style="fill:#edba3a;fill-rule:nonzero;"/><path d="M25592.8,49436.4c571.684,104.723 1159.08,296.066 1747.79,230.747c733.935,-81.465 1199.68,-582.261 1479.63,-1204.68c248.554,-553.977 -603.112,-1036.25 -854.288,-477.386c-167.457,373.026 -355.834,729.918 -821.577,751.685c-429.109,20.148 -871.278,-135.767 -1288.6,-212.358c-624.039,-114 -889.614,797.372 -262.96,911.997Z" style="fill:#edba3a;fill-rule:nonzero;"/><path d="M31015.5,46929.5c374.138,-271.425 715.605,-579.999 1088.47,-851.17c213.228,-155.673 325.753,-404.197 176.594,-647.077c-122.969,-202.232 -460.506,-325.976 -676.349,-169.557c-372.862,271.534 -714.297,579.866 -1087.16,851.17c-214.536,155.661 -325.753,404.185 -177.902,646.944c124.277,202.213 461.782,326.109 676.349,169.69Z" style="fill:#edba3a;fill-rule:nonzero;"/><path d="M28375.5,46268.5c225.018,-653.207 396.405,-1325.43 313.969,-2017.18c-70.653,-598.899 -1059.69,-605.526 -987.733,0c71.96,616.803 -79.783,1183.79 -279.944,1765.8c-198.859,580.994 756.163,828.009 953.708,251.386Z" style="fill:#edba3a;fill-rule:nonzero;"/><path d="M28446.1,43829.2c109.903,-130.65 439.585,-209.362 651.537,-271.164c303.486,-88.857 613.556,-160.809 910.528,-269.31c588.706,-215.104 333.606,-1129.84 -262.96,-911.857c-355.834,129.523 -727.389,212.74 -1089.78,322.357c-308.724,93.349 -697.301,209.101 -907.913,461.252c-168.764,200.964 -206.713,471.504 0,668.722c174.01,167.053 529.844,201.589 698.583,0Z" style="fill:#edba3a;fill-rule:nonzero;"/><path d="M32895.4,44018.4c294.356,-276.179 621.416,-502.542 987.733,-682.607c567.785,-278.932 66.722,-1094.94 -498.448,-816.635c-436.931,214.48 -838.574,501.657 -1187.86,830.398c-455.267,427.826 243.316,1096.18 698.577,668.844Z" style="fill:#edba3a;fill-rule:nonzero;"/><path d="M33489.3,45342.3c433.033,-408.69 909.22,-771.452 1384.13,-1134.85c210.637,-161.293 174.002,-501.669 0,-668.722c-206.714,-197.339 -489.286,-160.924 -699.923,0c-474.88,363.264 -951.099,726.038 -1384.1,1134.85c-453.953,428.838 245.932,1097.32 699.891,668.723Z" style="fill:#edba3a;fill-rule:nonzero;"/><path d="M18176.4,29102.5c707.777,182.575 1372.37,-78.834 2039.56,-340.237c540.32,-211.108 1081.91,-422.332 1652.32,-399.437c637.099,25.647 634.483,-920.121 0,-945.769c-626.654,-25.162 -1215.36,150.901 -1792.31,364.271c-473.565,175.051 -1113.32,544.088 -1636.62,409.315c-616.172,-159.171 -877.824,753.177 -262.954,911.857Z" style="fill:#edba3a;fill-rule:nonzero;"/><path d="M20812.5,33074.6c320.514,-100.74 684.209,-41.933 1015.19,-22.652c391.167,22.773 777.089,16.631 1160.4,-71.964c618.794,-143.407 355.84,-1055.38 -262.96,-911.985c-336.19,77.706 -681.587,53.939 -1026.95,30.292c-387.231,-26.654 -774.499,-53.307 -1148.64,64.313c-603.112,189.699 -344.082,1102.95 262.96,911.996Z" style="fill:#edba3a;fill-rule:nonzero;"/><path d="M24787,32365c423.864,-199.601 862.141,-368.024 1284.7,-567.491c242.04,-113.873 306.14,-436.721 177.94,-646.956c-143.921,-233.997 -434.347,-283.673 -676.387,-169.679c-423.865,199.467 -862.11,367.891 -1285.98,567.498c-240.726,113.86 -306.14,436.599 -176.625,646.937c142.613,233.882 434.347,283.558 676.355,169.691Z" style="fill:#edba3a;fill-rule:nonzero;"/><path d="M24537,35550.4c344.051,-0.121 690.755,-13.254 1021.74,-111.369c256.414,-76.33 418.633,-327.231 345.364,-581.746c-70.652,-242.389 -350.602,-406.568 -608.318,-330.36c-252.484,74.832 -490.593,77.585 -758.785,77.828c-269.506,0.121 -494.523,214.861 -494.523,472.893c0,257.65 225.017,472.881 494.523,472.754Z" style="fill:#edba3a;fill-rule:nonzero;"/><path d="M27602.3,35172.3c715.605,-8.386 1382.82,-148.033 2029.08,-442.844c575.645,-262.416 73.268,-1077.55 -498.448,-816.768c-486.657,221.367 -995.555,307.459 -1530.64,313.722c-637.092,7.5 -638.407,953.147 0,945.89Z" style="fill:#edba3a;fill-rule:nonzero;"/><path d="M31016.8,34088c494.523,-472.875 989.041,-945.769 1483.56,-1418.65c451.337,-431.603 -248.586,-1100.45 -699.923,-668.722c-493.209,472.76 -987.727,945.653 -1482.24,1418.65c-451.337,431.47 247.272,1100.33 698.609,668.723Z" style="fill:#edba3a;fill-rule:nonzero;"/><path d="M14603.6,30115.9c557.316,-429.221 1225.8,-699.009 1877.31,-966.42c248.586,-101.613 300.902,-445.488 177.933,-646.956c-149.152,-242.631 -429.102,-271.292 -676.348,-169.679c-741.795,304.331 -1445.62,627.051 -2077.5,1114.33c-497.139,382.909 208.021,1047.63 698.609,668.723Z" style="fill:#edba3a;fill-rule:nonzero;"/><path d="M34940.2,59287.3c-14279.4,0 -25857.4,-10891 -25857.4,-24325.7c0,-13434.8 11577.9,-24325.8 25857.4,-24325.8c14280.8,0 25857.4,10891 25857.4,24325.8c0,13434.7 -11576.7,24325.7 -25857.4,24325.7Zm14.368,-3334.62c32.71,0.122 66.722,0.122 99.426,0.122c12205.9,0 22100.2,-9464.48 22100.2,-21139.5c0,-8561.12 -5319.34,-15933.1 -12969.9,-19257c20.952,-9.883 41.872,-19.893 62.792,-29.776c-2821.86,-1250.85 -5965.57,-1950.11 -9280.67,-1950.11c-5743.17,0 -10976.2,2096.51 -14906.1,5533.1c-4484.65,3869.06 -7305.21,9471.39 -7305.21,15703.8c0,11675 9895.58,21139.5 22101.4,21139.5c32.71,0 65.415,0 98.119,-0.122l-0.032,0Z" style="fill:#74644c;fill-rule:nonzero;"/><path d="M35054,55952.5c-32.704,0 -66.716,0 -99.426,-0.121c5075.99,-21.403 9746.41,-1679.69 13467.1,-4450.69c-5.238,-0.121 -13.098,-0.249 -18.336,-0.37c5266.98,-3863.81 8664.48,-9945.53 8664.48,-16785.7c0,-1747.26 -223.704,-3444.47 -641.029,-5068.36c-1378.89,945.908 -3133.23,1812.09 -4075.16,2452.78c-1896.95,1290.77 -3750.75,2623.97 -5577.05,3985.05c-362.386,-487.766 -792.803,-933.763 -1270.3,-1319.67c-133.439,-106.748 -268.192,-205.087 -405.567,-295.441c13.098,-96.599 -5.238,-198.091 -62.792,-293.32c-88.951,-143.782 -265.576,-236.889 -439.553,-236.889c-82.431,0 -164.835,20.9 -236.796,67.211c-19.612,12.253 -37.942,24.519 -57.554,36.906c-153.089,-65.44 -307.455,-123.38 -465.743,-174.565c2025.15,-1410.28 4004.51,-2828.05 5905.39,-4384.36c1394.61,-1142.11 3473.39,-2626.59 5379.51,-3455.61c-562.554,-1194.04 -1240.21,-2328.14 -2015.99,-3391.54c-934.102,1207.68 -2383.64,2209.39 -4069.95,2935.68c-4960.84,2136.18 -9352.64,3127.25 -13629.2,6573.36c-850.358,684.627 -1711.19,1364.36 -2585.09,2033.33c-580.884,-42.418 -1138.16,-122.871 -1633.99,-255.522c438.245,-418.573 875.208,-837.152 1313.48,-1255.6c347.98,-333.366 10.444,-808.242 -368.932,-808.242c-112.519,0 -227.634,41.29 -330.991,139.52c-493.209,472.76 -987.726,945.653 -1482.24,1418.65c-43.155,41.048 -75.859,84.23 -99.427,128.389c-221.088,-123.374 -413.395,-267.284 -570.376,-434.338c-28.78,-80.956 -85.059,-156.297 -175.317,-216.48c-213.228,-312.837 -320.515,-693.758 -287.81,-1155.5c10.476,-164.3 36.634,-321.604 73.274,-472.893c597.842,-136.513 1123.76,-462.368 1560.72,-868.814c354.532,-329.851 14.374,-804.993 -368.933,-804.993c-87.642,0 -176.593,24.398 -260.337,80.719c765.337,-837.916 1787.08,-1550.43 2417.63,-2466.67c44.494,11.393 88.983,17.141 133.445,17.141c126.893,0 255.1,-46.044 351.911,-136.398c206.707,-192.209 433.032,-328.844 690.754,-493.526c223.704,-142.655 320.508,-414.572 177.933,-646.956c-87.642,-144.031 -264.268,-236.629 -439.585,-236.629c-82.404,0 -164.841,20.894 -236.763,66.95c-43.187,27.527 -86.367,54.933 -129.547,82.454c53.656,-384.904 34.012,-807.982 -86.335,-1281.87c-238.109,-946.399 -2021.23,-1867.14 -2013.37,-2648.11c1.308,-164.058 130.823,-341.498 329.676,-519.192c-43.18,120.627 -35.319,255.4 41.847,379.526c87.668,143.789 264.262,236.889 439.579,236.889c82.405,0 164.841,-20.893 236.802,-67.192c357.148,-229.759 703.821,-473.524 1087.12,-662.096c461.813,-226.503 217.189,-808.382 -194.923,-868.444c181.863,-92.221 338.844,-169.8 444.823,-227.376c467.019,-252.393 1299.07,-646.313 1790.97,-1061.65c665.904,-104.73 1331.78,-205.088 1996.37,-382.279c2110.18,-562.362 4042.46,-1699.33 5936.79,-2693.91c324.47,-170.06 665.904,-342.261 1019.12,-509.69c7650.57,3323.84 12969.9,10695.8 12969.9,19257c0,11675 -9894.24,21139.5 -22100.2,21139.5l-0.006,-0.012Zm17763.3,-25892.4c-44.462,0 -90.264,6.869 -133.445,21.645c-427.794,143.771 -786.251,386.923 -1108.07,688.992c-353.225,330.984 -13.066,806 368.933,806.121c111.21,0 227.633,-40.678 329.676,-137.277c109.902,-103.232 219.779,-198.843 345.364,-280.672c62.793,-41.545 130.823,-77.457 197.545,-112.12c32.705,-16.147 65.409,-31.42 99.427,-45.687c-15.682,6.888 -22.228,10.387 -20.92,10.387c2.616,0 19.612,-6.003 51.008,-17.765c253.824,-85.467 419.973,-320.095 345.39,-581.625c-56.24,-194.714 -261.645,-351.999 -474.905,-351.999Zm-18095.6,-1041.76c-79.814,0 -163.527,21.397 -249.893,70.709c-523.298,300.571 -1043.97,610.279 -1484.83,1019.72c-353.251,329.735 -14.406,804.993 368.9,804.993c112.525,0 227.634,-40.278 330.991,-136.27c379.408,-353.879 830.745,-612.032 1283.39,-871.804c460.505,-264.295 179.248,-887.343 -248.554,-887.343Zm19664.2,-1698.21c-82.405,0 -166.149,20.76 -238.078,66.574c-260.337,163.919 -531.151,309.078 -791.489,473.015c-223.703,141.648 -319.206,415.317 -176.625,646.816c87.675,144.534 264.268,236.386 438.271,236.386c82.405,0 164.841,-20.773 238.11,-66.708c259.029,-163.918 531.119,-308.956 790.149,-472.875c225.05,-141.788 319.238,-415.335 177.939,-646.955c-88.957,-144.401 -264.268,-236.253 -438.277,-236.253Zm-13256.4,-1800.07c-81.122,0 -162.219,21.263 -230.25,69.824c-406.874,285.801 -854.287,510.175 -1286.01,756.432c-461.813,263.04 -179.209,886.834 249.861,886.834c79.821,0 163.534,-21.263 248.586,-70.066c433.039,-246.39 879.138,-470.771 1285.98,-756.693c215.881,-152.417 324.476,-406.829 177.933,-646.835c-86.328,-140.023 -269.506,-239.496 -446.099,-239.496Zm6863.01,-3017.01c-128.207,0 -259.03,50.804 -371.555,134.391c-480.111,357.141 -1040.04,612.784 -1581.64,871.688c-490.593,234.749 -187.101,871.44 268.16,871.44c74.583,0 151.775,-16.759 231.564,-54.684c625.34,-299.201 1228.46,-608.157 1780.53,-1019.72c213.227,-158.68 172.695,-503.428 0,-668.723c-98.119,-93.973 -211.952,-134.391 -327.06,-134.391Zm-6546.44,180.938c-44.488,0 -88.951,6.627 -132.131,20.894c-268.198,86.977 -524.606,196.836 -791.496,283.819c-255.099,82.956 -419.94,321.846 -345.358,581.618c56.247,196.593 261.646,351.132 474.873,351.132c44.495,0 88.983,-6.627 133.445,-20.894c266.884,-86.715 524.606,-196.835 790.182,-283.679c255.099,-82.974 419.94,-321.846 345.364,-581.636c-56.246,-196.575 -261.652,-351.254 -474.879,-351.254Zm-5235.59,-766.958c-81.09,0 -167.457,23.907 -255.1,78.973c-630.578,394.545 -1305.62,718.398 -1978.08,1040.25c-490.593,234.755 -188.377,871.319 268.198,871.446c73.268,0 151.775,-16.777 230.249,-54.811c673.765,-321.847 1347.5,-645.822 1978.08,-1040.25c443.483,-277.676 171.355,-895.607 -243.348,-895.607Zm14728.2,482.527c-44.495,0 -88.983,6.755 -133.445,21.646c-379.409,127.885 -720.843,325.976 -1008.65,594.515c-193.622,179.459 -188.415,488.415 0,668.601c95.497,91.609 221.081,136.532 346.666,136.532c126.899,0 255.106,-46.056 351.911,-136.532c158.295,-147.038 380.722,-286.425 573.03,-351.132c253.791,-85.709 419.941,-319.973 345.358,-581.746c-56.247,-194.592 -261.646,-351.884 -474.873,-351.884Zm-14827.6,-2752.97c-5.238,3.76 -13.06,9.132 -23.536,16.147c-57.554,37.531 -120.353,68.568 -181.863,98.842c-113.801,55.436 -231.564,100.364 -346.673,153.793c-242.039,113.127 -304.832,437.224 -176.625,646.956c94.221,154.417 252.51,228.122 418.659,228.122c86.335,0 175.285,-19.906 257.722,-58.565c282.572,-132.39 558.624,-239.642 791.495,-452.242c194.923,-177.694 187.069,-489.773 0,-668.722c-95.535,-91.731 -219.811,-136.15 -344.088,-136.15c-128.201,0 -256.408,46.42 -354.527,136.15c-13.098,12.265 -26.158,24.149 -40.564,35.669Zm6305.72,-1300.4c-74.545,0 -153.051,17.141 -232.865,55.927c-368.907,178.95 -719.535,388.542 -1087.13,567.492c-489.279,237.131 -188.409,872.573 265.576,872.573c74.55,0 153.057,-17.141 232.839,-55.939c368.933,-178.949 719.535,-388.542 1088.47,-567.497c487.971,-237.132 187.069,-872.556 -266.89,-872.556Z" style="fill:#ef852c;fill-rule:nonzero;"/><path d="M35231.9,19142.2c535.081,-451.981 668.526,-929.24 -510.206,-1277.24l-1186.58,-1134.86c-204.098,-345.117 -558.624,-519.058 -994.279,-578.369c854.288,-898.22 1787.08,-1725.62 2790.49,-2472.29c-158.295,-3.256 -316.584,-5.76 -474.911,-5.76c-5690.85,0 -10878,2056.97 -14796.2,5435.87c3929.96,-3436.59 9162.96,-5533.1 14906.1,-5533.1c3315.09,0 6458.77,699.263 9280.67,1950.11c-20.92,9.883 -41.841,19.893 -62.793,29.776c-353.218,167.429 -694.652,339.63 -1019.12,509.691c-1894.33,994.571 -3826.61,2131.54 -5936.79,2693.9c-664.597,177.191 -1330.47,277.55 -1996.37,382.279l0.032,0Z" style="fill:#f0a036;fill-rule:nonzero;"/><path d="M33956.4,34219.3c-383.307,0 -764.023,-11.635 -1135.55,-38.798c873.894,-668.965 1734.73,-1348.7 2585.09,-2033.33c4276.63,-3446.09 8668.44,-4437.17 13629.2,-6573.36c1686.31,-726.293 3135.85,-1728 4069.95,-2935.68c775.782,1063.41 1453.44,2197.51 2015.99,3391.54c-1906.12,829.021 -3984.9,2313.51 -5379.51,3455.61c-1900.88,1556.31 -3880.24,2974.09 -5905.39,4384.36c-745.693,-242.631 -1537.18,-330.984 -2341.74,-330.984c-1007.37,0 -2033.01,138.29 -3015.5,286.062c-843.812,126.77 -2693.69,394.557 -4522.6,394.557l0.013,0.012Z" style="fill:#f0a036;fill-rule:nonzero;"/><path d="M48403.2,51501.5c-2730.28,-57.067 -5336.32,-587.257 -7735.61,-1508.63c781.019,-476.271 1457.37,-940.9 1864.25,-1296.53c2760.37,-2407.98 3627.75,-3835.52 5108.69,-7417.66c733.909,-1774.54 256.414,-3684.36 -866.072,-5193.36c1826.3,-1361.09 3680.11,-2694.29 5577.05,-3985.05c941.931,-640.692 2696.27,-1506.88 4075.16,-2452.78c417.325,1623.88 641.028,3321.09 641.028,5068.36c0,6840.14 -3397.5,12921.8 -8664.48,16785.7l-0.006,-0.012Z" style="fill:#f0a036;fill-rule:nonzero;"/><path d="M29258.5,31268.5c151.743,-609.776 501.032,-1121.33 931.448,-1593.09c83.745,-56.321 172.696,-80.719 260.338,-80.719c383.307,0 723.465,475.142 368.933,804.993c-436.963,406.446 -962.877,732.301 -1560.72,868.814Z" style="fill:#efc23a;fill-rule:nonzero;"/><path d="M33355.9,30914.1c-383.306,0 -722.151,-475.258 -368.9,-804.993c440.861,-409.436 961.536,-719.144 1484.83,-1019.72c86.367,-49.312 170.079,-70.709 249.893,-70.709c427.802,0 709.059,623.048 248.554,887.343c-452.645,259.772 -903.982,517.925 -1283.39,871.803c-103.357,95.993 -218.466,136.271 -330.991,136.271Z" style="fill:#efc23a;fill-rule:nonzero;"/><path d="M39863.1,27233.5c-429.071,0 -711.675,-623.794 -249.862,-886.834c431.725,-246.257 879.138,-470.631 1286.01,-756.433c68.03,-48.56 149.127,-69.823 230.249,-69.823c176.594,0 359.771,99.473 446.099,239.496c146.544,240.006 37.949,494.418 -177.933,646.834c-406.842,285.923 -852.941,510.304 -1285.98,756.694c-85.053,48.803 -168.765,70.066 -248.586,70.066Z" style="fill:#efc23a;fill-rule:nonzero;"/><path d="M40652,23921.8c-213.228,0 -418.627,-154.539 -474.873,-351.132c-74.583,-259.772 90.258,-498.662 345.358,-581.619c266.89,-86.982 523.297,-196.842 791.495,-283.818c43.18,-14.267 87.643,-20.894 132.131,-20.894c213.227,0 418.633,154.678 474.879,351.253c74.577,259.79 -90.264,498.662 -345.364,581.637c-265.576,86.843 -523.298,196.963 -790.181,283.679c-44.463,14.267 -88.951,20.894 -133.445,20.894Z" style="fill:#efc23a;fill-rule:nonzero;"/><path d="M41362.4,19842.5c-453.985,0 -754.855,-635.442 -265.576,-872.573c367.592,-178.95 718.221,-388.543 1087.13,-567.492c79.815,-38.786 158.321,-55.927 232.866,-55.927c453.959,0 754.861,635.424 266.89,872.555c-368.933,178.956 -719.535,388.549 -1088.47,567.498c-79.782,38.798 -158.289,55.939 -232.839,55.939Z" style="fill:#efc23a;fill-rule:nonzero;"/><path d="M29648.4,33113.3c-64.107,-68.205 -123.001,-140.272 -175.317,-216.48c90.258,60.183 146.537,135.524 175.317,216.48Z" style="fill:#efc23a;fill-rule:nonzero;"/><path d="M45099,34470.3c-257.715,-168.303 -523.298,-309.084 -796.695,-426.092c19.612,-12.387 37.942,-24.653 57.554,-36.907c71.961,-46.31 154.365,-67.21 236.796,-67.21c173.977,0 350.602,93.106 439.553,236.889c57.554,95.229 75.89,196.721 62.792,293.32Z" style="fill:#efc23a;fill-rule:nonzero;"/><path d="M51944.8,31577.2c-381.999,-0.122 -722.158,-475.137 -368.933,-806.121c321.822,-302.069 680.279,-545.221 1108.07,-688.992c43.181,-14.776 88.983,-21.646 133.445,-21.646c213.26,0 418.665,157.286 474.905,351.999c74.583,261.531 -91.566,496.158 -345.39,581.625c-31.396,11.763 -48.392,17.765 -51.008,17.765c-1.308,0 5.238,-3.498 20.92,-10.386c-34.018,14.267 -66.722,29.54 -99.427,45.686c-66.722,34.664 -134.752,70.576 -197.545,112.121c-125.585,81.829 -235.462,177.44 -345.364,280.672c-102.043,96.599 -218.466,137.277 -329.676,137.277Z" style="fill:#efc23a;fill-rule:nonzero;"/><path d="M53618.2,28743.2c-174.003,0 -350.596,-91.851 -438.271,-236.386c-142.581,-231.499 -47.078,-505.167 176.626,-646.816c260.337,-163.937 531.151,-309.096 791.489,-473.014c71.928,-45.814 155.673,-66.574 238.077,-66.574c174.01,0 349.321,91.851 438.278,236.252c141.298,231.621 47.11,505.168 -177.94,646.956c-259.03,163.919 -531.119,308.956 -790.149,472.875c-73.269,45.935 -155.705,66.707 -238.11,66.707Z" style="fill:#efc23a;fill-rule:nonzero;"/><path d="M34245.5,23908c-456.575,-0.128 -758.792,-636.691 -268.198,-871.446c672.457,-321.847 1347.5,-645.701 1978.08,-1040.25c87.643,-55.066 174.01,-78.974 255.1,-78.974c414.703,0 686.831,617.932 243.348,895.608c-630.578,394.423 -1304.31,718.398 -1978.08,1040.25c-78.474,38.035 -156.981,54.812 -230.249,54.812Z" style="fill:#efc23a;fill-rule:nonzero;"/><path d="M31867.1,22028.9c-175.317,0 -351.91,-93.101 -439.579,-236.889c-77.166,-124.126 -85.027,-258.899 -41.846,-379.526c408.157,-363.144 1108.08,-727.536 1610.42,-981.317c412.112,60.062 656.736,641.941 194.923,868.444c-383.3,188.572 -729.973,432.337 -1087.12,662.095c-71.961,46.299 -154.397,67.193 -236.802,67.193Z" style="fill:#efc23a;fill-rule:nonzero;"/><path d="M35801,20790.8c-166.15,0 -324.439,-73.705 -418.659,-228.122c-128.207,-209.732 -65.415,-533.829 176.625,-646.956c115.109,-53.429 232.872,-98.357 346.673,-153.793c61.51,-30.274 124.308,-61.311 181.863,-98.842c10.476,-7.015 18.298,-12.387 23.536,-16.147c14.406,-11.52 27.466,-23.404 40.564,-35.669c98.119,-89.73 226.326,-136.15 354.526,-136.15c124.277,0 248.554,44.419 344.089,136.15c187.069,178.949 194.923,491.028 0,668.722c-232.872,212.6 -508.923,319.852 -791.496,452.242c-82.436,38.659 -171.387,58.565 -257.721,58.565Z" style="fill:#efc23a;fill-rule:nonzero;"/><path d="M32741,27225.8c-44.463,0 -88.951,-5.748 -133.445,-17.141c276.051,-400.808 477.527,-840.784 548.148,-1346.96c43.18,-27.521 86.36,-54.927 129.546,-82.454c71.923,-46.056 154.359,-66.95 236.764,-66.95c175.317,0 351.942,92.598 439.585,236.629c142.575,232.384 45.77,504.301 -177.933,646.956c-257.722,164.682 -484.048,301.316 -690.755,493.526c-96.811,90.354 -225.018,136.398 -351.91,136.398Z" style="fill:#efc23a;fill-rule:nonzero;"/><path d="M46307.3,24380.9c-455.26,0 -758.753,-636.691 -268.159,-871.44c541.595,-258.905 1101.53,-514.548 1581.64,-871.688c112.525,-83.588 243.348,-134.391 371.555,-134.391c115.109,0 228.941,40.417 327.06,134.391c172.695,165.295 213.228,510.042 0,668.722c-552.071,411.564 -1155.19,720.521 -1780.53,1019.72c-79.789,37.925 -156.981,54.684 -231.564,54.684Z" style="fill:#efc23a;fill-rule:nonzero;"/><path d="M50143,23821.2c-125.585,0 -251.17,-44.922 -346.666,-136.531c-188.415,-180.186 -193.622,-489.142 0,-668.601c287.804,-268.539 629.238,-466.63 1008.65,-594.515c44.462,-14.891 88.95,-21.646 133.445,-21.646c213.227,0 418.626,157.292 474.873,351.884c74.583,261.773 -91.567,496.037 -345.358,581.746c-192.308,64.707 -414.735,204.094 -573.03,351.132c-96.805,90.475 -225.012,136.531 -351.911,136.531Z" style="fill:#efc23a;fill-rule:nonzero;"/><path d="M31186.8,33924.9c-358.457,-96.356 -686.825,-220.361 -968.114,-377.288c23.567,-44.159 56.272,-87.341 99.426,-128.389c494.517,-472.996 989.035,-945.889 1482.24,-1418.65c103.357,-98.23 218.472,-139.521 330.99,-139.521c379.377,0 716.913,474.876 368.933,808.243c-438.271,418.452 -875.234,837.031 -1313.48,1255.6Z" style="fill:#efc23a;fill-rule:nonzero;"/><path d="M34856.4,55952.5c-12205.9,0 -22101.4,-9464.48 -22101.4,-21139.5c0,-6232.36 2820.58,-11834.6 7305.22,-15703.8c-2944.86,2575.66 -5158.39,5904.01 -6308.34,9666.99c44.463,-19.784 88.951,-39.55 134.753,-58.953c-607.042,1930.22 -932.794,3976.42 -932.794,6095.7c0,3156.05 722.15,6150.51 2018.61,8840.33c-11.752,0.625 -24.85,1.249 -36.602,2.001c773.159,1581.97 1743.86,3056.94 2883.34,4396.12c1.308,-0.243 2.616,-0.752 2.616,-0.995c4032.01,4795.56 10205.6,7873.01 17132.7,7901.93c-32.704,0.121 -65.408,0.121 -98.118,0.121l0.038,-0.018Z" style="fill:#9d8f48;fill-rule:nonzero;"/><path d="M34954.6,55952.5c-6927.13,-28.903 -13100.7,-3106.35 -17132.7,-7901.93c1862.93,-835.024 3534.88,-1888.43 5218.6,-2990.98c-191,759.943 -219.806,1437.8 -117.763,2036.32c-81.09,-57.68 -181.831,-93.732 -296.972,-93.732c-31.396,0 -64.1,2.765 -98.119,8.507c-1287.29,218.239 -2537.97,738.304 -3262.74,1825.11c-239.392,359.141 103.351,697.747 448.715,697.747c150.467,0 302.21,-64.567 405.567,-220.361c583.474,-874.575 1652.33,-1217.81 2671.42,-1390.5c146.537,-24.914 244.656,-93.986 299.594,-183.697c102.043,281.672 235.488,542.208 395.091,781.971c-459.197,242.51 -934.07,449.228 -1452.13,570.486c-574.338,134.027 -389.885,927.379 132.131,927.379c41.846,0 85.027,-4.887 130.829,-15.522c655.396,-153.041 1253.27,-427.831 1831.54,-744.682c379.377,340.867 825.476,618.798 1310.83,836.655c-30.088,27.909 -61.484,55.072 -94.189,81.726c-23.535,18.632 -47.078,36.907 -70.646,54.926c20.952,-15.637 27.498,-21.518 27.498,-21.518c-2.622,0 -69.344,48.421 -74.582,51.798c-109.903,74.711 -225.012,142.031 -345.391,200.977c-239.385,117.371 -308.73,433.967 -177.901,646.937c94.189,153.042 255.1,229.256 422.557,229.256c85.02,0 172.695,-19.893 253.792,-59.559c287.804,-141.042 561.24,-331.111 792.803,-546.846c92.881,-86.594 139.991,-202.85 142.607,-320.349c613.556,174.808 1259.82,268.921 1898.26,286.565c-1199.68,926.875 -2420.24,1819.96 -3689.27,2651.1c3111.01,1597.86 6665.55,2505.09 10442.4,2505.09c5055.06,0 9713.68,-1622.88 13436.9,-4353.95c5.238,0.122 13.099,0.249 18.337,0.37c-3720.66,2771 -8391.1,4429.28 -13467.1,4450.69l-0.038,0.012Zm-12873.1,-5629.33c-349.288,0 -692.063,337.49 -443.477,692.369c159.603,227.128 391.16,315.845 643.644,315.845c521.99,0 1138.16,-376.41 1418.14,-693.006c173.977,-196.581 202.751,-475.264 0,-668.722c-91.598,-88.463 -228.942,-138.151 -365.002,-138.151c-125.585,0 -249.894,43.043 -333.607,138.151c-138.683,156.418 -290.426,258.031 -482.733,346.257c-51.04,23.264 -145.229,43.673 -213.266,58.564c27.473,-6.263 35.327,-8.264 30.089,-8.264c-3.93,0 -20.921,2.128 -37.942,4.511c-67.999,-32.662 -142.582,-47.554 -215.85,-47.554Zm-7109.03,-6669.7c-1296.46,-2689.79 -2018.61,-5684.26 -2018.61,-8840.33c0,-2119.29 325.752,-4165.5 932.794,-6095.7c1658.84,-721.77 3498.24,-1212.55 4555.28,-1497.74c665.905,-179.198 1308.24,-391.295 1930.97,-629.924c-88.95,84.836 -175.285,170.424 -260.337,257.401c-442.169,452.102 -881.754,901.349 -1296.46,1364.85c-45.802,4.869 -91.573,7.501 -136.061,7.501c-82.405,0 -162.219,-9.016 -240.732,-29.025c-48.386,-12.769 -95.496,-18.65 -139.959,-18.65c-484.041,0 -668.52,700.512 -209.329,900.846c-179.209,228.382 -350.596,462.258 -512.822,703.398c-472.289,242.249 -1011.27,373.263 -1513.64,533.944c-693.376,222.489 -1348.81,517.942 -1861.63,1028.37c-340.159,338.12 -5.238,812.633 368.932,812.633c112.493,0 227.634,-42.437 329.676,-143.789c498.416,-495.042 1153.85,-702.513 1821.06,-909.232c43.187,-13.393 86.335,-26.902 129.515,-40.538c-222.395,482.636 -389.852,986.937 -499.755,1494.49c-81.097,-74.087 -188.377,-121.761 -316.584,-121.761c-41.872,0 -86.335,5.135 -132.131,16.146c-395.097,94.598 -791.495,189.081 -1186.59,283.679c-571.684,136.773 -389.853,928.124 130.823,928.124c41.872,0 86.367,-5.129 132.137,-16.146c395.091,-94.598 791.489,-189.196 1186.58,-283.673c22.228,-5.378 43.186,-11.641 62.792,-18.778c-11.784,129.28 -20.92,258.032 -24.844,386.178c-1016.51,19.645 -2261.95,536.575 -2344.39,1540.91c-24.85,303.578 208.022,454.619 455.293,454.619c247.246,0 508.898,-152.169 532.434,-454.619c17.022,-206.725 478.835,-385.171 638.438,-446.361c232.872,-89.347 502.346,-160.038 763.991,-160.669c48.425,365.508 136.068,718.017 261.652,1050.26c-185.761,33.541 -378.068,47.796 -572.998,47.796c-132.131,0 -265.576,-6.506 -397.706,-18.129c-18.305,-1.637 -36.634,-2.383 -53.631,-2.383c-580.884,0 -558.617,894.716 53.631,948.012c136.061,12.023 273.429,18.147 408.182,18.147c349.295,0 693.345,-40.781 1020.4,-128.509c137.369,195.077 294.356,377.161 472.29,544.093c-922.319,95.975 -1811.93,343.25 -2547.14,934.248c-87.643,69.582 -136.061,147.67 -155.673,227.007c1.308,-36.046 0,-73.705 -7.854,-112.867c-78.506,-460.124 -154.365,-938.777 147.813,-1337.95c264.268,-347.258 -81.097,-683.111 -438.239,-683.111c-150.467,0 -304.832,60.305 -414.735,205.834c-463.095,610.54 -367.592,1366.99 -247.245,2066.73c40.564,239.393 217.157,342.747 406.874,342.747c234.154,0 487.978,-155.291 542.91,-405.804c-5.238,247.766 253.792,484.273 538.98,484.395c108.595,0 222.427,-35.167 325.752,-118.124c820.27,-659.221 1989.86,-708.897 3011.57,-712.656c96.811,-0.364 177.933,-22.028 244.656,-58.565c204.098,69.461 421.255,126.649 650.197,170.443c-5.238,254.273 204.091,540.092 531.151,540.213c30.088,0 58.862,-2.261 90.259,-7.015c459.197,-69.824 889.614,-247.397 1280.77,-490.398c34.019,-2.504 69.345,-5.129 104.665,-7.761c225.018,-16.267 456.575,-32.535 688.139,-43.667c-61.485,40.157 -121.687,83.339 -181.863,129.759c-391.161,303.202 -34.019,781.977 375.478,782.098c108.563,0 221.088,-33.669 324.444,-113.248c401.637,-310.721 926.211,-306.331 1415.53,-342.753c146.505,-10.89 290.426,-26.896 433.001,-50.682c95.503,70.957 181.863,153.168 255.1,248.148c155.705,199.219 243.347,428.335 279.981,676.605c-347.98,203.22 -698.608,402.445 -1050.52,597.644c-2382.3,1319.68 -4848.36,2974.22 -7579.94,3456.24c-506.307,89.348 -1003.44,130.268 -1492.73,157.049l-0.006,0Zm379.408,-2616.08c-215.875,0 -447.407,132.651 -486.657,345.378c-107.287,577.757 -17.028,1111.83 346.666,1593.98c107.287,142.152 266.89,234.246 435.655,234.246c79.789,0 160.911,-20.148 240.7,-64.573c215.875,-120.991 334.914,-437.466 176.625,-647.077c-201.475,-268.782 -308.762,-530.433 -245.938,-865.055c47.079,-253.521 -68.03,-508.666 -345.39,-581.619c-39.256,-10.265 -81.097,-15.279 -121.661,-15.279Zm1599.98,-161.669c-413.395,0 -775.781,479.763 -378.1,778.212c442.201,331.232 930.172,464.89 1435.16,464.89c1474.4,0 3100.53,-1133.49 4207.3,-1809.71c448.721,-274.172 172.701,-893.34 -244.656,-893.34c-81.09,0 -167.425,23.276 -255.099,76.711c-686.825,420.574 -1368.42,846.417 -2101.05,1194.79c-422.556,200.843 -1087.12,497.412 -1665.39,497.412c-249.862,0 -485.349,-55.799 -676.349,-199.588c-102.048,-76.712 -214.541,-109.368 -321.822,-109.368Zm-638.438,-1928.59c-954.991,0 -1764.82,447.355 -1942.72,1395.38c-66.723,358.632 251.175,593.648 538.979,593.648c191.032,0.121 370.247,-103.111 414.735,-342.122c108.563,-581 544.218,-703.889 1040.05,-703.889c184.447,0 376.755,16.898 565.164,33.529c480.117,42.558 992.939,151.301 1492.69,151.301c240.732,0 480.118,-25.538 709.059,-96.477c548.174,-169.57 385.923,-937.395 -103.357,-937.395c-49.7,0 -103.324,8.015 -159.603,25.398c-193.615,59.941 -400.297,82.472 -613.556,82.472c-634.508,0 -1329.16,-198.091 -1921.8,-201.85l-19.638,0Zm-65.415,-10669.7c-87.642,0 -179.209,19.517 -265.543,55.187c-741.795,304.33 -1445.62,627.05 -2077.5,1114.33c-392.475,302.7 -35.327,781.595 375.478,781.717c108.563,0 221.088,-33.669 323.13,-112.994c557.316,-429.22 1225.8,-699.008 1877.31,-966.42c248.586,-101.613 300.902,-445.487 177.933,-646.955c-96.804,-157.535 -248.586,-224.866 -410.805,-224.866Z" style="fill:#f2a633;fill-rule:nonzero;"/><path d="M13751.9,28776.5c1149.95,-3762.95 3363.48,-7091.28 6308.34,-9666.99c3918.18,-3378.9 9105.34,-5435.87 14796.2,-5435.87c158.328,0 316.616,2.504 474.912,5.76c-1003.41,746.671 -1936.2,1574.07 -2790.49,2472.29c-121.655,-16.516 -248.554,-24.15 -380.685,-24.15c-1320.03,0 -3111.01,764.57 -3865.86,1075.79c-1721.64,709.765 -3494.31,1900.92 -4531.74,3425.07c-648.883,954.663 -362.387,1961.87 -801.965,3008c-516.752,1226.82 -1633.99,2039.21 -2587.71,2953.45c-622.724,238.629 -1265.06,450.726 -1930.97,629.924c-1057.04,285.188 -2896.43,775.968 -4555.28,1497.74c-45.802,19.402 -90.291,39.168 -134.753,58.952l-0.026,0.024Z" style="fill:#f3b83a;fill-rule:nonzero;"/><path d="M17819.2,48051.7c-1139.48,-1339.19 -2110.18,-2814.16 -2883.34,-4396.12c11.752,-0.752 24.85,-1.377 36.602,-2.001c489.286,-26.781 986.419,-67.702 1492.73,-157.049c2731.59,-482.013 5197.64,-2136.56 7579.94,-3456.24c351.911,-195.199 702.539,-394.423 1050.52,-597.644c180.524,1233.47 -911.836,2938.68 -1351.42,3801.24c-332.298,650.818 -562.554,1255.72 -703.821,1815.84c-1683.72,1102.55 -3355.66,2155.95 -5218.6,2990.98c0,0.243 -1.308,0.752 -2.616,0.995l0.006,0Z" style="fill:#f3b83a;fill-rule:nonzero;"/><path d="M34966.4,55855.5c-3776.88,0 -7331.37,-907.231 -10442.4,-2505.09c1269.02,-831.143 2489.59,-1724.23 3689.27,-2651.1c74.545,2.122 147.819,3.129 221.088,3.129c1178.73,0 2309.03,-261.282 3118.83,-757.458c222.428,-136.895 406.875,-196.332 565.17,-196.332c518.06,0 744.379,645.579 1109.38,1291.27c363.701,645.58 867.386,1291.29 1941.45,1291.29c273.429,0.122 582.16,-41.551 936.686,-135.524c1102.87,-293.071 3032.53,-1270.37 4561.85,-2202.76c2399.3,921.376 5005.34,1451.57 7735.61,1508.63c-3723.25,2731.07 -8381.91,4353.95 -13436.9,4353.95l0.025,0Z" style="fill:#f3b83a;fill-rule:nonzero;"/><path d="M14570.9,32151.2c-374.171,0 -709.091,-474.512 -368.933,-812.633c512.822,-510.424 1168.25,-805.878 1861.63,-1028.37c502.371,-160.681 1041.35,-291.695 1513.64,-533.944c-242.033,361.015 -464.429,738.037 -658.051,1137.48c-23.536,47.675 -45.795,95.732 -68.03,143.91c-43.18,13.636 -86.328,27.145 -129.515,40.538c-667.212,206.719 -1322.65,414.19 -1821.06,909.232c-102.043,101.352 -217.183,143.789 -329.676,143.789Z" style="fill:#f2d03c;fill-rule:nonzero;"/><path d="M14314.5,35721.4c-247.272,0 -480.143,-151.04 -455.293,-454.619c82.437,-1004.34 1327.88,-1521.27 2344.39,-1540.91c-10.476,316.96 5.238,629.924 45.764,933.885c-261.646,0.63 -531.12,71.321 -763.991,160.669c-159.603,61.189 -621.416,239.635 -638.438,446.36c-23.536,302.451 -285.188,454.619 -532.434,454.619Z" style="fill:#f2d03c;fill-rule:nonzero;"/><path d="M15948.5,36703.5c-134.753,0 -272.122,-6.124 -408.183,-18.147c-612.248,-53.296 -634.514,-948.012 -53.63,-948.012c16.996,0 35.326,0.746 53.63,2.383c132.131,11.623 265.576,18.129 397.707,18.129c194.929,0 387.237,-14.255 572.998,-47.797c117.756,308.09 269.506,598.657 457.883,864.934c-327.06,87.729 -671.11,128.51 -1020.4,128.51Z" style="fill:#f2d03c;fill-rule:nonzero;"/><path d="M14846.9,33658.3c-520.675,0 -702.506,-791.351 -130.822,-928.125c395.09,-94.598 791.489,-189.081 1186.59,-283.679c45.796,-11.011 90.258,-16.146 132.13,-16.146c128.207,0 235.488,47.675 316.585,121.761c-57.555,262.537 -98.119,525.686 -122.969,787.592c-19.606,7.136 -40.565,13.399 -62.793,18.777c-395.09,94.477 -791.489,189.075 -1186.58,283.673c-45.771,11.017 -90.265,16.147 -132.138,16.147Z" style="fill:#f2d03c;fill-rule:nonzero;"/><path d="M14909.7,40936.3c-287.804,0 -605.702,-235.016 -538.98,-593.648c177.908,-948.03 987.733,-1395.38 1942.72,-1395.38l19.638,0c592.642,3.759 1287.3,201.85 1921.8,201.85c213.259,0 419.941,-22.531 613.556,-82.472c56.278,-17.383 109.903,-25.399 159.603,-25.399c489.279,0 651.53,767.826 103.357,937.395c-228.942,70.94 -468.327,96.478 -709.059,96.478c-499.755,0 -1012.58,-108.744 -1492.69,-151.301c-188.409,-16.632 -380.717,-33.53 -565.164,-33.53c-495.831,0 -931.486,122.889 -1040.05,703.889c-44.488,239.012 -223.704,342.244 -414.735,342.123Z" style="fill:#f2d03c;fill-rule:nonzero;"/><path d="M15266.8,38840.3c-285.188,-0.121 -544.218,-236.628 -538.98,-484.395c5.238,-24.411 9.168,-49.555 10.476,-75.584c19.612,-79.337 68.031,-157.425 155.673,-227.006c735.217,-590.999 1624.83,-838.274 2547.14,-934.249c375.446,354.752 843.812,639.941 1407.67,831.89c-66.722,36.537 -147.845,58.2 -244.655,58.564c-1021.71,3.759 -2191.3,53.435 -3011.57,712.657c-103.325,82.957 -217.157,118.123 -325.752,118.123Z" style="fill:#f2d03c;fill-rule:nonzero;"/><path d="M20030.2,38661.6c-327.06,-0.122 -536.389,-285.941 -531.151,-540.213c194.923,37.167 397.706,64.688 610.933,82.089c92.913,7.64 194.93,10.89 302.217,10.89c291.734,0 629.27,-24.029 989.034,-50.179c-391.16,243.001 -821.577,420.574 -1280.78,490.397c-31.396,4.754 -60.17,7.016 -90.258,7.016Z" style="fill:#f2d03c;fill-rule:nonzero;"/><path d="M18008.9,42118.9c-504.993,0 -992.964,-133.657 -1435.16,-464.89c-397.681,-298.449 -35.295,-778.212 378.1,-778.212c107.281,0 219.774,32.657 321.822,109.368c191,143.789 426.487,199.589 676.349,199.589c578.268,0 1242.83,-296.57 1665.39,-497.413c732.627,-348.367 1414.22,-774.21 2101.05,-1194.78c87.674,-53.435 174.009,-76.712 255.099,-76.712c417.357,0 693.377,619.168 244.656,893.34c-1106.77,676.223 -2732.9,1809.71 -4207.3,1809.71Z" style="fill:#f2d03c;fill-rule:nonzero;"/><path d="M19713.5,49534c-345.364,0 -688.107,-338.605 -448.714,-697.747c724.766,-1086.8 1975.45,-1606.87 3262.74,-1825.11c34.019,-5.742 66.723,-8.507 98.119,-8.507c115.141,0 215.882,36.052 296.972,93.731c37.949,225.612 94.195,439.607 167.463,643.075c-54.938,89.712 -153.057,158.784 -299.594,183.697c-1019.09,172.686 -2087.95,515.924 -2671.42,1390.5c-103.357,155.794 -255.1,220.361 -405.567,220.361Z" style="fill:#f2d03c;fill-rule:nonzero;"/><path d="M22165.2,50019c-522.015,0 -706.469,-793.351 -132.131,-927.378c518.06,-121.258 992.933,-327.977 1452.13,-570.487c181.863,272.28 399.021,518.186 642.369,737.661c-578.268,316.851 -1176.14,591.641 -1831.54,744.683c-45.802,10.634 -88.982,15.521 -130.829,15.521Z" style="fill:#f2d03c;fill-rule:nonzero;"/><path d="M25125.8,51339.6c-167.457,0 -328.368,-76.215 -422.557,-229.256c-130.829,-212.97 -61.484,-529.566 177.901,-646.938c120.379,-58.946 235.488,-126.266 345.39,-200.977c5.238,-3.377 71.961,-51.797 74.583,-51.797c0,0 -6.546,5.881 -27.498,21.518c23.568,-18.02 47.11,-36.294 70.646,-54.927c32.704,-26.654 64.101,-53.817 94.189,-81.726c281.296,125.642 574.338,231.257 876.548,317.348c-2.616,117.499 -49.726,233.755 -142.607,320.35c-231.564,215.734 -505,405.804 -792.803,546.846c-81.097,39.665 -168.772,59.559 -253.792,59.559Z" style="fill:#f2d03c;fill-rule:nonzero;"/><path d="M22387.6,39024.6c-409.496,-0.121 -766.639,-478.895 -375.478,-782.098c60.177,-46.42 120.379,-89.602 181.863,-129.759c179.216,-8.646 358.457,-14.024 536.358,-14.024c710.399,0 1381.52,88.214 1830.23,419.198c-142.575,23.786 -286.496,39.793 -433.001,50.682c-489.317,36.422 -1013.89,32.032 -1415.53,342.753c-103.357,79.579 -215.882,113.248 -324.445,113.248Z" style="fill:#f2d03c;fill-rule:nonzero;"/><path d="M15647.5,43211.1c-168.765,0 -328.368,-92.094 -435.655,-234.245c-363.694,-482.152 -453.953,-1016.22 -346.666,-1593.98c39.25,-212.728 270.782,-345.379 486.657,-345.379c40.564,0 82.405,5.015 121.661,15.28c277.36,72.952 392.469,328.098 345.39,581.618c-62.824,334.622 44.463,596.274 245.938,865.055c158.289,209.611 39.25,526.086 -176.625,647.077c-79.789,44.425 -160.911,64.573 -240.7,64.573Z" style="fill:#f2d03c;fill-rule:nonzero;"/><path d="M14185,38761.7c-189.717,0 -366.31,-103.353 -406.875,-342.747c-120.347,-699.748 -215.849,-1456.19 247.246,-2066.73c109.903,-145.529 264.268,-205.833 414.735,-205.833c357.142,0 702.507,335.853 438.239,683.11c-302.178,399.171 -226.32,877.824 -147.813,1337.95c7.854,39.162 9.162,76.82 7.854,112.866c-1.308,26.029 -5.238,51.174 -10.476,75.584c-54.932,250.513 -308.756,405.804 -542.91,405.804Z" style="fill:#f2d03c;fill-rule:nonzero;"/><path d="M22281.6,51331.7c-252.484,0 -484.041,-88.716 -643.645,-315.844c-248.585,-354.879 94.189,-692.369 443.477,-692.369c73.269,0 147.851,14.891 215.85,47.554c17.022,-2.383 34.012,-4.511 37.942,-4.511c5.238,0 -2.616,2.001 -30.088,8.264c68.037,-14.891 162.225,-35.3 213.266,-58.565c192.307,-88.225 344.05,-189.838 482.733,-346.257c83.712,-95.107 208.021,-138.15 333.606,-138.15c136.061,0 273.404,49.688 365.002,138.15c202.752,193.459 173.978,472.142 0,668.723c-279.982,316.596 -896.153,693.005 -1418.14,693.005Z" style="fill:#f2d03c;fill-rule:nonzero;"/><path d="M18090,29072.8c-459.191,-200.334 -274.712,-900.846 209.329,-900.846c44.462,0 91.573,5.881 139.959,18.65c78.513,20.009 158.327,29.025 240.732,29.025c44.488,0 90.258,-2.632 136.06,-7.5c-252.483,280.423 -495.831,565.854 -726.08,860.671Z" style="fill:#f2d03c;fill-rule:nonzero;"/><path d="M14280.5,30228.8c-410.805,-0.121 -767.953,-479.017 -375.478,-781.716c631.886,-487.282 1335.71,-810.002 2077.5,-1114.33c86.334,-35.67 177.901,-55.187 265.543,-55.187c162.219,0 314.001,67.332 410.805,224.866c122.969,201.468 70.653,545.342 -177.933,646.955c-651.505,267.412 -1319.99,537.2 -1877.31,966.42c-102.042,79.325 -214.567,112.994 -323.13,112.994Z" style="fill:#f2d03c;fill-rule:nonzero;"/><path d="M34038.8,46017.4c-223.703,-194.21 -443.483,-392.665 -658.018,-595.388c36.602,-20.651 73.236,-46.923 108.563,-79.719c433.032,-408.69 909.22,-771.451 1384.13,-1134.85c210.637,-161.293 174.003,-501.669 0,-668.723c-98.119,-93.731 -213.259,-134.651 -329.682,-134.651c-129.515,0 -259.03,50.058 -370.241,134.651c-474.879,363.265 -951.098,726.038 -1384.1,1134.85c-30.088,29.158 -56.279,59.437 -77.199,90.354c-1080.61,-1110.58 -2036.94,-2332.65 -2849.35,-3645.94c1423.38,-555.728 2874.2,-954.154 4394.4,-1445.56c2798.31,-903.853 4958.22,-2600.07 7370.61,-4271.75c740.487,-513.42 1478.32,-1021.72 2208.33,-1531.03c158.289,51.185 312.654,109.125 465.743,174.565c-314,204.354 -616.178,422.715 -931.486,625.171c-223.704,143.407 -320.515,413.965 -177.901,646.956c88.95,143.649 265.543,236.755 439.553,236.755c83.744,0 164.835,-20.899 236.795,-67.198c334.92,-214.722 655.435,-447.228 989.041,-661.968c132.131,-84.843 219.773,-214.098 240.693,-353.624c137.376,90.354 272.128,188.693 405.567,295.441c477.495,385.911 907.912,831.908 1270.3,1319.67c-4109.18,3062.81 -8082.3,6266.14 -12115.6,9440.83c-208.021,163.306 -414.734,327.103 -620.133,491.161l0.031,0Zm-419.94,-3555.34c-74.551,0 -154.366,17.516 -234.18,57.066c-436.931,214.48 -838.574,501.658 -1187.86,830.398c-353.219,331.106 -14.406,806.121 368.932,806.121c111.179,0 226.326,-40.678 329.644,-137.277c294.357,-276.179 621.417,-502.542 987.733,-682.607c486.664,-239.272 187.102,-873.701 -264.267,-873.701Zm3574.13,-1526.28c-79.821,0 -163.533,21.282 -249.862,69.951c-545.564,311.218 -1191.82,624.298 -1462.64,1210.06c-108.563,235.755 -74.551,505.913 177.933,646.955c71.961,40.781 162.219,61.433 252.484,61.433c174.003,0 351.904,-75.96 423.865,-231.13c200.167,-433.464 703.853,-640.692 1108.08,-870.694c461.813,-263.021 179.241,-886.579 -249.862,-886.579Zm-3771.67,-459.997c-74.551,0 -154.365,17.395 -235.462,57.067c-523.291,258.153 -1004.75,613.165 -1562.06,803.495c-536.358,183.321 -381.993,941.894 92.881,942.016c52.348,0 109.902,-9.38 170.079,-29.91c644.984,-220.361 1194.44,-601.021 1798.83,-898.845c486.663,-239.503 187.101,-873.823 -264.268,-873.823Zm7509.31,-3417.82c-81.128,0 -162.219,21.403 -230.249,70.206c-417.325,299.704 -838.606,592.011 -1284.7,851.291c-457.883,266.035 -177.901,888.338 248.554,888.459c79.814,0 163.527,-21.888 249.893,-71.824c447.407,-259.281 868.663,-551.715 1286.01,-851.171c214.536,-154.296 324.438,-405.313 176.593,-647.077c-85.02,-139.144 -269.505,-239.884 -446.099,-239.884Zm-12822.1,503.549c-204.091,-537.703 -384.615,-1085.68 -542.942,-1642.66c70.653,-171.049 32.71,-378.398 -108.563,-513.535c-11.784,-11.902 -24.876,-23.04 -37.942,-33.426c-22.228,-85.085 -43.18,-170.303 -64.1,-255.77c66.722,35.409 146.505,56.181 239.417,56.181l7.822,0c715.605,-8.385 1382.82,-148.033 2029.08,-442.844c498.447,-227.006 189.691,-867.577 -273.398,-867.577c-71.96,0 -147.851,15.643 -225.049,50.809c-486.657,221.368 -995.555,307.459 -1530.64,313.723c-188.377,2.243 -321.822,86.837 -399.021,204.717c-58.862,-291.573 -111.178,-584.001 -158.288,-879.582c270.813,-77.827 552.071,-120.506 828.129,-120.506c378.063,0 744.379,79.464 1061,258.032c86.335,48.056 170.048,69.071 248.554,69.071c327.06,0 567.786,-357.498 465.743,-644.815c156.981,167.053 349.289,310.964 570.376,434.338c-166.149,314.716 134.753,679.739 468.359,679.739c111.211,0 227.634,-41.169 329.676,-139.405c57.555,-54.302 113.801,-108.744 170.08,-163.046c495.831,132.651 1053.11,213.104 1633.99,255.522c-1530.64,1172.15 -3099.25,2310.76 -4712.29,3381.03Z" style="fill:#f19a4a;fill-rule:nonzero;"/><path d="M29862.9,41118c-694.685,-1123.09 -1283.39,-2312.25 -1754.34,-3556.47c1613.04,-1070.28 3181.65,-2208.89 4712.29,-3381.03c371.523,27.163 752.239,38.798 1135.55,38.798c1828.92,0 3678.79,-267.787 4522.6,-394.557c982.488,-147.772 2008.13,-286.062 3015.5,-286.062c804.555,0 1596.05,88.353 2341.74,330.985c-730.011,509.308 -1467.84,1017.61 -2208.33,1531.03c-2412.39,1671.68 -4572.3,3367.9 -7370.61,4271.75c-1520.19,491.41 -2971.01,889.835 -4394.4,1445.56Z" style="fill:#f2b053;fill-rule:nonzero;"/><path d="M40667.6,49993c-2459.5,-944.15 -4699.22,-2298.98 -6628.87,-3975.55c205.4,-164.058 412.113,-327.856 620.134,-491.162c4033.29,-3174.68 8006.45,-6378 12115.6,-9440.83c1122.49,1509 1599.98,3418.83 866.072,5193.36c-1480.94,3582.13 -2348.32,5009.67 -5108.69,7417.66c-406.881,355.625 -1083.23,820.254 -1864.25,1296.53l-0.045,-0.006Z" style="fill:#f2b053;fill-rule:nonzero;"/><path d="M29473,32896.9c-11.784,-8.507 -24.85,-16.65 -39.256,-24.411c-465.705,-262.536 -1006.03,-382.036 -1558.1,-382.036c-319.206,0 -643.644,40.296 -957.644,116.123c-81.091,-735.533 -121.655,-1482.34 -121.655,-2238.41c0,-715.021 36.634,-1422.29 108.595,-2119.17c251.169,-107.227 502.345,-212.842 749.617,-328.983c240.7,-113.861 306.108,-436.581 176.593,-646.937c-94.189,-154.297 -252.477,-228.383 -419.935,-228.383c-85.026,0 -174.009,19.906 -256.413,58.686c-35.327,16.528 -69.339,32.674 -104.665,48.809c117.763,-735.418 274.744,-1458.44 468.359,-2166.97c11.752,39.041 28.78,78.209 52.316,117.129c85.059,139.156 269.506,239.884 446.131,239.884c82.405,0 162.226,-21.403 230.256,-70.327c366.278,-262.397 741.763,-539.449 1166.94,-709.018c248.547,-98.849 423.865,-309.327 345.358,-581.625c-52.316,-184.831 -261.645,-356.007 -472.257,-356.007c-45.802,0 -91.573,8.009 -136.061,25.775c-515.437,205.221 -957.644,485.153 -1402.43,804.38c-37.949,27.145 -73.275,57.437 -103.357,90.093c257.716,-861.938 570.408,-1701.6 936.686,-2514.73c1092.4,-684.099 2204.4,-1354.82 3371.34,-1965.24c1080.61,-564.726 2178.24,-750.066 3278.46,-923.255c-491.902,415.335 -1323.95,809.255 -1790.98,1061.65c-105.978,57.576 -262.959,135.155 -444.823,227.376c-23.542,-3.377 -45.77,-4.996 -69.344,-4.996c-74.545,0 -154.359,17.383 -234.148,56.927c-384.646,188.457 -731.319,432.216 -1088.46,661.975c-104.671,67.071 -180.555,161.796 -218.472,267.411c-198.853,177.694 -328.368,355.134 -329.676,519.192c-7.86,780.965 1775.26,1701.71 2013.37,2648.11c120.347,473.888 139.991,896.966 86.335,1281.87c-265.551,170.061 -532.434,345.76 -761.376,558.985c-193.615,179.579 -188.377,488.403 0,668.722c61.485,58.953 134.753,98.485 213.228,119.257c-630.553,916.241 -1652.29,1628.76 -2417.63,2466.67c-23.542,15.886 -47.078,34.275 -69.338,55.43c-332.298,308.835 -711.675,538.333 -1166.94,634.932c-579.544,123.38 -389.853,924.996 142.607,924.996c39.224,0 78.474,-4.123 120.346,-13.011c14.375,-2.996 28.781,-6.003 41.879,-9.259c-36.641,151.289 -62.799,308.593 -73.275,472.893c-32.704,461.743 74.583,842.664 287.81,1155.5Zm659.359,-7337.93c-24.85,14.006 -51.041,26.532 -77.199,39.168c-85.02,40.799 -163.527,98.23 -231.563,160.541c-196.231,177.191 -187.07,490.289 0,668.844c95.502,91.73 219.811,136.028 344.088,136.028c122.963,0.121 245.932,-42.788 342.742,-125.502c24.883,-14.024 51.041,-26.533 77.199,-39.168c85.02,-40.8 162.219,-98.236 231.557,-160.56c196.238,-177.191 187.07,-490.398 0,-668.723c-95.496,-91.845 -219.773,-136.149 -344.082,-136.149c-122.969,0 -245.931,42.806 -342.742,125.521Z" style="fill:#f19a4a;fill-rule:nonzero;"/><path d="M28582.1,22030.7c974.667,-2171.34 2319.51,-4155.23 3958.74,-5878.97c435.655,59.31 790.181,233.251 994.279,578.368l1186.58,1134.86c1178.73,348.003 1045.29,825.262 510.205,1277.24c-1100.22,173.19 -2197.86,358.53 -3278.46,923.256c-1166.94,610.419 -2278.95,1281.14 -3371.34,1965.24Z" style="fill:#f2b053;fill-rule:nonzero;"/><path d="M29096.3,31290.7c-532.46,0 -722.151,-801.616 -142.607,-924.996c455.267,-96.599 834.644,-326.097 1166.94,-634.932c22.26,-21.155 45.796,-39.544 69.338,-55.43c-430.417,471.759 -779.705,983.312 -931.448,1593.09c-13.098,3.256 -27.504,6.263 -41.878,9.258c-41.873,8.889 -81.123,13.012 -120.347,13.012Z" style="fill:#f1cb56;fill-rule:nonzero;"/><path d="M26905,28248.9c39.218,-368.776 87.642,-733.914 145.197,-1096.81c35.326,-16.134 69.338,-32.28 104.664,-48.808c82.405,-38.781 171.388,-58.686 256.414,-58.686c167.457,0 325.746,74.086 419.935,228.383c129.515,210.356 64.107,533.076 -176.593,646.937c-247.272,116.141 -498.448,221.756 -749.617,328.983Z" style="fill:#f1cb56;fill-rule:nonzero;"/><path d="M28017,25342.2c-176.625,0 -361.073,-100.728 -446.131,-239.884c-23.536,-38.92 -40.565,-78.088 -52.317,-117.129c40.565,-147.148 82.405,-293.684 126.899,-439.716c30.082,-32.656 65.409,-62.948 103.357,-90.093c444.785,-319.227 886.992,-599.159 1402.43,-804.381c44.488,-17.765 90.258,-25.774 136.06,-25.774c210.612,0 419.941,171.176 472.258,356.007c78.506,272.298 -96.811,482.776 -345.359,581.624c-425.178,169.57 -800.663,446.622 -1166.94,709.019c-68.03,48.924 -147.851,70.327 -230.255,70.327Z" style="fill:#f1cb56;fill-rule:nonzero;"/><path d="M30167.8,26563.5c-124.276,0 -248.585,-44.298 -344.088,-136.028c-187.069,-178.555 -196.231,-491.653 0,-668.844c68.037,-62.312 146.543,-119.742 231.564,-160.542c26.158,-12.635 52.348,-25.162 77.198,-39.168c96.811,-82.714 219.773,-125.52 342.742,-125.52c124.309,0 248.586,44.304 344.083,136.149c187.069,178.325 196.237,491.532 0,668.723c-69.339,62.323 -146.537,119.76 -231.558,160.559c-26.158,12.636 -52.316,25.144 -77.198,39.168c-96.811,82.715 -219.78,125.624 -342.743,125.503Z" style="fill:#f1cb56;fill-rule:nonzero;"/><path d="M27565.7,35918.8c-51.008,-181.314 -100.734,-363.628 -146.505,-546.961c13.067,10.386 26.159,21.524 37.942,33.426c141.274,135.137 179.216,342.486 108.563,513.535Z" style="fill:#f1cb56;fill-rule:nonzero;"/><path d="M29182.6,33758.1c-78.507,0 -162.219,-21.015 -248.554,-69.072c-316.616,-178.568 -682.933,-258.032 -1061,-258.032c-276.058,0 -557.316,42.679 -828.13,120.506c-49.7,-312.455 -91.573,-628.178 -126.899,-945.023c314,-75.826 638.438,-116.122 957.645,-116.122c552.071,0 1092.4,119.5 1558.1,382.036c14.406,7.761 27.473,15.904 39.257,24.411c52.316,76.208 111.21,148.275 175.317,216.48c102.042,287.317 -138.683,644.816 -465.743,644.816Z" style="fill:#f1cb56;fill-rule:nonzero;"/><path d="M35910.9,42924.2c-90.265,0 -180.523,-20.652 -252.484,-61.433c-252.484,-141.042 -286.496,-411.2 -177.933,-646.955c270.814,-585.766 917.074,-898.846 1462.64,-1210.06c86.328,-48.669 170.041,-69.951 249.862,-69.951c429.102,0 711.674,623.558 249.861,886.58c-404.227,230.001 -907.912,437.229 -1108.08,870.694c-71.96,155.169 -249.861,231.129 -423.864,231.129Z" style="fill:#f1cb56;fill-rule:nonzero;"/><path d="M31716.7,42278.3c-474.874,-0.122 -629.239,-758.695 -92.881,-942.016c557.316,-190.33 1038.77,-545.342 1562.06,-803.495c81.097,-39.672 160.911,-57.067 235.462,-57.067c451.369,0 750.932,634.32 264.268,873.823c-604.394,297.824 -1153.85,678.484 -1798.83,898.845c-60.177,20.53 -117.731,29.91 -170.079,29.91Z" style="fill:#f1cb56;fill-rule:nonzero;"/><path d="M39664.3,38867.9c-426.455,-0.121 -706.437,-622.424 -248.554,-888.459c446.099,-259.28 867.38,-551.587 1284.7,-851.291c68.03,-48.803 149.121,-70.206 230.249,-70.206c176.594,0 361.079,100.74 446.1,239.884c147.844,241.764 37.942,492.781 -176.594,647.077c-417.35,299.456 -838.606,591.89 -1286.01,851.171c-86.367,49.936 -170.08,71.824 -249.894,71.824Z" style="fill:#f1cb56;fill-rule:nonzero;"/><path d="M43632.1,35553.1c-174.009,0 -350.602,-93.107 -439.553,-236.756c-142.613,-232.991 -45.802,-503.549 177.901,-646.956c315.308,-202.456 617.486,-420.816 931.487,-625.17c273.397,117.007 538.979,257.789 796.695,426.091c-20.92,139.526 -108.563,268.782 -240.694,353.624c-333.606,214.74 -654.12,447.246 -989.041,661.968c-71.96,46.299 -153.05,67.199 -236.795,67.199Z" style="fill:#f1cb56;fill-rule:nonzero;"/><path d="M31385.7,21412.6c37.916,-105.615 113.801,-200.34 218.472,-267.412c357.142,-229.758 703.814,-473.517 1088.46,-661.974c79.789,-39.544 159.603,-56.927 234.147,-56.927c23.575,0 45.803,1.619 69.345,4.996c-502.345,253.781 -1202.27,618.174 -1610.42,981.317Z" style="fill:#f1cb56;fill-rule:nonzero;"/><path d="M32607.6,27208.7c-78.475,-20.773 -151.743,-60.305 -213.228,-119.257c-188.377,-180.32 -193.615,-489.143 0,-668.723c228.942,-213.224 495.826,-388.924 761.376,-558.984c-70.621,506.18 -272.096,946.156 -548.148,1346.96Z" style="fill:#f1cb56;fill-rule:nonzero;"/><path d="M32565.8,44155.6c-383.339,0 -722.151,-475.016 -368.933,-806.121c349.289,-328.741 750.932,-615.918 1187.86,-830.398c79.814,-39.55 159.628,-57.067 234.179,-57.067c451.369,0 750.931,634.43 264.268,873.702c-366.317,180.065 -693.377,406.428 -987.733,682.607c-103.318,96.599 -218.466,137.277 -329.644,137.277Z" style="fill:#f1cb56;fill-rule:nonzero;"/><path d="M33380.8,45422c-227.633,-214.74 -450.061,-434.349 -668.526,-658.088c20.92,-30.916 47.11,-61.196 77.198,-90.353c433.001,-408.812 909.221,-771.585 1384.1,-1134.85c111.211,-84.594 240.725,-134.651 370.24,-134.651c116.423,0 231.564,40.92 329.683,134.651c174.003,167.053 210.637,507.429 0,668.723c-474.912,363.398 -951.099,726.159 -1384.13,1134.85c-35.326,32.796 -71.96,59.068 -108.563,79.719Z" style="fill:#f1cb56;fill-rule:nonzero;"/><path d="M27594.4,35172.3c-92.912,0 -172.695,-20.773 -239.417,-56.182c-53.663,-226.867 -104.671,-455.492 -151.781,-684.99c77.198,-117.881 210.643,-202.475 399.02,-204.718c535.082,-6.263 1043.98,-92.355 1530.64,-313.722c77.198,-35.167 153.089,-50.81 225.049,-50.81c463.09,0 771.845,640.571 273.398,867.578c-646.26,294.811 -1313.48,434.458 -2029.08,442.844l-7.822,0Z" style="fill:#f1cb56;fill-rule:nonzero;"/><path d="M30687.1,34227.4c-333.606,0 -634.508,-365.023 -468.359,-679.74c281.29,156.928 609.658,280.933 968.114,377.289c-56.278,54.302 -112.525,108.744 -170.079,163.046c-102.042,98.236 -218.465,139.405 -329.676,139.405Z" style="fill:#f1cb56;fill-rule:nonzero;"/><path d="M28213.2,50699.3c-638.438,-17.644 -1284.7,-111.757 -1898.26,-286.566c3.93,-126.636 -44.488,-254.775 -142.607,-348.506c-95.503,-91.348 -221.088,-136.392 -347.98,-136.392c-126.899,0 -255.132,46.05 -351.943,136.392c-10.444,10.507 -22.228,20.894 -34.018,31.159c-485.349,-217.857 -931.448,-495.788 -1310.83,-836.655c256.408,-140.018 507.577,-288.184 757.445,-437.836c453.953,-270.54 176.626,-891.103 -245.938,-891.103c-79.814,0 -166.149,22.531 -252.477,74.468c-298.286,178.307 -596.566,355.377 -901.398,516.809c-159.603,-239.763 -293.048,-500.299 -395.091,-781.971c122.963,-196.842 41.872,-493.29 -167.463,-643.075c-102.043,-598.517 -73.237,-1276.38 117.763,-2036.32c1450.82,-949.655 2910.84,-1935.72 4509.5,-2849.6c767.922,-438.218 1535.88,-788.586 2312.96,-1092.17c812.416,1313.3 1768.75,2535.36 2849.35,3645.94c-214.535,321.088 98.119,716.276 446.099,716.276c74.577,0 150.467,-17.905 222.428,-58.189c214.535,202.723 434.315,401.178 658.019,595.388c-1967.57,1568.82 -3869.76,3170.3 -5825.57,4681.94Zm-2463.43,-2185.12c-545.526,0 -747.001,814.002 -156.981,921.879c490.594,89.972 994.247,244.007 1500.55,244.007c82.405,0 164.841,-4.123 247.246,-13.26c733.935,-81.465 1199.68,-582.261 1479.63,-1204.68c94.189,-210.848 30.088,-411.443 -100.735,-548.095c141.299,-130.893 279.982,-264.034 418.627,-396.546c349.327,-333.367 10.476,-808.127 -368.9,-808.127c-111.211,0 -227.634,41.169 -329.676,139.405c-431.732,413.073 -862.142,845.167 -1382.82,1155.5c-308.756,183.194 -279.95,528.069 -96.804,730.665c-371.555,-21.404 -747.002,-145.287 -1104.15,-210.86c-36.634,-6.755 -71.961,-9.883 -105.979,-9.883Zm6083.33,-3323.22c-81.129,0 -160.912,21.403 -228.942,70.709c-372.862,271.535 -714.297,579.867 -1087.16,851.171c-214.536,155.66 -325.753,404.185 -177.902,646.943c85.021,138.532 270.782,240.388 447.407,240.388c82.405,0 160.911,-21.524 228.942,-70.697c374.138,-271.425 715.605,-580 1088.47,-851.17c213.228,-155.673 325.753,-404.198 176.594,-647.077c-85.021,-138.532 -269.506,-240.267 -447.407,-240.267Zm-7590.4,-94.216c-44.494,0 -88.95,7.118 -133.445,22.64c-482.733,169.43 -773.159,538.588 -938,992.328c-88.983,243.504 98.118,516.809 345.364,581.625c44.488,11.756 87.675,17.395 130.823,17.395c218.497,0 402.951,-144.274 476.219,-347.622c5.206,-15.152 11.752,-30.164 16.99,-45.061c2.622,-6.003 6.546,-14.249 11.784,-25.017c27.473,-54.06 60.177,-105.112 94.195,-154.666c3.924,-3.759 7.854,-8.386 13.06,-13.515c20.952,-22.901 43.18,-43.795 66.723,-64.07c5.238,-3.129 10.476,-7.009 18.336,-11.635c14.368,-8.895 75.884,-32.917 71.954,-32.917c-1.308,0 -13.092,4.135 -44.488,15.012c252.477,-88.717 421.249,-317.342 345.358,-581.625c-56.24,-192.209 -261.645,-352.872 -474.873,-352.872Zm3593.73,-1202.18c-96.804,74.711 -154.358,193.459 -134.753,356.753c71.961,616.803 -79.782,1183.79 -279.943,1765.8c-120.385,350.368 179.209,579.375 480.111,579.375c197.545,0 395.091,-99.109 473.597,-327.989c225.018,-653.207 396.405,-1325.43 313.968,-2017.18c-22.228,-187.705 -134.753,-317.342 -276.051,-388.039c11.784,-10.508 22.26,-21.9 32.704,-34.154c109.902,-130.65 439.585,-209.362 651.536,-271.165c303.486,-88.856 613.556,-160.808 910.528,-269.309c527.228,-192.452 378.069,-945.265 -86.366,-945.265c-54.933,0 -113.801,10.386 -176.594,33.408c-355.834,129.522 -727.389,212.74 -1089.78,322.356c-308.724,93.349 -697.301,209.102 -907.912,461.252c-168.765,200.965 -206.714,471.505 0,668.723c26.158,24.901 56.246,46.79 88.95,65.44Zm-1117.24,1024.24c-86.335,0 -173.971,19.888 -256.408,59.056c-425.179,203.723 -842.504,417.318 -1187.89,736.042c-355.84,328.614 -15.682,803.878 368.933,803.878c112.524,0 227.633,-40.054 330.99,-135.283c281.258,-259.771 639.714,-422.071 986.419,-588.003c242.001,-115.255 307.416,-435.592 177.901,-646.955c-94.189,-153.775 -253.792,-228.735 -419.941,-228.735Zm4444.1,-1241.85c-79.789,0 -164.841,21.645 -251.176,71.461c-532.459,307.828 -1049.21,638.061 -1581.68,945.768c-459.191,265.411 -179.21,888.089 248.585,888.089c79.789,0 163.533,-21.658 249.862,-71.455c532.466,-307.707 1050.53,-638.067 1582.99,-945.768c457.883,-265.411 177.901,-888.095 -248.586,-888.095Zm-6067.61,-4234.33c-36.634,-248.27 -124.277,-477.386 -279.982,-676.604c-73.237,-94.98 -159.597,-177.191 -255.1,-248.149c362.387,-61.19 705.161,-173.941 1017.82,-383.789c427.801,-288.814 162.225,-902.725 -239.418,-902.725c-82.404,0 -171.355,26.029 -260.337,85.97c-460.474,309.581 -977.251,301.335 -1516.23,348.125c-515.443,44.558 -956.336,177.312 -1368.42,447.246c-231.564,11.132 -463.121,27.399 -688.139,43.667c-35.32,2.631 -70.646,5.256 -104.664,7.761c380.69,-237.514 722.15,-537.461 1013.89,-860.684c315.27,-350.386 -14.406,-824.516 -374.171,-824.516c-111.185,0 -226.325,45.916 -325.752,155.794c-490.594,546.209 -1097.6,992.188 -1857.7,1107.95c-245.938,37.41 -354.532,200.213 -358.456,378.659c-228.942,-43.794 -446.099,-100.982 -650.197,-170.442c378.069,-206.216 298.286,-887.204 -242.033,-887.204l-2.622,0c-387.231,1.376 -778.398,15.14 -1163.01,55.314c-177.933,-166.932 -334.921,-349.016 -472.289,-544.093c473.597,-126.509 913.15,-350.75 1293.87,-690.126c362.387,-324.339 19.612,-799.978 -370.24,-799.978c-111.179,0 -226.326,38.78 -329.683,131.256c-307.416,274.42 -667.18,424.836 -1051.83,493.914c-125.585,-332.239 -213.228,-684.747 -261.652,-1050.26l3.93,0c82.436,0 163.533,6.997 242.039,22.64c39.25,7.76 77.199,11.392 113.801,11.392c539.012,0 733.935,-807.497 149.153,-923.249c-151.775,-30.159 -319.2,-45.171 -494.517,-45.171c-19.613,0 -39.25,0.121 -60.17,0.503c3.923,-128.146 13.06,-256.898 24.843,-386.177c368.933,-132.633 358.457,-571.857 122.969,-787.592c109.903,-507.551 277.36,-1011.85 499.756,-1494.49c648.882,-205.973 1258.55,-440.74 1806.69,-847.169c399.015,-296.83 36.634,-776.841 -378.1,-776.841c-108.563,0 -218.466,32.153 -321.823,107.997c-119.038,89.208 -247.245,166.302 -380.69,234.628c162.225,-241.139 333.612,-475.015 512.821,-703.398c26.158,11.642 54.939,21.658 86.335,29.661c164.841,42.546 327.06,60.936 488.003,60.936c528.504,0 1038.74,-200.577 1551.56,-401.172c512.821,-200.601 1028.29,-401.196 1565.96,-401.196c28.774,0 57.555,0.63 86.361,1.758c7.828,0.382 16.996,0.503 24.85,0.503c612.248,0 601.772,-920.994 -24.85,-946.271c-40.565,-1.498 -81.122,-2.383 -121.687,-2.383c-580.852,0 -1130.31,166.926 -1670.63,366.654c-364.977,134.773 -828.098,384.54 -1259.82,430.839c414.703,-463.502 854.288,-912.748 1296.46,-1364.85c85.052,-86.977 171.387,-172.565 260.338,-257.401c2981.49,-1140.99 5540.42,-2889.63 8209.2,-4559.19c-366.279,813.136 -678.971,1652.79 -936.686,2514.73c-115.148,122.628 -172.702,279.55 -126.9,439.715c-193.615,708.528 -350.596,1431.55 -468.359,2166.97c-391.16,178.828 -791.495,335.611 -1180.03,518.689c-242.008,113.873 -306.109,436.72 -177.908,646.956c94.189,154.157 253.792,228.364 419.941,228.364c86.335,0 174.009,-19.887 256.414,-58.692c176.625,-83.46 357.142,-161.408 536.389,-238.508c-71.96,696.88 -108.594,1404.15 -108.594,2119.17c0,756.069 40.564,1502.88 121.654,2238.41c-707.744,170.813 -1369.73,522.187 -1840.7,1001.71c-334.888,341.128 -1.282,815.379 370.24,815.379c112.525,0 227.634,-43.291 329.683,-146.535c320.508,-326.971 775.775,-584.129 1267.68,-725.535c47.111,295.581 99.427,588.009 158.289,879.582c-142.575,219.112 -92.874,553.092 151.782,684.991c20.92,85.467 41.872,170.685 64.1,255.77c-90.259,-68.951 -198.853,-102.984 -308.756,-102.984c-126.899,0 -255.106,46.056 -351.911,136.41c-40.564,37.653 -82.404,73.565 -125.591,108.101c18.305,-14.388 23.543,-19.887 22.235,-19.887c-3.93,0 -79.789,54.18 -92.881,62.445c-95.503,57.939 -196.237,105.614 -296.972,153.653c-240.7,115.25 -307.422,435.605 -177.907,647.077c94.195,153.672 253.791,228.625 421.255,228.625c86.328,0 173.971,-19.766 255.1,-59.067c253.791,-121.38 489.279,-261.894 693.37,-452.224c48.393,-45.068 85.027,-98.115 108.563,-155.188c158.327,556.984 338.85,1104.96 542.942,1642.66c-987.727,655.207 -1991.14,1284.76 -3012.89,1881.16l0.013,0Zm-1736.04,-4270.49c-2.622,0 -6.552,0 -9.168,0.121c-556.002,7.519 -1096.29,109.374 -1614.35,300.45c-251.208,92.725 -422.563,314.474 -345.396,581.764c54.97,189.445 261.652,354.006 473.597,354.127c44.462,0 90.265,-7.518 134.753,-23.907c439.553,-162.178 879.138,-260.396 1351.39,-266.781c634.508,-8.634 638.438,-945.774 9.168,-945.774Zm2067.03,-663.969c-43.18,0 -87.675,6.003 -130.823,18.772c-252.484,74.832 -490.593,77.584 -758.785,77.827c-269.506,0.121 -494.523,214.862 -494.523,472.893c0,257.65 225.017,472.881 494.523,472.754c344.05,-0.121 690.755,-13.254 1021.74,-111.369c256.414,-76.329 418.633,-327.231 345.364,-581.746c-58.862,-201.722 -262.96,-349.131 -477.495,-349.131Zm-2773.46,-1133.09c-77.198,0 -159.635,19.645 -244.662,64.688c-714.29,383.795 -1459.98,698.129 -2254.1,898.221c-567.785,143.019 -389.852,929.622 124.277,929.622c44.488,0 90.259,-5.62 138.683,-17.765c871.278,-219.737 1705.95,-571.863 2490.9,-993.322c472.257,-253.648 183.139,-881.444 -255.1,-881.444Zm-3050.83,-661.847l-9.168,0c-556.002,7.634 -1096.29,109.368 -1614.35,300.571c-251.208,92.719 -422.595,314.474 -345.397,581.758c54.939,189.457 261.652,354.006 473.597,354.006c44.463,0 90.265,-7.518 134.721,-23.767c439.585,-162.179 879.17,-260.415 1351.43,-266.8c634.508,-8.634 638.438,-945.768 9.168,-945.768Zm1597.35,-637.824c-219.773,0 -436.963,20.148 -650.19,87.225c-545.526,171.813 -385.923,938.147 102.049,938.147c49.694,0 103.356,-8.264 160.911,-26.151c138.683,-43.552 285.188,-57.315 433.033,-57.315c194.929,0 393.782,23.646 582.159,34.663c119.039,7.009 239.424,11.253 358.463,11.253c269.5,0 536.358,-21.767 801.934,-83.217c574.337,-133.021 389.852,-927.239 -134.753,-927.239c-40.533,0 -83.713,4.868 -128.207,15.255c-173.971,40.174 -349.289,53.192 -527.19,53.192c-166.149,0 -332.298,-11.399 -499.761,-22.901c-166.15,-11.392 -332.299,-22.912 -498.448,-22.912Zm4629.86,-1153.24c-86.335,0 -173.977,19.887 -256.414,58.685c-423.865,199.467 -862.11,367.891 -1285.98,567.498c-240.725,113.861 -306.14,436.599 -176.625,646.937c94.195,154.175 252.484,228.262 419.941,228.262c85.059,0 174.009,-19.785 256.414,-58.571c423.864,-199.601 862.142,-368.024 1284.7,-567.491c242.04,-113.873 306.14,-436.721 177.94,-646.956c-94.195,-154.157 -253.824,-228.364 -419.973,-228.364Zm-8714.18,277.173c-515.437,0 -693.37,787.349 -125.584,929.501c256.407,64.082 504.961,93.731 744.385,93.731c1622.2,0 2872.89,-1354.71 3769.05,-2580.8c256.408,-350.999 -86.366,-687.615 -440.893,-687.615c-150.435,0 -303.492,61.571 -412.08,210.356c-667.219,911.736 -1652.33,2113.92 -2905.6,2113.92c-159.603,0 -323.136,-19.523 -491.901,-61.578c-47.111,-11.884 -92.881,-17.516 -137.376,-17.516Zm8907.82,-1323.42l-2.622,0c-1227.14,5.372 -2524.91,163.918 -3294.17,1180.01c-264.268,347.379 81.122,683.11 438.271,683.25c151.743,0 304.832,-60.444 414.703,-205.985c528.535,-696.88 1631.37,-708.012 2441.2,-711.511c635.791,-2.753 637.099,-945.768 2.622,-945.768Zm-1991.17,-3406.2c-82.405,0 -164.841,20.772 -238.078,66.082c-286.528,176.809 -604.42,296.188 -890.916,472.876c-225.017,139.787 -317.898,417.075 -176.625,646.955c88.983,145.287 262.954,235.762 436.963,235.762c82.405,0 166.149,-20.658 239.418,-66.083c285.188,-176.688 604.388,-296.066 889.575,-472.875c226.358,-139.666 317.931,-416.961 177.94,-646.956c-88.951,-145.286 -264.268,-235.761 -438.277,-235.761Z" style="fill:#f4b550;fill-rule:nonzero;"/><path d="M20372.9,26589.9c953.715,-914.246 2070.96,-1726.63 2587.71,-2953.45c439.578,-1046.13 153.082,-2053.33 801.965,-3008c1037.43,-1524.15 2810.1,-2715.31 4531.74,-3425.07c754.855,-311.224 2545.83,-1075.79 3865.86,-1075.79c132.131,0 259.03,7.634 380.685,24.15c-1639.23,1723.74 -2984.08,3707.64 -3958.74,5878.97c-2668.8,1669.56 -5227.73,3418.2 -8209.2,4559.19l-0.013,0Z" style="fill:#f5c456;fill-rule:nonzero;"/><path d="M23040.4,45059.8c141.266,-560.118 371.522,-1165.02 703.82,-1815.84c439.586,-862.57 1531.94,-2567.78 1351.42,-3801.24c1021.75,-596.395 2025.16,-1225.95 3012.89,-1881.16c470.949,1244.22 1059.65,2433.39 1754.34,3556.47c-777.089,303.584 -1545.04,653.952 -2312.96,1092.17c-1598.67,913.876 -3058.68,1899.94 -4509.5,2849.6Z" style="fill:#f5c456;fill-rule:nonzero;"/><path d="M35169.1,52330.9c-1074.06,0 -1577.75,-645.707 -1941.45,-1291.29c-365.002,-645.688 -591.321,-1291.27 -1109.38,-1291.27c-158.295,0 -342.742,59.438 -565.17,196.333c-809.793,496.176 -1940.1,757.457 -3118.83,757.457c-73.268,0 -146.543,-1.006 -221.088,-3.128c1955.82,-1511.65 3858.01,-3113.13 5825.57,-4681.94c1929.66,1676.57 4169.38,3031.4 6628.87,3975.55c-1529.32,932.387 -3458.98,1909.69 -4561.85,2202.76c-354.526,93.974 -663.256,135.646 -936.686,135.525l0.013,0Z" style="fill:#f5c456;fill-rule:nonzero;"/><path d="M16851.1,31057.6c22.234,-48.178 44.494,-96.235 68.03,-143.91c193.622,-399.438 416.017,-776.46 658.05,-1137.48c133.445,-68.326 261.652,-145.42 380.691,-234.628c103.357,-75.844 213.26,-107.997 321.823,-107.997c414.734,0 777.114,480.011 378.1,776.841c-548.148,406.429 -1157.81,641.196 -1806.69,847.169Z" style="fill:#f4d758;fill-rule:nonzero;"/><path d="M17734.2,32222.6c-239.423,0 -487.977,-29.649 -744.385,-93.731c-567.785,-142.152 -389.852,-929.501 125.585,-929.501c44.494,0 90.265,5.633 137.375,17.517c168.765,42.054 332.298,61.578 491.901,61.578c1253.27,0 2238.38,-1202.18 2905.6,-2113.92c108.589,-148.785 261.646,-210.357 412.081,-210.357c354.526,0 697.301,336.617 440.893,687.616c-896.16,1226.09 -2146.85,2580.8 -3769.05,2580.8Z" style="fill:#f4d758;fill-rule:nonzero;"/><path d="M16609.1,34693.8c-36.603,0 -74.551,-3.632 -113.801,-11.393c-78.507,-15.643 -159.603,-22.64 -242.04,-22.64l-3.93,0c-40.526,-303.96 -56.24,-616.924 -45.764,-933.884c20.92,-0.382 40.558,-0.503 60.17,-0.503c175.317,0 342.742,15.012 494.517,45.17c584.782,115.753 389.859,923.25 -149.152,923.25Z" style="fill:#f4d758;fill-rule:nonzero;"/><path d="M16968.8,36574.9c-188.377,-266.278 -340.126,-556.844 -457.883,-864.934c384.647,-69.078 744.411,-219.494 1051.83,-493.914c103.357,-92.476 218.504,-131.256 329.683,-131.256c389.852,0 732.626,475.639 370.24,799.978c-380.716,339.376 -820.27,563.617 -1293.87,690.126Z" style="fill:#f4d758;fill-rule:nonzero;"/><path d="M18107,33949.6c-211.945,0 -418.658,-164.55 -473.597,-354.007c-77.198,-267.284 94.189,-489.039 345.397,-581.758c518.059,-191.203 1058.35,-292.937 1614.35,-300.571l9.168,0c629.27,0 625.34,937.135 -9.168,945.769c-472.258,6.384 -911.843,104.62 -1351.43,266.799c-44.456,16.249 -90.258,23.768 -134.721,23.768Z" style="fill:#f4d758;fill-rule:nonzero;"/><path d="M16228.4,33339.7c24.851,-261.906 65.415,-525.055 122.969,-787.591c235.488,215.735 245.964,654.959 -122.969,787.591Z" style="fill:#f4d758;fill-rule:nonzero;"/><path d="M20278.7,35267.6c-514.13,0 -692.063,-786.603 -124.277,-929.622c794.111,-200.092 1539.8,-514.426 2254.1,-898.221c85.027,-45.043 167.463,-64.688 244.662,-64.688c438.239,0 727.357,627.796 255.099,881.444c-784.949,421.459 -1619.62,773.585 -2490.9,993.322c-48.425,12.145 -94.195,17.765 -138.683,17.765Z" style="fill:#f4d758;fill-rule:nonzero;"/><path d="M23164.7,31739.2c-357.149,-0.14 -702.539,-335.871 -438.271,-683.25c769.261,-1016.1 2067.03,-1174.64 3294.17,-1180.01l2.622,0c634.476,0 633.169,943.016 -2.622,945.768c-809.825,3.499 -1912.66,14.631 -2441.2,711.511c-109.871,145.541 -262.96,205.985 -414.703,205.985Z" style="fill:#f4d758;fill-rule:nonzero;"/><path d="M26112.1,28546.2c-166.149,0 -325.753,-74.207 -419.941,-228.364c-128.201,-210.235 -64.101,-533.083 177.907,-646.956c388.539,-183.078 788.874,-339.86 1180.03,-518.688c-57.554,362.894 -105.979,728.032 -145.197,1096.81c-179.247,77.1 -359.764,155.049 -536.389,238.509c-82.405,38.804 -170.08,58.691 -256.414,58.691Z" style="fill:#f4d758;fill-rule:nonzero;"/><path d="M23163.4,27891.5c-174.01,0 -347.981,-90.475 -436.963,-235.762c-141.273,-229.88 -48.393,-507.168 176.625,-646.955c286.496,-176.688 604.388,-296.066 890.916,-472.875c73.236,-45.311 155.673,-66.083 238.078,-66.083c174.009,0 349.326,90.475 438.277,235.761c139.991,229.996 48.418,507.29 -177.94,646.956c-285.188,176.809 -604.388,296.187 -889.576,472.875c-73.268,45.426 -157.013,66.083 -239.417,66.083Z" style="fill:#f4d758;fill-rule:nonzero;"/><path d="M27518.6,24985.2c-45.803,-160.166 11.752,-317.087 126.899,-439.716c-44.495,146.033 -86.335,292.568 -126.899,439.716Z" style="fill:#f4d758;fill-rule:nonzero;"/><path d="M18848.9,37950.9c-563.856,-191.949 -1032.22,-477.138 -1407.67,-831.89c384.614,-40.174 775.781,-53.938 1163.01,-55.314l2.623,0c540.319,0 620.102,680.988 242.033,887.204Z" style="fill:#f4d758;fill-rule:nonzero;"/><path d="M20412.2,38214.4c-107.287,0 -209.303,-3.25 -302.216,-10.89c-213.228,-17.401 -416.011,-44.922 -610.934,-82.089c3.924,-178.446 112.518,-341.249 358.456,-378.659c760.093,-115.759 1367.1,-561.738 1857.7,-1107.95c99.427,-109.878 214.567,-155.794 325.752,-155.794c359.765,0 689.441,474.13 374.171,824.516c-291.74,323.223 -633.2,623.17 -1013.89,860.684c-359.765,26.15 -697.301,50.179 -989.035,50.179Z" style="fill:#f4d758;fill-rule:nonzero;"/><path d="M21864.3,36408.6c-211.945,-0.121 -418.626,-164.682 -473.597,-354.127c-77.167,-267.29 94.189,-489.04 345.397,-581.764c518.059,-191.076 1058.35,-292.932 1614.35,-300.45c2.615,-0.121 6.545,-0.121 9.168,-0.121c629.27,0 625.34,937.14 -9.168,945.774c-472.258,6.385 -911.843,104.603 -1351.4,266.781c-44.488,16.389 -90.29,23.907 -134.753,23.907Z" style="fill:#f4d758;fill-rule:nonzero;"/><path d="M26508.6,36585.4c-167.464,0 -327.061,-74.954 -421.256,-228.626c-129.515,-211.472 -62.792,-531.827 177.908,-647.076c100.734,-48.039 201.469,-95.714 296.972,-153.654c13.092,-8.264 88.95,-62.445 92.881,-62.445c1.307,0 -3.931,5.499 -22.235,19.887c43.187,-34.536 85.027,-70.448 125.591,-108.101c96.805,-90.353 225.012,-136.409 351.911,-136.409c109.902,0 218.497,34.032 308.756,102.983c45.77,183.333 95.496,365.647 146.505,546.961c-23.536,57.073 -60.171,110.12 -108.563,155.188c-204.092,190.33 -439.579,330.845 -693.371,452.224c-81.128,39.302 -168.771,59.068 -255.099,59.068Z" style="fill:#f4d758;fill-rule:nonzero;"/><path d="M25447.6,34423.6c-371.523,0 -705.129,-474.252 -370.24,-815.379c470.975,-479.527 1132.95,-830.901 1840.7,-1001.71c35.326,316.845 77.199,632.568 126.899,945.023c-491.901,141.406 -947.168,398.564 -1267.68,725.534c-102.049,103.245 -217.158,146.536 -329.683,146.536Z" style="fill:#f4d758;fill-rule:nonzero;"/><path d="M23090.1,47739.2c-73.268,-203.469 -129.515,-417.464 -167.463,-643.076c209.335,149.786 290.426,446.234 167.463,643.076Z" style="fill:#f4d758;fill-rule:nonzero;"/><path d="M24127.6,49258.8c-243.348,-219.476 -460.505,-465.381 -642.368,-737.662c304.832,-161.432 603.112,-338.502 901.398,-516.809c86.328,-51.937 172.663,-74.468 252.477,-74.468c422.563,0 699.891,620.563 245.938,891.103c-249.868,149.652 -501.037,297.818 -757.445,437.836Z" style="fill:#f4d758;fill-rule:nonzero;"/><path d="M25643.9,46517.8c-384.614,0 -724.773,-475.264 -368.932,-803.877c345.39,-318.724 762.715,-532.319 1187.89,-736.042c82.437,-39.169 170.073,-59.056 256.408,-59.056c166.149,0 325.752,74.959 419.941,228.734c129.514,211.364 64.1,531.701 -177.902,646.956c-346.704,165.932 -705.16,328.231 -986.418,588.003c-103.357,95.229 -218.466,135.282 -330.991,135.282Z" style="fill:#f4d758;fill-rule:nonzero;"/><path d="M29579,45582.3c-427.795,0 -707.777,-622.679 -248.586,-888.089c532.466,-307.708 1049.22,-637.94 1581.68,-945.769c86.335,-49.815 171.387,-71.46 251.176,-71.46c426.487,0 706.469,622.684 248.586,888.095c-532.466,307.701 -1050.53,638.061 -1582.99,945.768c-86.329,49.797 -170.073,71.455 -249.862,71.455Z" style="fill:#f4d758;fill-rule:nonzero;"/><path d="M27067.2,48738.2c-35.326,0 -71.96,-1.128 -107.28,-3.25c-183.146,-202.595 -211.951,-547.47 96.804,-730.664c520.682,-310.333 951.093,-742.427 1382.82,-1155.5c102.042,-98.235 218.465,-139.405 329.676,-139.405c379.377,0 718.227,474.761 368.901,808.128c-138.645,132.511 -277.328,265.653 -418.627,396.546c-104.671,-109.368 -251.176,-177.822 -391.167,-177.822c-145.197,0 -282.566,72.837 -362.386,248.531c-167.457,373.026 -355.835,729.918 -821.578,751.685c-24.85,1.249 -51.008,1.752 -77.167,1.752Z" style="fill:#f4d758;fill-rule:nonzero;"/><path d="M26315,50412.5c-302.21,-86.091 -595.252,-191.706 -876.548,-317.348c11.791,-10.265 23.575,-20.651 34.019,-31.159c96.811,-90.341 225.043,-136.391 351.942,-136.391c126.893,0 252.478,45.043 347.98,136.391c98.119,93.731 146.537,221.871 142.607,348.507Z" style="fill:#f4d758;fill-rule:nonzero;"/><path d="M24560.6,38517.9c-448.715,-330.984 -1119.83,-419.198 -1830.23,-419.198c-177.901,0 -357.142,5.378 -536.357,14.024c412.08,-269.933 852.973,-402.687 1368.42,-447.246c538.98,-46.789 1055.76,-38.543 1516.23,-348.124c88.983,-59.941 177.933,-85.971 260.338,-85.971c401.643,0 667.219,613.912 239.418,902.726c-312.655,209.848 -655.429,322.599 -1017.82,383.789Z" style="fill:#f4d758;fill-rule:nonzero;"/><path d="M23647.5,46710.8c-43.149,0 -86.335,-5.639 -130.823,-17.395c-247.246,-64.816 -434.347,-338.121 -345.365,-581.625c164.842,-453.74 455.268,-822.898 938.001,-992.328c44.494,-15.521 88.95,-22.64 133.445,-22.64c213.227,0 418.633,160.663 474.873,352.873c75.891,264.282 -92.881,492.907 -345.358,581.624c31.396,-10.877 43.18,-15.012 44.488,-15.012c3.93,0 -57.586,24.022 -71.954,32.917c-7.861,4.626 -13.099,8.507 -18.337,11.635c-23.542,20.275 -45.77,41.169 -66.722,64.07c-5.206,5.129 -9.136,9.756 -13.06,13.515c-34.018,49.554 -66.723,100.607 -94.195,154.666c-5.238,10.768 -9.162,19.014 -11.784,25.017c-5.238,14.897 -11.784,29.91 -16.99,45.062c-73.268,203.347 -257.722,347.621 -476.219,347.621Z" style="fill:#f4d758;fill-rule:nonzero;"/><path d="M27093.3,49680.1c-506.302,0 -1009.96,-154.035 -1500.55,-244.007c-590.021,-107.876 -388.545,-921.879 156.98,-921.879c34.019,0 69.345,3.128 105.979,9.883c357.149,65.573 732.595,189.456 1104.15,210.86c35.32,2.122 71.954,3.249 107.28,3.249c26.159,0 52.317,-0.503 77.167,-1.752c465.743,-21.767 654.121,-378.659 821.578,-751.685c79.82,-175.694 217.189,-248.531 362.386,-248.531c139.991,0 286.496,68.454 391.167,177.822c130.823,136.652 194.923,337.247 100.734,548.095c-279.949,622.424 -745.693,1123.22 -1479.63,1204.68c-82.404,9.137 -164.841,13.26 -247.245,13.26Z" style="fill:#f4d758;fill-rule:nonzero;"/><path d="M30786.6,47000.2c-176.625,0 -362.387,-101.855 -447.407,-240.387c-147.851,-242.759 -36.634,-491.283 177.901,-646.944c372.863,-271.304 714.297,-579.636 1087.16,-851.17c68.03,-49.306 147.812,-70.709 228.941,-70.709c177.901,0 362.387,101.734 447.407,240.266c149.159,242.88 36.634,491.404 -176.593,647.077c-372.863,271.171 -714.329,579.745 -1088.47,851.17c-68.03,49.173 -146.536,70.697 -228.941,70.697Z" style="fill:#f4d758;fill-rule:nonzero;"/><path d="M27901.9,46596.5c-300.902,0 -600.496,-229.007 -480.111,-579.375c200.161,-582.007 351.904,-1149 279.943,-1765.8c-19.606,-163.294 37.949,-282.042 134.753,-356.753c82.437,46.923 181.863,73.074 281.296,73.074c108.563,0 217.158,-32.274 295.632,-104.36c141.299,70.697 253.824,200.334 276.052,388.039c82.437,691.757 -88.95,1363.98 -313.968,2017.18c-78.507,228.88 -276.052,327.989 -473.597,327.989Z" style="fill:#f4d758;fill-rule:nonzero;"/><path d="M28117.7,43967.7c-99.433,0 -198.86,-26.151 -281.297,-73.074c-32.704,-18.65 -62.792,-40.539 -88.95,-65.44c-206.714,-197.218 -168.765,-467.758 0,-668.723c210.611,-252.15 599.188,-367.903 907.912,-461.252c362.387,-109.616 733.941,-192.834 1089.78,-322.356c62.793,-23.022 121.661,-33.408 176.594,-33.408c464.435,0 613.594,752.813 86.366,945.265c-296.972,108.501 -607.042,180.453 -910.528,269.309c-211.951,61.802 -541.634,140.515 -651.536,271.165c-10.444,12.254 -20.92,23.646 -32.704,34.154c-78.475,72.085 -187.07,104.36 -295.632,104.36Z" style="fill:#f4d758;fill-rule:nonzero;"/><path d="M33158.3,45480.2c-347.98,0 -660.634,-395.188 -446.099,-716.276c218.466,223.738 440.893,443.347 668.527,658.087c-71.961,40.284 -147.851,58.189 -222.428,58.189Z" style="fill:#f4d758;fill-rule:nonzero;"/><path d="M18664.4,29163.5c-160.943,0 -323.162,-18.39 -488.003,-60.935c-31.396,-8.004 -60.177,-18.02 -86.335,-29.661c230.249,-294.818 473.597,-580.249 726.081,-860.672c431.725,-46.298 894.846,-296.066 1259.82,-430.839c540.319,-199.728 1089.78,-366.654 1670.63,-366.654c40.564,0 81.122,0.886 121.687,2.383c626.622,25.278 637.098,946.272 24.85,946.272c-7.854,0 -17.022,-0.121 -24.85,-0.503c-28.806,-1.128 -57.587,-1.759 -86.361,-1.759c-537.672,0 -1053.14,200.595 -1565.96,401.196c-512.822,200.595 -1023.05,401.172 -1551.56,401.172Z" style="fill:#f4d758;fill-rule:nonzero;"/><path d="M20651.6,33100.8c-487.971,0 -647.574,-766.334 -102.048,-938.147c213.227,-67.077 430.416,-87.225 650.19,-87.225c166.149,0 332.298,11.52 498.447,22.913c167.464,11.502 333.613,22.9 499.762,22.9c177.901,0 353.218,-13.017 527.189,-53.192c44.495,-10.386 87.675,-15.255 128.207,-15.255c524.606,0 709.091,794.219 134.753,927.239c-265.576,61.451 -532.434,83.218 -801.933,83.218c-119.039,0 -239.424,-4.245 -358.463,-11.254c-188.377,-11.017 -387.23,-34.663 -582.16,-34.663c-147.845,0 -294.35,13.763 -433.033,57.315c-57.554,17.887 -111.217,26.151 -160.911,26.151Z" style="fill:#f4d758;fill-rule:nonzero;"/><path d="M24530.5,32423.6c-167.457,0 -325.746,-74.086 -419.941,-228.261c-129.515,-210.338 -64.101,-533.077 176.625,-646.937c423.871,-199.607 862.116,-368.031 1285.98,-567.498c82.436,-38.798 170.079,-58.686 256.414,-58.686c166.149,0 325.778,74.208 419.973,228.365c128.2,210.235 64.1,533.083 -177.94,646.956c-422.557,199.467 -860.834,367.89 -1284.7,567.491c-82.405,38.786 -171.356,58.57 -256.414,58.57Z" style="fill:#f4d758;fill-rule:nonzero;"/><path d="M24537,35550.4c-269.506,0.127 -494.523,-215.104 -494.523,-472.754c0,-258.032 225.017,-472.772 494.523,-472.893c268.192,-0.243 506.301,-2.996 758.785,-77.828c43.149,-12.769 87.643,-18.771 130.823,-18.771c214.536,0 418.633,147.408 477.495,349.131c73.269,254.515 -88.95,505.416 -345.364,581.746c-330.984,98.115 -677.688,111.248 -1021.74,111.369Z" style="fill:#f4d758;fill-rule:nonzero;"/><path d="M27355,35116.1c-244.655,-131.899 -294.356,-465.878 -151.781,-684.99c47.11,229.498 98.119,458.123 151.781,684.99Z" style="fill:#f4d758;fill-rule:nonzero;"/></g></g></svg>