<?xml version="1.0" encoding="UTF-8" standalone="no"?><!DOCTYPE svg PUBLIC "-//W3C//DTD SVG 1.1//EN" "http://www.w3.org/Graphics/SVG/1.1/DTD/svg11.dtd"><svg width="100%" height="100%" viewBox="0 0 69446 69446" version="1.1" xmlns="http://www.w3.org/2000/svg" xmlns:xlink="http://www.w3.org/1999/xlink" xml:space="preserve" xmlns:serif="http://www.serif.com/" style="fill-rule:evenodd;clip-rule:evenodd;stroke-linejoin:round;stroke-miterlimit:2;"><g><g><path d="M34223,69393.1c-18087.4,0 -32750.2,-14826.4 -32750.2,-33115.7c0,-18289.5 14662.7,-33115.7 32750.2,-33115.7c18087.4,0 32750.2,14826.2 32750.2,33115.7c0,18289.3 -14662.7,33115.7 -32750.2,33115.7Zm-2884.65,-65151.2c-15550.3,0 -28155.9,12746.3 -28155.9,28470c0,15723.5 12605.6,28470.2 28155.9,28470.2c3512.62,0 6874.27,-650.14 9975.07,-1838.46c5968.37,-1873.75 10934.6,-6050.71 13881,-11503.2c2723.92,-4382.78 4299.77,-9569.95 4299.77,-15128.4c0,-15723.6 -12605.8,-28470 -28155.8,-28470l0.017,-0.029Z" style="fill:#363665;fill-rule:nonzero;"/><path d="M31338.4,61182.1c-15550.3,0 -28155.9,-12746.7 -28155.9,-28470.2c0,-15723.6 12605.6,-28470 28155.9,-28470c15550,0 28155.8,12746.3 28155.8,28470c0,5558.52 -1575.85,10745.7 -4299.77,15128.4c1851.38,-3425.89 2905.86,-7356.96 2910.8,-11535l0,-93.354c0,-11228.7 -7579.27,-20666.5 -17846.7,-23370.1c-3.386,20.575 -6.641,41.167 -9.61,61.898c-1833.57,-482.031 -3752.8,-749.188 -5729.89,-773.492c-2.684,0 -5.517,0 -8.196,-0.138c-12.87,-0.162 -25.449,-0.3 -38.313,-0.3c-2.97,-0.138 -5.939,-0.138 -9.051,-0.138c-30.397,-0.283 -60.223,-0.577 -90.899,-0.715c-3.961,0 -7.774,-0.144 -11.878,-0.144c-11.166,0 -22.052,-0.138 -33.218,-0.138l-14.277,0c-10.465,-0.139 -21.773,-0.139 -32.232,-0.139l-13.292,0c-14.557,0 -30.111,-0.155 -44.674,-0.155c-5461.26,0 -10494.9,1853.88 -14518.1,4972.88c-79.311,37.582 -159.187,78.611 -239.057,122.931c-5556.55,4421.52 -9124.85,11283.1 -9124.85,18987.7l0,65.189c0,13282.4 10604.4,24060.1 23719.7,24148l0.991,0c12.015,0.144 24.458,0.144 36.615,0.283l4.241,0c11.308,0 21.488,0.155 32.796,0.155l7.917,0c9.615,0 19.367,0.138 29.125,0.138l101.221,0c7.495,0 15.976,-0.138 23.328,-0.138l15.971,0c6.646,0 14.563,-0.155 21.066,-0.155l15.549,0c7.352,-0.139 14.842,-0.139 22.194,-0.139c4.805,0 10.607,-0.144 15.412,-0.144c7.353,0 14.278,-0.138 21.625,-0.138c4.81,0 10.464,-0.139 15.269,-0.139c7.353,0 14.705,-0.155 22.058,-0.155c5.654,-0.138 10.032,-0.138 15.549,-0.138c7.347,-0.145 14.562,-0.145 21.909,-0.283c4.811,0 10.038,-0.138 14.848,-0.138c7.347,-0.138 14.842,-0.138 22.195,-0.3c5.654,0 10.037,-0.138 15.691,-0.138c7.352,-0.138 13.856,-0.138 21.203,-0.277c4.81,-0.138 10.886,-0.138 15.691,-0.299c7.352,0 14.283,-0.139 21.636,-0.277c5.654,-0.138 10.031,-0.138 15.691,-0.283c11.73,-0.155 24.6,-0.432 36.33,-0.576c3.106,0 5.796,-0.138 8.909,-0.138c9.609,-0.156 17.669,-0.294 27.284,-0.577c5.511,0 11.308,-0.138 16.825,-0.293c7.347,-0.139 13.144,-0.283 20.496,-0.421c6.356,-0.138 10.602,-0.138 17.105,-0.277c6.504,-0.161 12.437,-0.299 19.083,-0.438c6.361,-0.138 11.735,-0.276 18.239,-0.438c6.503,-0.138 12.436,-0.276 19.082,-0.415c6.367,-0.144 12.021,-0.299 18.524,-0.438c5.084,-0.138 12.015,-0.276 17.247,-0.421c6.361,-0.293 13.429,-0.432 19.79,-0.576c5.933,-0.138 11.593,-0.276 17.389,-0.432c6.504,-0.138 12.437,-0.421 18.941,-0.559c5.796,-0.156 12.299,-0.3 18.096,-0.438c6.361,-0.277 12.157,-0.438 18.518,-0.576c5.939,-0.139 12.864,-0.415 18.667,-0.577c6.355,-0.138 11.73,-0.276 18.233,-0.559c5.797,-0.155 11.029,-0.294 16.962,-0.432c6.367,-0.282 13.856,-0.421 20.36,-0.715c4.383,-0.144 9.757,-0.282 14.135,-0.42c13.713,-0.438 26.862,-0.871 40.433,-1.43c5.934,-0.161 10.887,-0.299 16.683,-0.576c7.21,-0.138 13.144,-0.438 20.211,-0.715c5.945,-0.144 10.465,-0.282 16.262,-0.576c7.916,-0.282 13.998,-0.421 22.057,-0.859c4.378,-0.138 9.61,-0.276 13.993,-0.432c7.21,-0.282 14.563,-0.559 21.767,-0.859c5.096,-0.276 10.18,-0.415 15.27,-0.576c6.36,-0.277 13.576,-0.559 20.074,-0.853c5.796,-0.277 10.886,-0.421 16.825,-0.715c7.068,-0.282 12.58,-0.42 19.79,-0.853c5.796,-0.144 10.744,-0.42 16.54,-0.72c6.504,-0.138 13.856,-0.576 20.217,-0.853c5.09,-0.138 10.459,-0.421 15.549,-0.576c7.21,-0.421 14.141,-0.715 21.351,-0.992c5.09,-0.282 10.316,-0.438 15.406,-0.72c7.068,-0.277 13.292,-0.576 20.502,-0.991c5.09,-0.139 10.037,-0.438 15.121,-0.715c7.21,-0.3 15.269,-0.715 22.343,-1.014c3.67,-0.139 6.64,-0.277 10.316,-0.559c7.917,-0.294 17.954,-0.871 25.871,-1.153c0.707,-0.138 1.556,-0.138 2.263,-0.138c33.503,-1.712 65.033,-3.297 98.393,-5.147c1.414,-0.138 3.392,-0.138 4.805,-0.277c8.766,-0.438 17.954,-1.014 26.72,-1.435c3.534,-0.294 6.219,-0.432 9.895,-0.576c8.766,-0.432 17.247,-0.991 26.013,-1.429c2.964,-0.139 6.361,-0.438 9.331,-0.577c8.766,-0.42 16.82,-0.991 25.443,-1.429c3.676,-0.282 7.775,-0.421 11.451,-0.715c8.623,-0.42 16.261,-0.997 25.021,-1.435c2.833,-0.276 6.789,-0.415 9.621,-0.553c8.761,-0.576 17.949,-1.153 26.715,-1.729c2.969,-0.138 5.654,-0.282 8.624,-0.421c8.623,-0.576 18.94,-1.291 27.563,-1.729c2.269,-0.138 4.241,-0.276 6.367,-0.415c10.316,-0.714 19.367,-1.291 29.684,-2.005c0.706,0 3.254,-0.144 3.961,-0.144c80.012,-5.147 160.03,-10.714 239.763,-16.714l0.427,0c11.73,-1.014 22.189,-1.729 33.925,-2.582l0.992,-0.144c1821.27,-138.809 3584.71,-484.019 5269.14,-1012.93c-3100.81,1188.32 -6462.41,1838.46 -9975.07,1838.46l0.017,0.023Z" style="fill:#404872;fill-rule:nonzero;"/><path d="M58105.1,36277.4c0,13336.9 -10692.4,24148.5 -23882.2,24148.5c-13189.7,0 -23882,-10811.7 -23882,-24148.5c0,-13337 10692.4,-24148.7 23882,-24148.7c13189.8,0 23882.2,10811.7 23882.2,24148.7Z" style="fill:#7d0d98;fill-rule:nonzero;"/><path d="M51373.2,42597c1115.55,-1459.65 3429.35,-5151.27 5449.67,-5508.05c586.543,-103.653 997.929,-73.765 1264.98,61.892c10.322,-290.05 17.241,-580.935 17.241,-873.41c0,-3778.39 -858.817,-7353.79 -2389.01,-10538.5c-3239.49,1079.1 -8149.41,900.717 -10032.6,3326.67c-1361.25,1753.53 -1131.38,3974.94 -2558.23,5817.82c-1707.04,2204.7 -4201.23,3058.37 -6514.62,4392.08c-1245.47,717.882 -6501.74,3041.2 -6424.97,4626.78c137.414,2845.24 5745.97,1158.89 7082.65,405.396c2837.29,-1598.86 9923.78,-12695 13150.7,-11692.1c6174.07,1918.94 -4927.16,10204.8 -6722.83,11270.6c-4718.93,2801.07 -9913.12,5324.8 -15403.7,4554.17c-4759.36,-668.127 -9369.6,-312.485 -12040.9,3739.8c2189.54,2527.9 4892.25,4589.2 7943.88,6018.84c824.323,-364.09 1551.81,-743.459 2102.45,-1086.26c5583.83,-3478.33 12412.8,-3975.94 18023,-7708.46c2772.83,-1845.02 5067.69,-4210.52 7052.39,-6807.14l-0.097,-0.047Z" style="fill:#be2ab2;fill-rule:nonzero;"/><path d="M22319,39381.8c4513.8,-2093.45 9928.11,-499.021 14387.1,-2862.67c4395.05,-2329.89 4839.37,-8330.44 8248.52,-11766.7c976.299,-984.053 4113.15,-3167.43 7151.62,-4478.4c-1111.59,-1269.09 -2352.82,-2419.1 -3703.32,-3428.46c-188.87,23.433 -374.913,47.166 -555.867,73.182c-3316.39,476.446 -6386.55,1671.63 -9053.32,3954.36c-2735.08,2341.21 -4032.72,6061.72 -6974.93,8111.03c-4607.39,3209.31 -11083.8,1144.43 -14894.5,5873.14c-2050.57,2544.75 -3243.45,5886.74 -5286.39,8531.4c-57.253,74.059 -116.912,146.526 -174.872,220.285c444.61,1412.47 1013.9,2768.46 1695.59,4054.99c96.695,-42.02 193.111,-83.481 290.091,-128.36c3904.92,-1807.44 4994.6,-6356.28 8870.25,-8153.74l0.012,-0.023Z" style="fill:#be2ab2;fill-rule:nonzero;"/><path d="M50482.9,48125.4c-3920.05,2480 -7980.18,5570.25 -12252.8,8005.5c-2980.22,1698.64 -6048.22,2597.07 -9035.54,3757.23c1621.51,351.227 3303.25,537.917 5028.39,537.917c12063.7,0 22036.3,-9045.03 23651.6,-20793.6c-1635.93,3016.62 -6102.65,7677.46 -7391.69,8492.96l0.045,-0.052Z" style="fill:#be2ab2;fill-rule:nonzero;"/><path d="M11389.4,35150.3c1737.15,-2603.23 2012.26,-5555.52 4073.15,-8094.26c5115.89,-6301.82 12550.5,-3485.78 18600.3,-8191.31c2554.56,-1986.84 4221.31,-4213.38 6189.17,-5959.19c-1926.03,-506.616 -3946.2,-776.788 -6029.01,-776.788c-13189.7,0 -23882,10811.7 -23882,24148.7c0,41.167 1.271,82.052 1.556,123.213c401.771,-400.681 758.588,-818.37 1046.84,-1250.36l0.017,-0.029Z" style="fill:#be2ab2;fill-rule:nonzero;"/><path d="M58105.1,36244.8l0,-23.013c-0.137,-9.002 -0.137,-19.439 -0.137,-28.442l0,-15.307c-0.142,-8.864 -0.142,-17.728 -0.142,-26.575c0,-5.584 -0.143,-10.869 -0.143,-16.454c0,-8.846 -0.142,-16.575 -0.142,-25.583c0,-5.723 -0.137,-11.29 -0.137,-17.013c0,-9.003 -0.143,-17.29 -0.143,-26.154c-0.142,-4.853 -0.142,-10.299 -0.142,-15.146c-0.143,-9.723 -0.285,-19.595 -0.285,-29.318c-0.137,-4.132 -0.137,-8.57 -0.137,-12.72c-0.143,-13.002 -0.285,-26.874 -0.427,-39.87c0,-0.438 -0.137,-1.014 -0.137,-1.435c-0.143,-14.587 -0.285,-29.018 -0.565,-43.605l0,-2.565c-0.142,-12.863 -0.427,-27.168 -0.57,-40.17c-0.142,-2.426 -0.142,-4.87 -0.142,-7.435c-0.143,-11.428 -0.427,-23.727 -0.564,-35.017c-0.143,-3.003 -0.143,-6.144 -0.143,-9.147c-0.285,-11.446 -0.422,-23.174 -0.707,-34.464c0,-2.859 -0.142,-5.562 -0.142,-8.288c-0.279,-12.143 -0.422,-22.874 -0.707,-35.018c-0.137,-2.57 -0.137,-5.152 -0.137,-7.717c-0.285,-12.875 -0.706,-27.168 -0.991,-40.17l0,-1.147c-253.477,-10978.2 -7753.28,-20144.7 -17849.6,-22799c2.97,-20.73 6.224,-41.323 9.61,-61.898c10267.4,2703.57 17846.7,12141.4 17846.7,23370.1l0,32.592l-0.006,-0.006Z" style="fill:#5c7895;fill-rule:nonzero;"/><path d="M29300.1,59847.3c-1757.51,-372.395 -3442.78,-939.751 -5035.03,-1679.36c795.624,-354.65 1497.81,-722.175 2032.9,-1055.39c2678.68,-1668.76 5644.48,-2651.53 8624.25,-3634.43c321.189,16.576 642.383,25.002 963.15,25.002c1535.13,0 3055.71,-190.691 4476.9,-568.63c5499.15,-1462.51 8615.93,-4809.48 9905.08,-8955.81c379.44,-451.859 747.85,-913.021 1105.94,-1381.73c1115.55,-1459.65 3429.35,-5151.27 5449.67,-5508.06c237.642,-42.038 446.445,-62.053 628.669,-62.053c267.184,0 476.978,43.172 635.88,123.645c-31.947,845.262 -106.733,1678.78 -222.51,2499.6c-1643.72,3017.18 -6095.58,7661.26 -7382.06,8475.21c-3920.05,2480 -7980.18,5570.25 -12252.8,8005.5c-2945.16,1678.62 -5976.12,2575.77 -8930.03,3716.5l0.028,0Zm-13024.7,-7703.16c-1189.2,-1368.71 -2228.27,-2875.53 -3089.92,-4491.98c87.65,-38.021 175.299,-75.903 263.234,-116.65c3904.92,-1807.44 4994.6,-6356.28 8870.25,-8153.74c241.883,-112.061 486.594,-213.841 733.287,-306.048c-471.187,3232.34 -614.54,6474.83 1002.6,9113.61c-3125.41,137.518 -5917.87,1158.44 -7779.44,3954.79l0,0.012Zm34643.8,-14608.1c-122.002,-1643.05 -437.251,-3320.39 -921.872,-4984.44c147.171,1.429 287.406,22.16 421.708,63.898c2652.24,824.237 2116.45,2823.51 500.164,4920.54Zm7185.99,-1289.39l0,-10.852l0,10.852Zm0,-24.862c-0.137,-9.723 -0.137,-18.725 -0.137,-28.442c0,9.002 0,19.439 0.137,28.442Zm-0.137,-43.75c-0.142,-8.702 -0.142,-17.866 -0.142,-26.574c0,8.846 0,17.71 0.142,26.574Zm-0.285,-43.028c0,-8.426 -0.142,-16.996 -0.142,-25.584c0,9.008 0.142,16.737 0.142,25.584Zm-0.279,-42.597c0,-8.864 -0.143,-17.428 -0.143,-26.154c0,8.864 0.143,17.152 0.143,26.154Zm-0.285,-41.3c-0.143,-9.861 -0.285,-19.439 -0.285,-29.318c0,9.723 0.142,19.596 0.285,29.318Zm-0.422,-42.037c-0.143,-13.296 -0.285,-26.575 -0.428,-39.871c0.143,12.997 0.285,26.869 0.428,39.871Zm-0.564,-41.306c-0.143,-14.725 -0.285,-29.018 -0.565,-43.605c0.28,14.587 0.422,29.018 0.565,43.605Zm-0.565,-46.169c-0.142,-13.296 -0.427,-26.875 -0.57,-40.171c0.143,13.002 0.428,27.307 0.57,40.171Zm-0.712,-47.605c-0.143,-11.723 -0.427,-23.295 -0.564,-35.018c0.137,11.29 0.421,23.589 0.564,35.018Zm-0.707,-44.164c-0.285,-11.585 -0.422,-23.013 -0.707,-34.465c0.285,11.29 0.422,23.019 0.707,34.465Zm-0.849,-42.752c-0.279,-11.723 -0.422,-23.296 -0.707,-35.018c0.285,12.143 0.428,22.874 0.707,35.018Zm-0.844,-42.735c-0.285,-13.434 -0.564,-26.592 -0.991,-40.17c0.285,13.002 0.706,27.295 0.991,40.17Zm-0.991,-41.317c-82.281,-3566.54 -929.932,-6941.25 -2382.37,-9964.16c-2301.93,766.772 -5446.98,898.567 -7750.49,1780.98c-650.442,-1191.33 -1412.99,-2336.05 -2206.92,-3467.34c1395.74,-1105.12 3903.36,-2724.01 6347.34,-3778.53c-1111.59,-1269.09 -2352.82,-2419.1 -3703.32,-3428.46c-188.871,23.433 -374.914,47.166 -555.868,73.182c-2023,290.608 -3954.12,848.541 -5758.11,1757.83c-500.306,-845.683 -951.841,-1712.95 -1324.36,-2613.65c-502.57,-1215.49 -645.068,-2267.58 -516.283,-3154.01c1.271,-1.13 2.542,-2.282 3.819,-3.418c-1.135,-0.299 -2.126,-0.576 -3.255,-0.853c0.142,-0.161 0.142,-0.438 0.142,-0.576c10096.4,2654.25 17596.2,11820.7 17849.6,22799l0.023,-0.017Z" style="fill:#864fb0;fill-rule:nonzero;"/><path d="M24265.1,58167.9c-3068.86,-1425.62 -5787.69,-3489.5 -7989.65,-6023.8c1861.56,-2796.34 4654.04,-3817.27 7779.44,-3954.79c515.998,841.965 1211.39,1622.61 2132.56,2321.62c2402.58,1823.14 5562.34,2802.49 8734.82,2967.16c-2979.8,982.901 -5945.57,1965.67 -8624.25,3634.43c-535.087,333.217 -1237.28,700.742 -2032.9,1055.39l-0.028,-0.023Zm26002.3,-14189.3c622.594,-2002.12 818.959,-4189.81 651.856,-6442.67c1616.29,-2097.03 2152.07,-4096.31 -500.164,-4920.55c-134.302,-41.737 -274.537,-62.468 -421.709,-63.897c-346.358,-1189.76 -779.511,-2373.21 -1290.14,-3532.23c-224.493,-509.602 -473.307,-1008.35 -741.483,-1499.52c2303.48,-882.413 5448.54,-1014.21 7750.49,-1780.98c1452.43,3022.91 2300.09,6397.6 2382.37,9964.16l0,1.147c0.428,13.579 0.707,26.736 0.992,40.17c0,2.565 0,5.147 0.137,7.718c0.285,11.722 0.427,23.295 0.707,35.017c0,2.726 0.142,5.429 0.142,8.288c0.285,11.452 0.422,22.88 0.707,34.464c0,3.003 0,6.144 0.142,9.147c0.137,11.722 0.422,23.295 0.565,35.018c0,2.564 0,5.008 0.142,7.434c0.143,13.296 0.428,26.874 0.57,40.17l0,2.565c0.279,14.587 0.422,28.88 0.564,43.605c0,0.421 0.137,0.997 0.137,1.435c0.143,13.296 0.285,26.575 0.428,39.871c0,4.149 0,8.587 0.136,12.719c0,9.878 0.143,19.457 0.285,29.318c0,4.847 0,10.293 0.143,15.146c0,8.726 0.142,17.29 0.142,26.154c0,5.723 0.137,11.29 0.137,17.013c0,8.587 0.143,17.157 0.143,25.583c0,5.585 0.142,10.87 0.142,16.455c0,8.708 0,17.872 0.143,26.574l0,15.307c0,9.717 0,18.72 0.136,28.442l0,24.863c-0.421,302.769 -6.355,603.815 -17.669,903.857c-158.901,-80.472 -368.695,-123.645 -635.879,-123.645c-182.225,0 -391.027,20.016 -628.669,62.053c-2020.32,356.788 -4334.13,4048.41 -5449.67,5508.06c-358.088,468.711 -726.499,929.873 -1105.94,1381.73l-0.023,0.012Z" style="fill:#b463c2;fill-rule:nonzero;"/><path d="M11476.6,43591.8c-728.761,-2298.31 -1126.01,-4745.3 -1135.48,-7286.01c0.279,31.583 1.128,63.189 1.413,94.91c401.771,-400.682 758.588,-818.371 1046.84,-1250.36c915.791,-1372.45 1425.29,-2842.09 2004.34,-4296.87c-18.518,185.555 -28.84,361.382 -30.675,525.774c-23.324,2120.76 -10.18,4753.86 1365.2,6514.83c40.718,52.175 82.138,101.642 124.407,148.67c-1015.6,1813.28 -1953.03,3712.48 -3214.75,5345.94c-52.728,68.335 -107.581,135.236 -161.301,203.133l0,-0.017Z" style="fill:#864fb0;fill-rule:nonzero;"/><path d="M10341,36244.8l0,-32.591c0,-7704.6 3568.32,-14566.2 9124.85,-18987.7c79.87,-44.32 159.745,-85.349 239.057,-122.931c-5685.62,4407.78 -9354.04,11341.5 -9363.9,19143.2l-0.012,0.029Z" style="fill:#5c7895;fill-rule:nonzero;"/><path d="M19951.7,32511.7c-225.485,-1618.32 -513.741,-3225.05 249.373,-4562.6c1056.04,-1850.88 1786.36,-3687.34 1795.68,-5012.47c1388.53,-395.668 2821.74,-652.705 4260.75,-946.587c440.928,2802.05 -394.139,6113.01 -1300.04,9208.53c-1735.04,292.193 -3454.52,594.529 -5005.77,1313.12Z" style="fill:#864fb0;fill-rule:nonzero;"/><path d="M13185.5,47652.2c-686.35,-1287.67 -1260.31,-2645.82 -1708.88,-4060.43c53.72,-67.897 108.573,-134.797 161.301,-203.133c1261.73,-1633.46 2199.16,-3532.66 3214.75,-5345.94c472.6,526.616 1042.18,747.471 1627.03,747.471c1319.83,0.282 2719.68,-1122.57 3273.14,-2387.23c528.719,-1208.04 385.23,-2553.62 198.907,-3891.18c1551.25,-718.59 3270.74,-1020.93 5005.77,-1313.12c-633.765,2165.09 -1301.88,4224.97 -1592.54,5932.45c-109.702,644.273 -217.848,1294.53 -312.708,1944.66c-246.693,92.207 -491.403,193.986 -733.287,306.048c-3875.65,1797.44 -4965.34,6346.31 -8870.25,8153.74c-87.935,40.747 -175.584,78.629 -263.234,116.649l-0.006,0.029Zm32573.3,-23599.7c-1249.01,-1779.7 -2576.33,-3527.1 -3669.96,-5375.98c1804.02,-909.287 3735.13,-1467.22 5758.11,-1757.83c180.954,-26.015 366.997,-49.749 555.868,-73.182c1350.51,1009.36 2591.74,2159.36 3703.32,3428.46c-2444,1054.52 -4951.62,2673.41 -6347.34,3778.53l0.006,0Z" style="fill:#b463c2;fill-rule:nonzero;"/><path d="M34223,60360.8c-1687.25,0 -3334.49,-177.094 -4922.93,-513.596c2953.92,-1140.73 5984.9,-2037.88 8930.04,-3716.5c4272.62,-2435.26 8332.77,-5525.51 12252.8,-8005.5c1286.47,-813.939 5738.33,-5458.03 7382.06,-8475.21c-1650.64,11708.2 -11606.6,20710.8 -23642,20710.8l-0.005,0.011Z" style="fill:#b463c2;fill-rule:nonzero;"/><path d="M10342.6,36400.6c-0.285,-31.721 -1.134,-63.327 -1.413,-94.91c-0.143,-20.31 -0.143,-40.603 -0.143,-60.901c9.895,-7801.77 3678.3,-14735.5 9363.9,-19143.2c520.945,-246.6 1028.89,-351.803 1515.34,-351.803c2103.59,0 3797.9,1969.24 4323.23,2988.46c359.93,698.437 588.669,1454.36 714.062,2251.86c-1439,293.882 -2872.21,550.919 -4260.75,946.587c4.805,-685.993 -183.78,-1235.07 -620.33,-1577.85c-490.276,-384.821 -990.298,-556.786 -1488.91,-556.786c-3104.2,0 -6155.66,6661.39 -6493.82,10051.4c-579.048,1454.78 -1088.55,2924.42 -2004.34,4296.87c-288.256,431.988 -645.073,849.677 -1046.84,1250.36l0.017,-0.011Zm29905.7,-23491.8c0.142,-1.429 0.427,-2.859 0.564,-4.271c1.129,0.277 2.12,0.554 3.255,0.853c-1.277,1.136 -2.548,2.288 -3.819,3.418Z" style="fill:#b463c2;fill-rule:nonzero;"/><path d="M14852.7,38042.7c-42.269,-47.028 -83.689,-96.494 -124.407,-148.669c-1375.38,-1760.97 -1388.53,-4394.07 -1365.21,-6514.83c1.836,-164.392 12.158,-340.219 30.676,-525.774c519.253,-1304.54 1094.49,-2597.07 2068.81,-3797.4c1917.26,-2361.64 4160.65,-3442.89 6534.23,-4119.33c-9.33,1325.13 -739.647,3161.59 -1795.68,5012.47c-763.113,1337.55 -474.857,2944.28 -249.372,4562.6c-1115.13,516.478 -2142.89,1247.93 -3027.44,2345.48c-784.18,973.046 -1442.82,2062.88 -2071.64,3185.45l0.029,-0.006Z" style="fill:#8d7dc0;fill-rule:nonzero;"/><path d="M16479.7,38790.2c-584.844,0 -1154.42,-220.855 -1627.03,-747.47c628.818,-1122.58 1287.46,-2212.41 2071.64,-3185.45c884.551,-1097.55 1912.31,-1829 3027.44,-2345.48c186.323,1337.55 329.812,2683.13 -198.908,3891.17c-553.462,1264.66 -1953.31,2387.51 -3273.14,2387.23Z" style="fill:#ad8bcd;fill-rule:nonzero;"/><path d="M13393.7,30853.4c338.156,-3390 3389.62,-10051.4 6493.82,-10051.4c498.614,0 998.636,171.965 1488.91,556.786c436.55,342.777 625.136,891.852 620.331,1577.85c-2373.61,676.438 -4617,1757.69 -6534.23,4119.33c-974.321,1200.33 -1549.56,2492.86 -2068.81,3797.4l-0.023,0Z" style="fill:#ad8bcd;fill-rule:nonzero;"/></g></g></svg>