<?xml version="1.0" encoding="UTF-8" standalone="no"?><!DOCTYPE svg PUBLIC "-//W3C//DTD SVG 1.1//EN" "http://www.w3.org/Graphics/SVG/1.1/DTD/svg11.dtd"><svg width="100%" height="100%" viewBox="0 0 69446 69446" version="1.1" xmlns="http://www.w3.org/2000/svg" xmlns:xlink="http://www.w3.org/1999/xlink" xml:space="preserve" xmlns:serif="http://www.serif.com/" style="fill-rule:evenodd;clip-rule:evenodd;stroke-linejoin:round;stroke-miterlimit:2;"><g><g><path d="M7728.03,33922c-229.106,-371.143 -1364.11,-569.616 -1723.67,-269.928c-666.531,553.738 -509.776,1591.74 -501.564,2617.84c-1148.85,-1569.91 -2998.1,569.617 -2639.7,2736.92c-1014.8,-523.96 -2719.61,889.156 -2796.32,2715.09c-94.286,2238.75 2211.51,3635.99 3180,2119.68c743.5,3457.37 5571.97,3336.3 5736.55,-567.633c818.669,2129.6 2614.42,3487.14 4198.27,3554.63c1158.47,49.618 4878.76,-2431.28 3596.65,-4963.77c1359.74,33.74 3286.6,-1085.64 2879.19,-3894.01c-435.757,-3002.87 -2691.01,-1768.38 -3870.26,-1675.1c518.625,-1625.48 -1641.57,-2427.3 -2339.14,-2639.66c-1189.13,-363.207 -2248.71,-7.942 -3281.6,1004.26c216.791,-2476.92 -2978.48,-2534.47 -2811.2,-3.968c151.112,-33.74 246.292,-156.791 372.776,-283.816l0,-450.527l0.021,0Z" style="fill:#204e84;fill-rule:nonzero;"/><path d="M60787,50311.6c173.692,434.655 1255.96,1000.3 1648.24,823.66c727.072,-325.492 715.14,-1389.3 846.502,-2395.55c909.616,1909.29 3008.62,420.755 2953.2,-1816.01c920.65,843.5 2779.65,17.862 3103.03,-1742.58c396.633,-2157.39 -1667.09,-4275.07 -2820.44,-3108.07c-256.299,-3622.1 -4992.94,-5076.9 -5685,-1315.86c-510.545,-2347.92 -2081.31,-4259.19 -3620.25,-4840.72c-1126.02,-426.713 -5100.58,787.93 -4191.85,3681.64c-1324.6,-476.326 -3360.62,-9.927 -3344.33,2867.91c17.446,3078.29 2389.94,2605.93 3555.47,2899.66c-728.23,1419.07 1274.31,2907.6 1927.5,3342.26c1113.07,742.28 2197.27,738.312 3344.71,87.327c-549.028,2349.9 2566.96,3445.45 2747.7,918.923c-152.133,-15.878 -262.07,73.432 -403.178,156.785l-61.315,440.607l-0.004,0Z" style="fill:#204e84;fill-rule:nonzero;"/><path d="M60041.5,35378.8c0,18517.3 -9702.29,33527.7 -21670.4,33527.7c-11968.2,0 -21670.3,-15010.4 -21670.3,-33527.7c0,-18517.3 9702.16,-33527.7 21670.3,-33527.7c11968.2,0 21670.4,15010.4 21670.4,33527.7Z" style="fill:#97fc68;fill-rule:nonzero;"/><path d="M24068.8,50379.4c0,-18517.3 9702.16,-33529.7 21670.3,-33529.7c4533.61,0 8741.35,2155.4 12220.2,5839.02c-3031.46,-12859 -11004.7,-22038.3 -20363.9,-22038.3c-11968.2,0 -21670.3,15010.4 -21670.3,33527.7c0,11503.4 3744.68,21651.2 9450.2,27690.7c-845.092,-3584.39 -1306.51,-7452.62 -1306.51,-11489.5l0.026,0.107Z" style="fill:#b6fc8d;fill-rule:nonzero;"/><path d="M42975,56627c-1344.09,0 -2808.38,-424.729 -4174.02,-1220.6c-646.905,-1385.33 -656.656,-3143.78 223.203,-4503.31c180.1,29.773 368.411,39.699 568.265,45.651l34.639,0c811.996,0 2074.76,-587.479 2814.79,-1667.16c57.21,1.984 114.164,1.984 170.994,1.984c656.267,0 1289.57,-107.173 1831.81,-287.778c2215.99,-730.375 4071.28,-3205.31 4201.34,-6902.81c17.194,-490.22 -5.254,-972.51 -57.98,-1448.84c183.823,1182.89 1071.63,2244.71 1751.76,2635.7c245.651,142.897 490.018,206.409 727.717,206.409c38.098,0 76.067,-1.984 113.784,-3.974c270.149,2036.32 218.71,4104.39 -257.966,6017.65c-1576.02,3062.41 -3620.63,5543.3 -5510.28,6557.5c-718.099,385.037 -1552.16,569.616 -2438.04,569.616l-0.009,-0.031Zm-18285.9,-13779.9c2.052,-121.073 -4.749,-234.198 -19.498,-341.37c63.751,-410.842 132.769,-819.693 206.271,-1222.59c-67.603,452.511 0.256,855.41 297.858,1115.41l-484.631,448.549Zm19958.8,-1353.58c-343.018,-416.793 -737.857,-712.513 -1099.98,-712.513c-183.947,0 -359.558,75.422 -515.675,252.06c175.487,-2715.09 -1783.19,-3892.02 -3642.18,-3892.02c-1115.76,0 -2195.34,422.745 -2756.94,1190.83c0.77,-119.083 -3.206,-234.192 -11.67,-345.339c766.712,-883.199 1610.53,-1528.23 2475.63,-2415.4c615.604,-361.217 1215.3,-843.5 1808.84,-1607.62c366.74,-470.38 751.831,-986.403 1114.22,-1548.07c201.008,267.932 410.869,541.822 625.351,829.606c421.907,563.658 840.86,1254.34 1200.68,2024.41c-523.883,1147.16 -164.838,2478.9 861.383,2574.17c13.214,65.49 25.786,130.987 37.713,196.483c-520.549,752.206 -352.761,1524.26 128.532,2125.62c-32.194,448.55 -105.059,891.141 -225.892,1327.77Zm-19739.9,-387.015c39.384,-212.367 79.918,-422.745 121.863,-633.122c16.296,23.814 32.711,47.628 49.135,69.458c-72.352,190.537 -131.229,381.069 -170.998,563.664Zm23655.5,-666.869c-11.799,-91.295 -24.76,-182.595 -38.611,-273.89c14.877,-57.554 27.706,-117.099 38.478,-180.611c-13.209,152.829 -12.568,303.662 0.133,454.501Zm-17504.1,-6861.13c-305.815,0 -658.704,-129.003 -1101.65,-430.675c-342.245,-234.204 -689.363,-543.818 -976.962,-910.987c581.354,-504.119 989.53,-1298 1035.45,-2385.63c315.565,819.686 776.211,1526.24 1314.08,2087.92c-8.208,519.992 23.473,1049.91 86.715,1575.86c-113.138,41.676 -231.41,63.506 -357.638,63.506Zm20519.9,-510.065c-360.075,-990.378 -1151.67,-1534.18 -1945.85,-1698.92c-64.392,-87.327 -135.842,-164.733 -217.299,-224.272c-219.612,-162.743 -513.243,-206.409 -810.841,-206.409c-270.539,0 -544.416,35.724 -769.153,51.602c-667.176,47.635 -1385.65,23.82 -2004.47,392.973c-88.13,-442.591 -139.954,-881.215 -133.794,-1299.99c25.781,-1772.35 987.991,-3370.05 2092.34,-3370.05c60.806,0 121.992,5.958 183.567,15.885c1696.34,271.899 3094.31,2355.85 4075.25,4888.34c-214.611,434.655 -376.367,924.874 -469.751,1450.83Zm-13225.8,-2306.24c-138.668,-146.865 -282.213,-275.867 -429.734,-383.046c215.764,-613.277 223.844,-1274.18 -112.626,-1939.06c20.015,0 40.022,1.978 60.165,1.978c375.084,0 789.287,-87.32 1183.61,-269.916c-84.022,907.013 -338.649,1816.01 -701.417,2590.05Zm15170.6,-5400.4c-263.613,-377.095 -541.722,-768.083 -835.473,-1202.73c-1840.14,-2721.04 -3037.49,-4672.01 -5792,-4674l-3.467,0c-1634.12,0 -3164.61,734.343 -4376.68,2181.2c-616.502,-1377.39 -1434.15,-2633.71 -2354.28,-3695.54c1429.14,-587.478 2915.24,-954.641 4444.18,-1075.71c592.644,609.309 1223.38,1105.49 1723.54,1468.69c2817.1,2042.27 6013.91,766.1 7029.61,6150.63c52.979,281.826 108.778,563.658 164.586,847.468l-0.017,0Z" style="fill:#6dd96f;fill-rule:nonzero;"/><path d="M21539.7,42902.8c-86.716,-226.262 -174.842,-456.485 -265.537,-692.667c-671.015,-1742.58 -1263.15,-2992.94 -1645.8,-4664.07c246.291,250.07 496.691,516.024 732.846,593.431c255.273,83.352 551.597,119.083 859.716,119.083c576.738,0 1195.29,-123.051 1666.07,-273.89c263.737,-83.365 545.18,-234.198 820.844,-440.608c339.808,1135.25 777.108,2149.44 1322.03,2929.44c-41.945,210.378 -82.479,420.755 -121.863,633.123c-12.825,59.538 -23.601,117.099 -32.194,176.637c-73.502,402.893 -142.519,811.744 -206.27,1222.59c-108.782,-778.01 -648.7,-1135.26 -1255.58,-1135.26c-754.914,0 -1613.22,551.748 -1874.26,1532.2Zm2049.62,-17979.5c-597.775,-1325.79 -1654.65,-2155.4 -2728.72,-2391.58c-396.501,-85.343 -784.67,-129.003 -1163.47,-129.003l-71.454,0c14.368,-33.74 28.736,-69.471 43.488,-105.189c518.754,-1234.5 1388.99,-1970.82 2183.92,-2850.05c1081.12,-1194.8 1780.24,-2520.59 2642.01,-4046.83c1489.56,-2637.69 3604.99,-7204.49 6102.82,-7204.49c25.91,0 51.952,1.978 77.986,1.978c1099.47,41.682 2097.34,958.621 3199.63,1049.92c67.214,5.952 131.097,7.942 192.155,7.942c1102.55,0 1246.35,-897.087 1985.99,-2076.01c587.899,-934.801 1486.48,-1331.74 2454.85,-1331.74c1617.07,0 3428.21,1105.49 4309.74,2649.59c815.586,1429 -364.568,3564.55 15.009,5370.63c248.343,1180.9 976.321,2207 1773.18,3026.68c-1528.94,121.074 -3015.04,488.236 -4444.18,1075.71c-1853.74,-2139.52 -4123.1,-3497.06 -6001.59,-3497.06c-120.966,0 -240.905,5.952 -358.408,17.862c-3537.25,343.348 -8341.39,4928.04 -10213,10431.7l0.018,-0.031Z" style="fill:#82d989;fill-rule:nonzero;"/><path d="M40645.3,66681.9c-1087.79,0 -2158.14,-389.005 -2882.78,-1117.4c-1032.89,-1039.99 -265.28,-3584.39 -943.22,-5168.19c-773.39,-1804.1 -2869.7,-2550.35 -4147.09,-2883.78c-491.428,-127.025 -977.347,-170.685 -1455.05,-170.685c-458.974,0 -910.385,39.692 -1351.14,79.384c-441.276,37.708 -871.775,77.407 -1289.45,77.407c-1441.19,0 -2725.64,-466.412 -3741.34,-3000.89c-233.719,-583.498 -485.017,-1170.98 -714.247,-1772.34c-34.635,-776.026 -52.209,-1558 -52.209,-2345.93c0,-867.315 21.293,-1726.69 62.982,-2578.14c408.693,424.736 878.704,785.946 1437.99,1083.66c631.126,682.741 1447.1,978.467 2285.65,978.467c912.185,0 1850.92,-349.313 2607.37,-928.849c262.583,-150.839 519.266,-329.46 768.892,-535.87c612.014,1075.71 1549.72,2183.18 2468.58,2365.77c82.479,17.868 165.988,23.82 250.267,23.82c188.44,0 380.342,-37.708 570.706,-103.211c963.748,2097.84 2541.31,3709.43 4279.6,4721.63c305.04,652.969 751.703,1222.59 1313.56,1627.46c652.42,470.38 1392.46,678.773 2170.58,678.773c2848.92,0 6214.14,-2788.52 7714.1,-5719.94c402.533,-785.946 707.321,-1623.49 924.112,-2492.8c1212.48,-2355.85 2147.37,-5055.06 2521.17,-7694.71c682.177,841.51 1277.51,1911.28 2339.27,1911.28c94.158,0 191.774,-9.932 293.627,-27.788c533.249,-91.301 1068.17,-341.377 1541.38,-736.328c-316.972,1274.18 -975.936,2280.43 -1549.98,3379.97c-835.089,1597.69 -1279.31,3165.61 -1845.53,4993.53c-988.894,3191.42 -2253.32,8544.18 -4709.22,9498.82c-387.139,150.833 -781.208,184.573 -1177.84,184.573c-164.838,0 -330.057,-5.952 -495.408,-11.904c-165.352,-5.958 -330.959,-11.91 -496.306,-11.91c-367.262,0 -733.492,29.773 -1094.85,152.823c-1252.63,428.698 -1204.27,1371.43 -1741.24,2893.71c-641.386,1818 -2271.02,2649.6 -3862.95,2649.6l0.025,0.006Zm2192.65,-18168.1c156.627,-428.698 231.544,-910.981 189.21,-1442.88c33.737,1.984 67.859,3.968 102.237,3.968c991.33,0 2217.15,-1202.74 2422.91,-2744.86c470.139,1085.64 573.146,2300.28 -383.421,3058.45c-730.409,579.53 -1526.5,863.347 -2330.93,1125.33Zm3791.5,-13930.7c-412.925,-446.559 -805.07,-708.539 -1206.45,-708.539c-292.857,0 -590.592,138.929 -905.127,452.517c-164.839,-581.526 -20.524,-1331.75 622.529,-2278.45c207.557,-305.646 441.276,-518.007 691.291,-664.879c192.155,962.583 557.236,1945.02 873.186,2802.41c-26.299,130.993 -51.187,261.98 -75.43,396.941Zm-4609.4,-2167.3c-1187.47,-1579.83 -2065.91,-2923.49 -1785.63,-5259.49c348.404,-531.896 556.594,-1242.43 502.975,-2151.42c450.385,-1361.52 1058.29,-2476.93 1779.09,-3338.29c903.712,2020.43 1374.87,4304.84 1103.82,6630.9c-183.049,1571.89 -841.881,2943.33 -1600.26,4118.28l0,0.025Zm11932.4,-2623.79c140.596,-1468.69 -141.874,-2969.13 -428.314,-4429.88c853.299,1220.59 1554.59,2288.37 2136.46,4142.1c21.549,69.465 42.971,136.945 64.264,204.426c-234.361,-43.667 -474.624,-63.506 -707.963,-63.506c-395.351,0 -770.688,57.548 -1064.45,146.865Z" style="fill:#cbf734;fill-rule:nonzero;"/><path d="M24121,52725c-562.626,-1476.63 -991.843,-3038.6 -700.14,-4830.79c30.916,-190.532 69.398,-377.095 114.805,-557.706c86.977,37.714 173.816,67.48 260.023,85.342c107.623,130.993 219.227,258.018 336.084,379.079c-41.688,851.449 -62.981,1710.83 -62.981,2578.14c0,787.93 17.574,1569.91 52.209,2345.93Z" style="fill:#dbf746;fill-rule:nonzero;"/><path d="M42285,57712.6c-778.126,0 -1518.16,-208.394 -2170.58,-678.773c-561.857,-404.877 -1008.52,-974.494 -1313.56,-1627.46c1365.64,795.872 2829.93,1220.6 4174.02,1220.6c885.886,0 1719.94,-184.58 2438.04,-569.617c1889.66,-1014.19 3934.28,-3495.08 5510.28,-6557.5c-216.79,869.305 -521.579,1706.85 -924.112,2492.8c-1499.95,2931.42 -4865.17,5719.94 -7714.1,5719.94l0.004,0.013Zm327.753,-8429.1c-56.83,0 -113.784,0 -170.994,-1.984c159.704,-234.198 295.037,-490.226 396.249,-768.084c804.429,-261.98 1600.52,-545.796 2330.93,-1125.33c956.567,-758.164 853.56,-1972.81 383.42,-3058.45c44.514,-331.444 41.304,-680.751 -21.934,-1036.02c-99.412,-557.707 -449.873,-1274.19 -882.548,-1800.14c120.833,-436.633 193.698,-879.224 225.892,-1327.77c526.067,656.943 1426.71,1111.44 2210.87,1111.44c659.862,0 1237.24,-321.518 1440.3,-1111.44c13.85,91.295 26.812,182.596 38.61,273.89c5.643,69.471 13.855,136.945 24.371,204.426c52.726,476.331 75.173,958.621 57.98,1448.84c-130.067,3697.52 -1985.35,6172.46 -4201.34,6902.81c-542.23,180.605 -1175.54,287.778 -1831.8,287.778l0,0.019Zm-12149.9,-349.307c256.042,-196.489 491.3,-418.771 697.442,-662.895c23.345,41.683 47.079,85.349 71.45,127.026c-249.626,206.409 -506.309,385.03 -768.892,535.869Zm-4893.04,-49.618c-559.287,-297.71 -1029.3,-658.921 -1437.99,-1083.66c5.904,-119.083 12.188,-238.16 18.857,-357.243c182.284,-19.846 357.253,-91.3 518.753,-222.287c210.378,706.555 522.22,1254.34 900.382,1663.19Zm19175.5,-10844.5c-11.927,-65.496 -24.5,-130.993 -37.713,-196.483c38.999,3.968 78.764,5.952 119.555,5.952c22.062,0 44.129,0 66.833,-1.984c-54.774,65.49 -104.166,129.003 -148.675,192.515Zm-899.096,-2770.66c-359.819,-770.068 -778.771,-1460.75 -1200.68,-2024.41c-214.482,-287.785 -424.343,-561.675 -625.351,-829.606c758.376,-1174.96 1417.21,-2546.39 1600.26,-4118.28c271.051,-2326.08 -200.11,-4610.49 -1103.82,-6630.9c1212.09,-1446.86 2742.58,-2181.2 4376.68,-2181.2l3.467,0c2754.5,1.984 3951.85,1952.96 5792,4674c293.751,434.649 571.86,825.638 835.473,1202.73c286.441,1460.75 568.911,2961.19 428.315,4429.88c-85.305,25.798 -163.68,53.586 -233.719,85.343c-674.871,297.704 -1265.84,922.884 -1669.66,1740.59c-980.937,-2532.48 -2378.9,-4616.44 -4075.25,-4888.34c-61.575,-9.926 -122.761,-15.884 -183.566,-15.884c-1104.34,0 -2066.55,1597.7 -2092.34,3370.05c-6.16,418.771 45.664,857.395 133.795,1299.99c-250.015,146.871 -483.734,359.233 -691.291,664.879c-643.053,946.705 -787.368,1696.93 -622.53,2278.45c-135.333,132.971 -273.616,299.688 -416.007,500.146c-101.079,140.913 -186.255,289.761 -255.781,442.591l0.008,-0.025Z" style="fill:#b6e637;fill-rule:nonzero;"/><path d="M24131.8,47800.8c-116.857,-121.061 -228.461,-248.086 -336.084,-379.079c82.611,17.862 164.705,27.788 245.522,27.788c36.686,0 73.245,-1.984 109.419,-5.952c-6.669,119.083 -12.953,238.16 -18.857,357.243Z" style="fill:#c1e644;fill-rule:nonzero;"/><path d="M25713.2,39300.5c-113.912,-130.993 -226.285,-269.922 -336.73,-418.778c495.536,-2099.82 1122.81,-4102.4 1866.43,-5981.92c401.254,-9.926 798.914,-103.211 1162.71,-281.832c80.047,533.886 163.171,1059.84 236.801,1571.9c168.558,1168.99 497.337,2744.85 489.638,4116.29c-472.448,-379.079 -902.178,-635.107 -1362.57,-635.107c-404.585,0 -832.647,196.49 -1334.72,676.789c-170.486,164.734 -447.047,516.024 -721.561,952.664Zm10613.2,-2447.16c-468.468,-936.785 -1417.85,-1347.61 -2458.82,-1347.61c-643.185,0 -1321.77,156.785 -1943.02,442.586c-226.533,-768.084 -406.765,-1595.71 -507.463,-2433.25c320.695,-117.099 601.364,-389.005 910.77,-752.206c613.809,390.989 1266.36,615.261 1886.71,643.043l34.887,0c331.088,0 848.687,-188.542 1397.46,-514.04c83.89,63.512 186.641,97.253 311.842,97.253c229.872,0 535.815,-113.125 940.913,-371.143c556.855,-355.265 1066.89,-1028.08 1453.9,-1855.71c124.941,132.977 245.906,283.822 362.255,450.533c923.467,1329.75 1753.55,2901.65 571.219,4159.96c-63.371,67.475 -126.737,134.955 -189.979,198.468c-881.526,518.007 -1795.63,789.92 -2770.67,1282.12Z" style="fill:#cbf734;fill-rule:nonzero;"/><path d="M25376.5,38881.7c-284.65,-385.037 -558.523,-841.517 -824.055,-1375.4c-84.151,-168.708 -165.736,-341.371 -244.753,-514.04c782.362,-873.273 1350.5,-2195.1 1038.79,-3663.78c23.729,1.984 47.976,1.984 71.962,1.984c518.373,0 1078.3,-140.913 1570.76,-436.633c63.623,3.968 127.121,5.952 190.492,5.952l63.238,0c-743.624,1879.52 -1370.9,3882.1 -1866.43,5981.92Z" style="fill:#dbf746;fill-rule:nonzero;"/><path d="M29638.5,38738.9c-175.872,-156.785 -343.788,-301.672 -506.442,-432.665c7.699,-1371.43 -321.08,-2947.29 -489.637,-4116.29c-73.63,-512.062 -156.755,-1038.01 -236.802,-1571.9c204.219,-99.236 397.793,-226.255 575.199,-381.062c287.599,367.168 634.717,676.782 976.962,910.987c442.943,301.672 795.832,430.674 1101.65,430.674c126.228,0 244.5,-21.83 357.638,-63.506c100.699,837.542 280.931,1665.17 507.464,2433.25c-1163.09,535.876 -2126.2,1526.25 -2286.03,2790.5Zm6982.93,-752.2c-33.352,-440.607 -136.872,-817.708 -295.041,-1133.27c975.038,-492.204 1889.14,-764.116 2770.67,-1282.12c-865.102,887.167 -1708.92,1532.2 -2475.63,2415.4Zm-662.683,-4997.51c-125.202,0 -227.952,-33.74 -311.842,-97.253c909.231,-537.853 1903.77,-1452.81 2276.92,-2512.64c147.521,107.179 291.067,236.182 429.734,383.046c-387.015,827.629 -897.048,1500.44 -1453.9,1855.71c-405.098,258.019 -711.04,371.143 -940.912,371.143Z" style="fill:#b6e637;fill-rule:nonzero;"/><path d="M23895.9,25582.2c-23.345,-11.916 -46.946,-21.836 -71.065,-31.756c-23.601,-77.407 -48.618,-152.829 -74.912,-226.262c32.711,-85.343 66.32,-170.685 100.954,-256.028c1.924,168.701 16.548,341.371 45.023,514.046Zm2639.95,-2736.92c-276.049,-377.095 -592.64,-539.844 -909.103,-539.844c-137.77,0 -275.54,29.772 -410.1,87.326c1644.77,-2641.65 3949.79,-4803 6040.32,-4803c241.546,0 480.399,29.766 714.892,89.31c1108.32,285.8 1945.58,1248.39 2275.9,2490.82c-221.788,-51.603 -439.219,-77.401 -652.804,-77.401c-841.757,0 -1626.05,390.989 -2395.71,1143.19c109.163,-1244.41 -645.105,-1879.52 -1400.4,-1879.52c-526.966,0 -1054.32,309.614 -1289.71,932.817c-242.06,-127.025 -595.594,-206.41 -907.047,-206.41c-233.467,0 -443.456,43.66 -564.678,144.881c-666.659,555.722 -509.777,1593.73 -501.569,2617.84l0.009,0Z" style="fill:#dbf746;fill-rule:nonzero;"/><path d="M28218.4,28990c-531.711,-2095.86 -3022.22,-3897.97 -4149.53,-2115.7c-181.895,-2461.04 -1677.61,-4007.14 -3208.35,-4342.55c-2365.05,-516.018 -4420.97,535.876 -6093.72,2834.17c-854.586,-1764.41 -1736.11,-2649.58 -3197.19,-2526.53c-1301.76,111.141 -3772.9,1520.29 -3998.8,3848.36c-1013.01,-1556.02 -2797.09,454.495 -3077.89,2151.42c-273.488,1653.27 128.024,4431.87 1597.06,4056.75c-190.748,1165.03 -716.815,1935.1 -457.824,3439.51c235.647,1369.45 764.024,2220.89 1645.42,2705.17c1184.9,650.985 4695.2,907.006 5159.96,-1631.44c974.137,1250.37 1527.91,2445.16 2908.43,2564.25c890.888,77.406 1568.58,-41.677 2382.88,-783.956c255.786,-232.22 613.296,-537.866 799.812,-891.141c82.095,-154.807 191.133,-1165.02 208.707,-1178.92c467.956,-325.492 1083.43,843.501 1623.74,1020.14c733.107,242.134 1803.45,77.401 2525.79,-154.807c1271.23,-406.873 2948.59,-2351.89 2459.46,-4656.14c1598.72,41.676 3649.11,-1276.17 2872.01,-4338.58l0.03,0Z" style="fill:#0cc1bc;fill-rule:nonzero;"/><path d="M45530.5,43293.8c-218.325,-1226.55 -1647.08,-3217.22 -2498.21,-2260.59c280.803,-4346.52 -4901.89,-4749.41 -6399.11,-2701.19c26.551,-4483.46 -6552.79,-3086.23 -6994.6,406.861c-1135.13,-1002.27 -1933.53,-1605.63 -3203.73,-390.982c-564.935,541.828 -2292.58,3149.74 -1261.1,4050.8l-484.631,448.549c37.584,-2177.23 -2772.21,-1804.11 -3179.62,184.573c-458.717,2236.77 1820.65,5281.32 3159.99,4189.73c1072.15,3604.23 4780.78,3078.29 6490.85,1049.91c608.931,1113.43 1584.74,2304.25 2540.03,2492.8c614.19,123.057 1294.32,-236.182 1847.07,-674.805c239.494,-190.525 1021.6,-1401.21 1258.02,-1401.21c421.517,-3.961 692.958,1105.49 993.77,1472.66c557.36,680.757 1106.39,772.052 1793.19,787.93c1248.91,25.798 3633.72,-1385.33 3434.89,-3878.13c1217.35,105.189 2869.7,-1718.76 2503.21,-3776.91l-0.005,0Z" style="fill:#0cc1bc;fill-rule:nonzero;"/><path d="M28760.8,20497.3c-228.974,-369.153 -1363.85,-569.611 -1723.41,-269.922c-666.659,555.722 -509.776,1593.73 -501.569,2617.84c-1148.98,-1569.91 -2998.36,569.61 -2639.95,2736.92c-1014.55,-521.982 -2719.48,891.128 -2796.32,2715.08c-94.025,2238.75 2211.63,3637.98 3180.13,2119.67c743.495,3457.37 5571.97,3336.31 5736.55,-565.642c818.669,2129.6 2614.43,3487.14 4198.27,3554.62c1158.47,49.619 4878.76,-2433.26 3596.64,-4965.74c1359.75,33.734 3286.6,-1085.64 2879.19,-3892.03c-435.881,-3002.87 -2691.13,-1770.36 -3870.26,-1677.07c518.626,-1625.49 -1641.7,-2427.31 -2339.14,-2639.68c-1189.26,-361.211 -2248.7,-5.952 -3281.73,1004.26c216.919,-2476.91 -2978.35,-2532.49 -2811.2,-3.968c151.112,-33.74 246.424,-156.791 372.776,-283.81l0,-450.533l0.017,0Z" style="fill:#0cc1bc;fill-rule:nonzero;"/><path d="M46927.9,34930.2c-968.498,-1202.73 -1790.89,-1559.98 -2825.83,-103.199c-907.688,1276.16 -522.472,3084.24 791.989,3020.73c-2029.22,2367.76 3164.99,5094.75 3669.5,2137.53c-124.167,1429 971.452,2832.19 1776.27,3294.63c1133.33,652.969 2236.39,-317.557 2811.97,-1810.06c881.141,924.875 1514.45,2465.02 2925.63,2218.91c1337.42,-232.214 2685.36,-1450.83 3044.54,-3469.28c472.957,3235.08 5434.62,1716.77 4415.97,-2738.91c771.457,29.766 1274.05,662.895 2041.93,69.464c572.753,-444.575 1247.24,-1980.74 1224.41,-2971.11c-45.536,-1956.92 -2577.74,-3564.54 -3509.55,-2334.02c519.908,-3691.56 -5142.01,-4048.81 -5909.6,-1161.05c-398.045,-1641.36 -2751.68,-1611.59 -3666.17,-1206.71c-1033.79,456.479 -1870.42,1677.08 -2139.41,3191.42c-520.04,-1430.98 -1939.56,-1927.16 -2967.83,-1704.88c-1454.92,317.557 -1773.3,1956.93 -2076.81,3766.99c172.277,117.099 225.636,1.99 380.855,-51.602l12.188,-148.855l-0.034,0Z" style="fill:#0cc1bc;fill-rule:nonzero;"/><path d="M10678.2,35003.6c-658.579,0 -1179,-355.265 -1172.46,-1149.15c-71.835,738.311 -678.073,1041.97 -1288.16,1043.95c-462.056,0 -926.549,-176.637 -1162.58,-470.373c-678.073,-841.516 -175.611,-1960.9 -59.262,-2830.2l-48.49,75.41c-68.372,69.471 -134.692,101.227 -197.545,101.227c-429.088,0 -708.48,-1456.78 -543.77,-1992.65c133.282,-436.633 565.32,-760.141 940.789,-760.141c219.094,0 418.824,111.14 528.889,373.127c126.095,-1357.55 1018.39,-2197.08 1869,-2197.08c415.746,0 821.614,200.458 1123.07,639.075c279.772,-649.001 1130.25,-992.355 1936.22,-992.355c984.917,0 1903.25,512.055 1632.59,1605.63c982.734,593.425 365.334,3322.41 -662.811,3322.41c-102.618,0 -209.22,-25.792 -318.767,-85.343c445.508,2018.46 -1317.92,3316.46 -2576.71,3316.46Z" style="fill:#55d4d0;fill-rule:nonzero;"/><path d="M21144.4,31647.5c-139.566,0 -267.717,-31.756 -372.263,-103.211c-413.823,-277.858 -980.681,-1413.12 -609.445,-2064.1c-666.787,-480.294 -121.863,-1744.56 308.893,-2066.09c252.579,-188.541 627.531,-392.966 1013.26,-498.155c-219.612,408.851 -364.183,879.224 -385.348,1381.35c-50.157,1196.78 583.923,2151.43 1333.19,2552.34c-288.497,472.363 -845.989,797.862 -1288.29,797.862Zm2444.72,-452.518c-224.485,0 -456.669,-41.682 -640.236,-164.733c80.688,13.894 161.119,21.836 240.905,21.836c415.11,0 808.794,-194.505 1089.85,-635.112c41.689,192.521 95.954,375.117 161.628,545.796c-70.937,59.538 -145.593,105.188 -225.383,132.977c-154.318,51.602 -386.241,99.236 -626.762,99.236Z" style="fill:#55d4d0;fill-rule:nonzero;"/><path d="M23189.8,31052c-79.786,0 -160.218,-7.942 -240.906,-21.836c-177.278,-117.099 -309.277,-307.631 -345.707,-607.319c-30.274,150.84 -89.921,293.736 -170.481,426.707c-749.266,-400.909 -1383.35,-1355.56 -1333.19,-2552.34c21.165,-502.129 165.736,-972.503 385.348,-1381.35c165.608,-45.65 333.135,-73.438 493.998,-73.438c321.332,0 615.733,109.163 812.38,398.925c31.429,-648.995 552.491,-891.135 1072.53,-891.135c396.762,0 793.011,140.913 970.417,345.338c122.505,-537.853 158.165,-1093.58 483.99,-1397.24c127.382,-119.077 246.937,-170.679 357.767,-170.679c235.006,0 431.269,228.24 580.97,521.976c137.898,-527.934 445.764,-776.02 769.281,-776.02c374.315,0 769.409,331.445 945.794,942.737c278.998,-859.384 1311.76,-1538.15 2160.45,-1538.15c659.99,0 1208.89,410.835 1204.91,1464.72c321.721,-337.403 653.834,-529.925 982.609,-529.925c323.769,0 644.464,186.564 948.867,609.309c1209.4,1681.06 -681.663,2332.04 -1579.48,2332.04c-41.175,0 -80.299,-1.99 -116.99,-3.974c-619.195,-45.644 -1170.92,-273.884 -1735.34,-623.196c-188.311,-117.099 -296.704,-220.304 -422.035,-220.304c-78.118,0 -162.782,39.692 -277.335,142.897c-261.429,236.182 -694.236,1288.08 -1063.04,1288.08c-140.848,0 -272.33,-152.823 -381.368,-563.658c-154.19,764.109 -427.422,1530.22 -931.683,1927.16c-144.567,115.109 -271.175,156.791 -387.524,156.791c-156.626,0 -294.781,-75.416 -433.449,-150.839c-138.668,-75.417 -277.852,-150.839 -436.659,-150.839c-28.603,0 -57.723,1.984 -87.613,5.952c-343.784,61.528 -609.701,698.625 -975.038,1000.3c-65.675,-170.679 -119.94,-353.274 -161.628,-545.796c-281.055,440.607 -674.739,635.113 -1089.85,635.113Z" style="fill:#55d4d0;fill-rule:nonzero;"/><path d="M33126.7,47272.8c0,0 -51.567,0 -51.567,0c-907.949,-17.862 -1213.12,-823.654 -1843.22,-1583.8c-597.77,908.996 -1426.83,1500.44 -2277.57,1500.44c-161.888,0 -324.803,-21.837 -486.816,-67.481c-579.687,-158.781 -1338.7,-633.122 -1403.48,-1661.21c-87.233,361.223 -278.878,519.998 -487.072,519.998c-374.187,0 -801.993,-508.082 -774.155,-1254.34c20.524,-547.787 264.507,-1089.61 581.611,-1339.68c79.016,-61.522 230.898,-107.172 386.498,-129.002c-172.148,-565.642 15.137,-1438.91 340.706,-1780.29c198.319,-208.4 422.291,-297.711 649.598,-297.711c441.015,0 894.094,339.387 1193.36,813.728c285.675,-708.539 594.696,-1301.97 1163.61,-1319.83c9.494,-1.984 18.728,-1.984 28.094,-1.984c576.866,0 895.509,605.335 1366.67,891.135c500.799,-1653.27 1177.46,-1982.73 2337.99,-2220.89c265.537,-55.57 518.497,-85.342 758.376,-85.342c1131.28,0 1967.52,660.911 2427.39,2461.04c136.62,-472.364 447.565,-645.027 780.576,-645.027c324.029,0 668.967,162.744 894.478,367.169c383.805,349.307 687.692,861.369 714.504,1563.96c26.427,696.629 -188.697,658.92 -343.784,1099.53c-118.914,337.402 -117.759,837.548 -248.732,1232.51c-312.74,942.737 -796.602,1296.01 -1456.33,1395.25c-159.195,23.821 -321.469,41.677 -483.092,41.677c-365.851,0 -728.491,-89.311 -1043.92,-396.941c-268.23,-259.996 -456.285,-684.725 -728.362,-893.119c-272.842,1359.53 -1142.57,1790.2 -1995.36,1790.2Z" style="fill:#55d4d0;fill-rule:nonzero;"/><path d="M50614.1,40721.6c-198.7,0 -392.659,-81.374 -570.578,-267.938c-439.22,-458.463 -500.41,-1831.89 -1068.93,-1958.91c-25.013,-5.952 -49.773,-9.926 -74.533,-9.926c-449.996,0 -833.288,899.07 -1282.77,1004.26c-114.553,27.788 -198.699,49.618 -264.126,49.618c-133.79,0 -190.363,-93.278 -271.564,-440.607c-6.669,-27.782 -11.414,-61.522 -15.522,-95.262c-128.532,83.358 -260.018,134.961 -391.632,134.961c-140.203,0 -280.409,-59.539 -416.901,-206.41c-327.488,-353.281 -517.856,-1131.28 -244.881,-1617.54l-38.097,0c-657.938,0 -1082.02,-914.949 -306.841,-1383.34c114.293,-69.465 224.101,-101.221 329.929,-101.221c377.906,0 702.833,390.989 989.663,801.824c444.995,-865.33 592.516,-1808.07 1455.44,-2018.45c57.082,-13.894 116.861,-19.846 178.436,-19.846c659.213,0 1525.73,770.068 1478.01,1857.68c315.438,-992.355 906.026,-1510.36 1494.95,-1510.36c546.976,0 1092.67,446.566 1414.77,1377.39c296.833,-541.828 830.98,-823.661 1368.98,-823.661c581.611,0 1167.84,331.451 1463.27,1020.14c231.026,539.844 291.827,1990.67 -68.889,1990.67c-89.024,0 -203.834,-87.327 -348.016,-299.694c-447.688,780 -787.625,1359.53 -1477.25,1359.53c-66.829,0 -137.129,-5.952 -211.016,-17.862c-579.554,-87.327 -789.676,-783.962 -1260.33,-1039.99c-265.019,1020.14 -1098.31,2214.94 -1861.57,2214.94Z" style="fill:#55d4d0;fill-rule:nonzero;"/></g></g></svg>