<?xml version="1.0" encoding="UTF-8" standalone="no"?><!DOCTYPE svg PUBLIC "-//W3C//DTD SVG 1.1//EN" "http://www.w3.org/Graphics/SVG/1.1/DTD/svg11.dtd"><svg width="100%" height="100%" viewBox="0 0 69446 69446" version="1.1" xmlns="http://www.w3.org/2000/svg" xmlns:xlink="http://www.w3.org/1999/xlink" xml:space="preserve" xmlns:serif="http://www.serif.com/" style="fill-rule:evenodd;clip-rule:evenodd;stroke-linejoin:round;stroke-miterlimit:2;"><g><g><path d="M54493.9,34285.6c0,17425.8 -8538.9,31550.7 -19072.4,31550.7c-10533.5,0 -19072.5,-14124.9 -19072.5,-31550.7c0,-17424.8 8539,-31550.7 19072.5,-31550.7c10533.5,0 19072.4,14125.9 19072.4,31550.7Z" style="fill:#ed6326;fill-rule:nonzero;"/><path d="M31476.6,40643.8c-3621.12,-3387.89 -9343.77,-2736.09 -12125.8,2673.89c-456.111,886.754 -922.272,2310.83 -1306.47,3967.41c2429.93,8940.35 7303.53,15669.4 13214.1,17862.1c4705.4,-6404.13 6537.63,-18590.5 218.122,-24503.4l-0.006,-0.006Z" style="fill:#ef8a34;fill-rule:nonzero;"/><path d="M25643.1,17771.5c-2347.06,-278.276 -5130.81,3640.95 -5640.34,7339.83c-777.311,5643.98 2304.49,5713.48 4787.14,5928.44c2376.64,205.98 5516.36,-735.683 5976.75,-5646.07c459.951,-4904.96 -2273.33,-7284.29 -5123.59,-7622.18l0.037,-0.034Z" style="fill:#ef8a34;fill-rule:nonzero;"/><path d="M47951.5,22303.9c-950.385,-4318.35 -2672.55,-7886.45 -4511.79,-11117.5c-1027.72,-1805.46 -8875.67,-6162.08 -7049.31,2914.99c489.416,2431.66 1056.74,5574.34 1834.39,7559.61c1549.88,3956.03 3198.09,10830.2 6323.01,10790.3c3085.87,-39.417 4312.4,-6017.9 3403.68,-10147.4l0.016,0.014Z" style="fill:#ef8a34;fill-rule:nonzero;"/><path d="M51855.7,38878.2c-98.561,-745.755 -919.791,-5173.16 -919.791,-5173.16c-2450.82,-5713.48 -8265.22,11914.2 -7168.74,15685c2400.35,8251.18 9002.59,-3589.6 8088.53,-10511.8l0.005,0Z" style="fill:#ef8a34;fill-rule:nonzero;"/><path d="M35335.5,65898.2c-2973.42,0 -5992.22,-1154.19 -8810.63,-3587.72c-4465.84,-3858.54 -7623.41,-10230.9 -9168.96,-17520.3c32.402,35.295 66.048,71.895 98.561,107.196c412.421,1909.85 933.789,3738.26 1550.44,5458.36c2634.61,7397.72 7040.82,12858.6 12253.6,14791.7c12.42,-16.811 24.84,-33.615 37.144,-50.426c1328.26,483.721 2709.35,739.585 4125.67,739.585c2176.24,0 4266.91,-603.251 6215.23,-1712.63c1.694,0 4.405,1.867 6.099,1.867c-2017.73,1165.4 -4150.62,1772.38 -6307.12,1772.38l-0.037,0.007Zm-18843.5,-27726.6c-26.643,-31.734 -53.403,-63.857 -80.046,-95.799c-71.125,-978.845 -114.595,-1964.57 -129.946,-2954.43c25.065,30.276 49.789,60.143 74.849,90.218c17.386,999.176 62.885,1986.23 135.143,2960.01Z" style="fill:#554e78;fill-rule:nonzero;"/><path d="M35421.3,65836.7c-1416.31,0 -2797.41,-255.864 -4125.67,-739.585c1125.04,-1544.54 2083.78,-3417.77 2803.73,-5457.24c2337.24,1581.89 4882.66,3124.56 7537.14,4484.19c-1948.3,1109.38 -4038.96,1712.63 -6215.23,1712.63l0.026,0Zm9927.89,-4620.54c-2636.53,-1258.78 -5691.69,-3027.42 -9283.82,-5516.98c947.336,-9.336 1901.56,-153.151 2858.83,-349.247c2700.32,1523.99 5518.72,2808.91 8255.73,3752.08c-586.965,765.725 -1198.2,1471.69 -1830.77,2114.15l0.031,0Zm-26344.3,-10860.3c-616.655,-1720.1 -1138.02,-3548.51 -1550.44,-5458.35c313.185,340.092 626.815,677.2 942.706,1013.38c-123.06,433.295 -241.378,894.597 -352.809,1374.58c286.766,1055.21 607.964,2080.55 960.548,3070.39Zm1036.41,-8200.05c-1258.37,-1328.63 -2440.08,-2659.33 -3549.32,-3984.04c-72.258,-973.785 -117.757,-1960.84 -135.143,-2960.01c1528.65,1840.55 3174.16,3687.1 4897.67,5499.81c-433.642,418.546 -840.757,899.643 -1213.21,1444.25Z" style="fill:#f18251;fill-rule:nonzero;"/><path d="M31258.5,65147.4c-5212.77,-1933.01 -9619.02,-7393.97 -12253.6,-14791.7c-352.584,-989.847 -673.782,-2015.18 -960.548,-3070.39c111.431,-479.98 229.749,-941.282 352.809,-1374.58c2552.31,2709.93 5186.7,5270.66 7757.99,7571.39c2128.37,1904.99 4853.08,4065.84 7944.24,6157.59c-719.958,2039.46 -1678.7,3912.7 -2803.73,5457.24c-12.305,16.811 -24.725,33.615 -37.144,50.426l-0.016,0.034Zm-9123.49,-20854.6c-718.941,-709.322 -1418.01,-1423.52 -2093.72,-2137.14c372.456,-544.607 779.57,-1025.7 1213.21,-1444.25c25.857,27.271 51.483,54.174 77.45,81.438c189.333,1243.84 460.517,2411.3 803.052,3499.95Z" style="fill:#f2a15d;fill-rule:nonzero;"/><path d="M16664.2,28541c-18.404,-24.667 -37.82,-50.794 -55.999,-75.461c340.956,-2969.73 947.788,-5908.63 1837.1,-8726.53c1880.9,-5959.24 4750.68,-10509.9 8103,-13388.9c-5083.06,4427.4 -8810.9,12541.2 -9884.09,22190.9l-0.005,-0.027Z" style="fill:#554e78;fill-rule:nonzero;"/><path d="M50983.5,33962.9c-30.142,-163.599 -47.644,-257.912 -47.644,-257.912c-336.776,-784.972 -737.455,-1129.57 -1174.49,-1129.57c-464.471,0 -970.367,388.484 -1486.1,1049.82c-737.68,-404.532 -1461.02,-1026.47 -2168.34,-1789.21c1916.58,-1634.73 2580.2,-6189.35 1844.55,-9532.21c-950.384,-4318.35 -2672.55,-7886.45 -4511.79,-11117.5c-546.317,-959.785 -3020.5,-2640.84 -4943.74,-2640.84c-1694.39,0 -2961,1304.36 -2105.57,5555.83c346.264,1720.47 731.475,3796.91 1202.72,5567.43c-1991.32,-2407.96 -4098.24,-4505.67 -6407.61,-4505.67c-923.741,0 -1880,335.796 -2873.96,1121.52c-588.087,465.036 -1153.15,1032.99 -1690.21,1686.27c-321.309,-94.113 -648.943,-160.433 -978.155,-199.462c-79.035,-9.329 -159.076,-14 -238.897,-14c-2293.54,0 -4909.08,3779.52 -5401.44,7353.82c-434.775,3156.85 337.794,4569.73 1537.58,5239.45c-60.741,355.792 -115.838,712.515 -164.835,1068.67c-113.236,821.946 -198.59,1622.03 -257.746,2402.35c-1695.52,-1797.42 -3182.18,-3572.61 -4453.53,-5280.74c1073.22,-9649.72 4801.03,-17763.4 9884.09,-22190.9c2713.75,-2330.8 5743.04,-3565.7 8819.81,-3565.7c2973.87,0 5992.59,1154.58 8811.31,3589.04c5393.99,4658.81 8878.92,12986.8 9920.81,22167.9c41.77,3437.94 -1787.08,4947.55 -3116.81,5421.57l-0.01,0.027Z" style="fill:#f18251;fill-rule:nonzero;"/><path d="M21540.4,30350.7c-1199.78,-669.718 -1972.35,-2082.6 -1537.57,-5239.45c492.353,-3574.29 3107.89,-7353.82 5401.44,-7353.82c79.821,0 159.863,4.671 238.897,14c329.213,39.029 656.847,105.349 978.156,199.462c-2417.51,2940.79 -4266.23,7609.13 -5080.91,12379.8l-0.011,-0.007Z" style="fill:#f2a15d;fill-rule:nonzero;"/><path d="M46106.9,31836.1c-2763.31,-2979.8 -5275.67,-8104.42 -7384.72,-10766c-372.566,-470.076 -748.746,-941.269 -1129.1,-1401.27c-471.243,-1770.52 -856.455,-3846.96 -1202.72,-5567.43c-855.432,-4251.47 411.179,-5555.83 2105.57,-5555.83c1923.24,0 4397.42,1681.05 4943.74,2640.84c1839.24,3230.99 3561.4,6799.1 4511.79,11117.5c735.65,3342.87 72.027,7897.5 -1844.55,9532.21l-0.005,0.007Z" style="fill:#f2a15d;fill-rule:nonzero;"/><path d="M50096.1,34138.5c0,0 -2.37,0 -2.37,0c-614.395,-0.937 -1221.23,-185.83 -1818.69,-513.214c515.729,-661.332 1021.62,-1049.82 1486.1,-1049.82c437.031,0 837.71,344.596 1174.49,1129.57c0,0 17.502,94.313 47.644,257.911c-342.309,122.133 -651.539,175.551 -887.163,175.551Z" style="fill:#f2a15d;fill-rule:nonzero;"/><path d="M19670.4,13395.4c0,0 -6484.81,-2540.73 -8191.48,1976.13c-1706.58,4516.89 5998.09,17695.1 21161.1,28371.6c16638.8,11714.7 26176.3,13238.8 28584.5,9032.83c1535.88,-2681.92 -5034.28,-11997.1 -5034.28,-11997.1l426.646,-1976.15c0,0 10921.7,10869.2 6826.09,18491.1c-4095.65,7621.85 -21299.9,1736.91 -31826.8,-6915.81c-14079,-11575.2 -27740.1,-29031.6 -25342.1,-36417.8c2474.41,-7622.38 13993.6,-1976.13 13993.6,-1976.13l-597.234,1411.37l0.006,-0.114Z" style="fill:#7d0d98;fill-rule:nonzero;"/><path d="M12502.9,8596.31c-682.588,282.198 -10044,-874.065 -8532.81,7339.77c1194.58,6493.22 9229.07,21695.4 24659.5,34157.9c18174.7,14681.5 25506.8,14128.6 30803,14397.6c11092.4,565.882 6058.15,-12279.7 6058.15,-12279.7c0,0 7310.24,12248 682.594,15245.5c-12799,5785.93 -31356.7,-6222.96 -40018.3,-13975.5c-10409.7,-9315.38 -21843.6,-22866 -24744.8,-33593.5c-2088.29,-7722.29 966.302,-11347.2 3754.34,-12703.7c2901.28,-1411.56 7338.2,1411.55 7338.2,1411.55l0.084,0.04Z" style="fill:#7d0d98;fill-rule:nonzero;"/><path d="M16074.1,32011.4c-360.598,0 -599.269,-289.472 -921.711,-583.997c-2527.36,-2308.76 -3712.91,-7090.68 -6058.15,-9598.93c-1210.96,-1294.83 -1717.31,-3266.68 -1883.72,-5606.83c-154.445,-2174.87 778.327,-4282.11 2049.91,-4802.44l426.646,-282.198c691.846,-3.922 1314.82,-133.53 1958.12,-289.673c309.796,-75.074 995.542,-418.532 1505.06,-418.532c186.511,0 349.421,46.123 461.534,168.276c981.319,1068.28 -802.941,995.074 -1108.9,1097.24c-622.299,207.848 -1136.44,617.057 -1706.58,995.255c-1240.2,822.702 -2074.41,2004.9 -1704.1,4509.77c280.215,1895.47 1578.11,3247.46 2278.31,4837.75c823.486,1870.05 1901.78,3013.8 2689.71,4873.59c738.021,1742.5 2377.09,2633.73 2098.79,5095.46c-29.125,3.554 -57.353,5.22 -84.899,5.22l-0.015,0.033Z" style="fill:#bf37b0;fill-rule:nonzero;"/><path d="M9611.63,32503.6c-401.691,0 -1070.96,-853.139 -1294.27,-1154.19c-1164.22,-1570.3 -2071.7,-3083.65 -3174.05,-4791.79c-1219.87,-1889.87 -1383.12,-3626.2 -1941.08,-6104.56c-481.176,-2136.38 -1519.39,-4098.15 -1455.04,-6351.83c57.242,-2004.34 911.436,-5381.21 2393.57,-5504.85l597.35,-564.597c210.894,-190.688 497.771,-314.32 769.631,-314.32c222.412,0 434.776,82.936 586.965,279.414c-701.444,920.73 -1766.65,1095.73 -2484.57,1975.95c-736.443,903.176 -890.887,2798.47 -753.714,4269.59c333.729,3578.21 1637.26,8026.39 3093.21,11002.4c525.206,1073.89 1197.18,1431.16 1715.27,2516.26c332.826,697.196 657.188,1404.08 1062.38,2042.82c248.831,392.011 1185.78,1371.04 1198.42,1938.04c12.42,561.223 -119.331,761.622 -314.087,761.622l0,0.007Z" style="fill:#bf37b0;fill-rule:nonzero;"/><path d="M57571,58524.7c-350.329,0 -684.959,-28.02 -991.593,-80.307c-2154,-362.324 -4232.36,-1382.06 -6392.56,-1903.12c-2565.4,-620.055 -5040.72,-1662.2 -7558.17,-2388.7c-1536.11,-442.638 -4879.27,-1236.38 -5630.85,-3763.29l-511.885,-423.765c-364.442,-674.403 -2614.63,-1959.34 -1109.91,-1959.34c64.239,0 135.364,1.867 213.601,7.462c805.202,50.432 2039.98,1606.17 2787.6,2216.89c1948.64,1587.49 3968.96,2470.88 6050.8,3322.52c2014.91,825.486 4011.53,1135.52 6136.08,1494.11c2041.56,345.507 4049.58,1432.47 6143.27,1481.03c52.501,1.874 104.881,1.874 157.387,1.874c2042.11,0 4111.1,-937.561 5345.43,-3612.01c284.731,-616.12 683.716,-1271.66 985.834,-1271.66c234.04,0 409.826,393.884 429.016,1505.12c21.226,1230.77 -873.61,2560.53 -1446.57,3324.4c-1108.78,1479.16 -3020.05,2048.79 -4607.53,2048.79l0.042,0Z" style="fill:#9e22a4;fill-rule:nonzero;"/></g></g></svg>